<svg width="600" height="400" viewBox="0 0 600 400" fill="none" xmlns="http://www.w3.org/2000/svg">
<path d="M444.16 335.134C436.405 343.195 429.067 348.394 423.269 352.502C355.119 400.783 274.48 386.709 257.343 383.267C232.034 378.191 183.116 368.381 147.748 327.314C94.2405 265.191 102.571 167.306 144.077 102.693C151.666 90.8738 191.77 25.2756 273.278 14.756C322.61 8.38615 380.107 21.2301 421.746 55.6745C509.152 127.977 502.93 274.045 444.16 335.134Z" fill="#EDEDED"/>
<path d="M469.964 49.9405C469.362 47.9334 466.463 48.0662 466.057 50.1221C462.127 70 450.211 121.803 427.85 150.555C391.442 197.37 370.511 270.381 398.931 305.103C398.935 305.103 535.462 268.696 469.964 49.9405Z" fill="#424242"/>
<path opacity="0.43" d="M468.312 77.9932C468.312 78.6328 468.263 79.1614 468.233 79.7306L468.111 81.4098L467.831 84.7601C467.628 86.9922 467.392 89.2203 467.153 91.4484C466.663 95.9018 466.121 100.35 465.527 104.792C464.338 113.675 462.91 122.525 461.349 131.356C459.787 140.187 458.002 148.974 456.02 157.715C454.037 166.455 451.917 175.175 449.514 183.817C444.751 201.109 439.041 218.159 432.151 234.736C428.617 242.987 424.869 251.15 420.654 259.077C416.383 266.972 411.774 274.69 406.624 282.036C406.569 282.108 406.489 282.156 406.4 282.171C406.311 282.186 406.22 282.166 406.145 282.116C406.07 282.066 406.017 281.989 405.997 281.901C405.977 281.813 405.991 281.72 406.037 281.643C410.871 274.131 415.316 266.376 419.353 258.408C423.418 250.458 427.014 242.28 430.394 234.013C433.774 225.746 436.811 217.343 439.663 208.885C442.514 200.426 445.007 191.839 447.454 183.248C452.276 166.036 456.178 148.581 459.598 131.032C461.288 122.254 462.809 113.445 464.16 104.604C464.845 100.186 465.485 95.7586 466.08 91.3223L466.913 84.6679L467.296 81.338L467.468 79.6723C467.515 79.1302 467.576 78.5393 467.603 78.0596V77.981C467.605 77.8882 467.644 77.8001 467.711 77.7359C467.778 77.6717 467.868 77.6368 467.96 77.6388C468.053 77.6407 468.141 77.6795 468.205 77.7464C468.27 77.8134 468.305 77.9031 468.303 77.9959L468.312 77.9932Z" fill="white"/>
<path d="M399.091 11.0765C397.992 9.40004 395.37 10.3121 395.558 12.3085C397.382 31.609 400.581 82.3655 387.918 114.834C367.302 167.698 368.024 240.362 403.56 264.457C403.56 264.455 518.833 193.822 399.091 11.0765Z" fill="#6A6A6A"/>
<path opacity="0.43" d="M405.236 37.2552C405.411 37.8434 405.507 38.3394 405.643 38.8707L405.988 40.4428L406.645 43.5924C407.07 45.6945 407.459 47.8019 407.852 49.9107C408.617 54.1284 409.336 58.3546 410.008 62.5894C411.341 71.0599 412.447 79.5656 413.423 88.0849C414.399 96.6041 415.162 105.152 415.727 113.712C416.292 122.272 416.729 130.843 416.886 139.424C417.234 156.582 416.649 173.775 414.853 190.858C413.864 199.388 412.651 207.897 410.947 216.317C409.185 224.72 407.059 233.056 404.337 241.197C404.308 241.282 404.247 241.351 404.168 241.391C404.088 241.431 403.996 241.439 403.911 241.413C403.826 241.386 403.754 241.328 403.711 241.25C403.668 241.172 403.657 241.08 403.68 240.994C406.062 232.788 408.02 224.464 409.546 216.057C411.102 207.654 412.168 199.174 413.013 190.677C413.857 182.179 414.352 173.644 414.657 165.105C414.961 156.567 414.906 148.017 414.807 139.472C414.536 122.376 413.351 105.301 411.702 88.276C410.859 79.7648 409.851 71.2717 408.678 62.7967C408.103 58.5574 407.484 54.3244 406.822 50.0978L405.771 43.7686L405.214 40.6095L404.919 39.036C404.813 38.5223 404.709 37.9667 404.599 37.5222L404.58 37.4476C404.558 37.361 404.572 37.2694 404.617 37.1924C404.662 37.1154 404.735 37.0591 404.821 37.0356C404.907 37.012 404.999 37.0231 405.077 37.0664C405.155 37.1097 405.213 37.1818 405.239 37.2674L405.236 37.2552Z" fill="white"/>
<g opacity="0.3">
<path d="M219.644 76.2381C219.984 76.184 220.331 76.2573 220.62 76.4439C220.909 76.6305 221.118 76.9173 221.208 77.2491C221.615 78.767 221.97 80.3256 222.252 81.8815C222.285 82.0614 222.281 82.246 222.243 82.4248C222.204 82.6035 222.13 82.7728 222.026 82.9231C221.922 83.0734 221.789 83.2017 221.635 83.3006C221.482 83.3995 221.31 83.4672 221.13 83.4997H221.104C220.744 83.5573 220.375 83.4715 220.078 83.2607C219.78 83.05 219.577 82.7309 219.512 82.3721C219.241 80.8948 218.911 79.4135 218.521 77.9715C218.424 77.6158 218.473 77.2363 218.656 76.9164C218.839 76.5964 219.141 76.3622 219.497 76.2652C219.545 76.2533 219.595 76.2442 219.644 76.2381ZM221.489 88.2282C221.543 88.2189 221.598 88.2131 221.653 88.2106C222.022 88.1952 222.382 88.3268 222.654 88.5766C222.926 88.8264 223.087 89.174 223.103 89.5428C223.171 91.1217 223.171 92.7183 223.103 94.2863C223.087 94.6553 222.926 95.0029 222.654 95.2528C222.382 95.5026 222.022 95.6342 221.653 95.6186C221.284 95.6029 220.936 95.4414 220.686 95.1694C220.437 94.8974 220.305 94.5374 220.321 94.1684C220.384 92.6776 220.384 91.1583 220.321 89.658C220.307 89.3182 220.419 88.9852 220.634 88.7218C220.849 88.4584 221.153 88.2829 221.489 88.2282ZM220.647 100.325C220.868 100.29 221.093 100.308 221.305 100.377C221.517 100.447 221.709 100.567 221.865 100.726C222.021 100.885 222.136 101.08 222.202 101.293C222.267 101.507 222.28 101.732 222.24 101.952C221.954 103.502 221.597 105.059 221.18 106.58C221.076 106.929 220.839 107.224 220.521 107.401C220.202 107.578 219.827 107.623 219.475 107.526C219.124 107.43 218.824 107.199 218.641 106.884C218.457 106.569 218.404 106.195 218.494 105.841C218.891 104.398 219.23 102.919 219.501 101.448C219.553 101.165 219.691 100.906 219.897 100.705C220.102 100.504 220.364 100.372 220.647 100.325ZM217.124 111.933C217.37 111.894 217.622 111.922 217.854 112.013C218.086 112.105 218.29 112.257 218.443 112.454C218.596 112.651 218.693 112.885 218.725 113.133C218.757 113.38 218.721 113.632 218.623 113.861C217.996 115.309 217.301 116.747 216.554 118.136C216.38 118.462 216.083 118.704 215.729 118.811C215.375 118.917 214.994 118.879 214.669 118.704C214.343 118.529 214.101 118.232 213.994 117.878C213.888 117.525 213.926 117.143 214.101 116.818C214.81 115.499 215.472 114.133 216.065 112.752C216.159 112.538 216.304 112.351 216.489 112.208C216.674 112.065 216.892 111.97 217.122 111.933H217.124ZM211.098 122.464C211.371 122.42 211.65 122.459 211.901 122.574C212.151 122.689 212.362 122.876 212.506 123.112C212.651 123.347 212.722 123.62 212.71 123.896C212.699 124.172 212.606 124.438 212.444 124.661C211.514 125.931 210.518 127.179 209.481 128.37C209.239 128.649 208.896 128.82 208.527 128.845C208.159 128.871 207.795 128.749 207.517 128.506C207.238 128.264 207.067 127.921 207.042 127.552C207.016 127.184 207.138 126.821 207.381 126.542C208.366 125.41 209.313 124.223 210.195 123.018C210.41 122.722 210.733 122.523 211.094 122.464H211.098ZM202.893 131.398C203.192 131.349 203.499 131.399 203.767 131.54C204.035 131.682 204.249 131.906 204.378 132.181C204.506 132.455 204.542 132.763 204.479 133.06C204.417 133.356 204.259 133.624 204.03 133.822C202.842 134.858 201.591 135.855 200.322 136.785C200.024 136.991 199.656 137.072 199.299 137.011C198.942 136.95 198.622 136.752 198.408 136.46C198.194 136.167 198.102 135.802 198.153 135.443C198.203 135.084 198.392 134.759 198.678 134.537C199.887 133.653 201.073 132.706 202.202 131.722C202.397 131.552 202.636 131.44 202.892 131.398H202.893ZM153.049 142.809C153.245 142.777 153.445 142.788 153.637 142.841C155.08 143.235 156.56 143.571 158.035 143.839C158.215 143.872 158.386 143.94 158.54 144.039C158.694 144.138 158.826 144.266 158.93 144.417C159.034 144.567 159.108 144.736 159.146 144.915C159.185 145.094 159.188 145.278 159.155 145.458C159.122 145.638 159.054 145.81 158.955 145.963C158.856 146.117 158.728 146.25 158.578 146.354C158.427 146.458 158.258 146.531 158.079 146.57C157.9 146.608 157.716 146.611 157.536 146.578C155.982 146.296 154.419 145.943 152.904 145.528C152.597 145.444 152.328 145.257 152.142 144.999C151.956 144.742 151.864 144.428 151.881 144.11C151.898 143.793 152.023 143.491 152.236 143.254C152.448 143.017 152.735 142.86 153.049 142.809ZM192.918 138.294C193.243 138.242 193.576 138.307 193.857 138.477C194.139 138.648 194.351 138.912 194.456 139.223C194.561 139.535 194.553 139.874 194.433 140.18C194.312 140.486 194.087 140.739 193.798 140.896C192.409 141.64 190.971 142.334 189.522 142.957C189.185 143.091 188.809 143.088 188.474 142.949C188.138 142.81 187.871 142.546 187.727 142.213C187.584 141.88 187.576 141.504 187.706 141.165C187.836 140.826 188.092 140.551 188.422 140.398C189.797 139.807 191.163 139.149 192.487 138.441C192.621 138.367 192.767 138.315 192.918 138.288V138.294ZM165.036 144.663C165.128 144.648 165.222 144.642 165.315 144.646C166.806 144.707 168.33 144.704 169.828 144.638C170.011 144.63 170.194 144.658 170.365 144.72C170.537 144.783 170.695 144.878 170.83 145.002C170.965 145.125 171.074 145.274 171.151 145.44C171.229 145.606 171.273 145.785 171.281 145.968C171.289 146.151 171.261 146.333 171.198 146.505C171.136 146.677 171.04 146.835 170.916 146.969C170.793 147.104 170.644 147.213 170.478 147.291C170.312 147.368 170.133 147.412 169.95 147.42C168.374 147.489 166.776 147.492 165.207 147.428C164.862 147.414 164.535 147.273 164.288 147.031C164.042 146.79 163.894 146.466 163.873 146.121C163.852 145.777 163.96 145.437 164.176 145.167C164.392 144.898 164.7 144.718 165.04 144.663H165.036ZM181.655 142.782C182.005 142.729 182.363 142.811 182.656 143.012C182.948 143.213 183.152 143.519 183.227 143.865C183.302 144.212 183.242 144.575 183.059 144.879C182.875 145.183 182.583 145.405 182.241 145.501C180.722 145.908 179.165 146.269 177.613 146.553H177.583C177.219 146.615 176.846 146.531 176.544 146.317C176.242 146.104 176.038 145.78 175.975 145.416C175.913 145.052 175.997 144.678 176.21 144.377C176.424 144.075 176.748 143.871 177.112 143.808C178.586 143.537 180.065 143.202 181.508 142.808C181.556 142.795 181.605 142.785 181.655 142.777V142.782Z" fill="#909294"/>
</g>
<g opacity="0.3">
<path d="M115.83 107.527C116.157 107.475 116.492 107.54 116.775 107.712C117.057 107.884 117.27 108.151 117.374 108.465C117.599 109.143 117.841 109.835 118.096 110.512C118.161 110.683 118.191 110.865 118.185 111.048C118.179 111.23 118.137 111.41 118.061 111.577C117.986 111.743 117.878 111.893 117.745 112.018C117.612 112.143 117.455 112.241 117.284 112.305C117.113 112.37 116.93 112.4 116.748 112.394C116.565 112.388 116.385 112.346 116.219 112.271C116.052 112.195 115.902 112.088 115.777 111.954C115.652 111.821 115.554 111.664 115.49 111.493C115.219 110.781 114.965 110.056 114.728 109.339C114.665 109.148 114.645 108.945 114.668 108.745C114.691 108.545 114.757 108.352 114.862 108.179C114.966 108.007 115.107 107.86 115.274 107.747C115.442 107.635 115.631 107.56 115.83 107.527Z" fill="#909294"/>
<path d="M158.616 36.9542C159.249 36.8531 159.885 36.7627 160.526 36.6832C160.888 36.645 161.251 36.7502 161.536 36.9763C161.822 37.2023 162.008 37.5312 162.054 37.8925C162.1 38.2538 162.003 38.6188 161.783 38.9093C161.563 39.1998 161.238 39.3927 160.878 39.4466C159.399 39.635 157.932 39.8816 156.499 40.1852C156.32 40.2231 156.136 40.2254 155.956 40.192C155.776 40.1586 155.605 40.0901 155.452 39.9904C155.298 39.8907 155.166 39.7619 155.063 39.6111C154.959 39.4604 154.886 39.2907 154.848 39.1118C154.811 38.933 154.808 38.7484 154.842 38.5686C154.875 38.3889 154.944 38.2175 155.043 38.0642C155.143 37.9109 155.272 37.7787 155.423 37.6753C155.573 37.5718 155.743 37.499 155.922 37.4611C156.807 37.27 157.714 37.0979 158.616 36.9542ZM167.86 36.2536C167.938 36.2408 168.017 36.2349 168.096 36.236C169.649 36.2495 171.22 36.3295 172.763 36.4745C172.946 36.4898 173.124 36.5413 173.288 36.6259C173.451 36.7106 173.596 36.8268 173.714 36.9678C173.832 37.1089 173.921 37.2719 173.976 37.4475C174.03 37.6231 174.05 37.8078 174.033 37.991C174.015 38.1741 173.962 38.352 173.876 38.5145C173.79 38.6769 173.672 38.8206 173.53 38.9373C173.388 39.0541 173.224 39.1414 173.048 39.1944C172.872 39.2474 172.687 39.2649 172.504 39.246C171.039 39.1105 169.546 39.0332 168.071 39.0197C167.721 39.0171 167.386 38.8834 167.131 38.6451C166.876 38.4068 166.72 38.0814 166.693 37.7333C166.667 37.3852 166.772 37.0398 166.988 36.7658C167.204 36.4917 167.516 36.3089 167.86 36.2536ZM148.876 39.4724C149.218 39.4178 149.569 39.4931 149.858 39.6834C150.148 39.8737 150.357 40.1653 150.443 40.5012C150.529 40.837 150.487 41.193 150.324 41.4993C150.162 41.8056 149.891 42.0402 149.564 42.1572C148.18 42.6559 146.799 43.221 145.459 43.8377C145.125 43.9836 144.746 43.9925 144.405 43.8625C144.064 43.7325 143.788 43.4739 143.636 43.1423C143.484 42.8107 143.467 42.4326 143.591 42.0892C143.714 41.7459 143.968 41.4647 144.296 41.306C145.708 40.6582 147.163 40.0633 148.62 39.5442C148.703 39.5124 148.788 39.4883 148.876 39.4724ZM179.721 37.678C179.901 37.6489 180.085 37.6553 180.263 37.6969C181.774 38.052 183.288 38.4762 184.762 38.9573C185.113 39.0718 185.404 39.3211 185.572 39.6502C185.739 39.9793 185.768 40.3614 185.654 40.7124C185.539 41.0634 185.29 41.3546 184.961 41.5218C184.632 41.689 184.25 41.7187 183.899 41.6042C182.499 41.1475 181.061 40.745 179.626 40.4088C179.312 40.3346 179.034 40.1539 178.839 39.8977C178.643 39.6414 178.543 39.3254 178.554 39.0034C178.566 38.6814 178.689 38.3733 178.902 38.1317C179.115 37.89 179.405 37.7297 179.723 37.678H179.721ZM138.172 44.7376C138.488 44.6872 138.812 44.7472 139.089 44.9075C139.366 45.0679 139.579 45.3187 139.693 45.6178C139.807 45.917 139.814 46.2462 139.714 46.5502C139.614 46.8542 139.412 47.1143 139.142 47.2869C137.903 48.077 136.68 48.9322 135.507 49.828C135.362 49.939 135.196 50.0203 135.019 50.0672C134.843 50.1141 134.659 50.1257 134.477 50.1014C134.296 50.0771 134.121 50.0174 133.963 49.9256C133.805 49.8338 133.667 49.7118 133.556 49.5665C133.445 49.4211 133.363 49.2554 133.317 49.0787C133.27 48.9019 133.258 48.7177 133.282 48.5365C133.307 48.3553 133.366 48.1806 133.458 48.0225C133.55 47.8643 133.672 47.7258 133.817 47.6149C135.052 46.6662 136.339 45.7717 137.645 44.9382C137.805 44.8365 137.984 44.7683 138.172 44.7376ZM128.88 52.2242C129.17 52.1775 129.468 52.2238 129.73 52.3566C129.993 52.4893 130.206 52.7017 130.341 52.9633C130.475 53.2248 130.523 53.5222 130.478 53.8128C130.433 54.1034 130.297 54.3723 130.09 54.581C129.051 55.6273 128.044 56.7291 127.096 57.8553C126.979 57.9953 126.835 58.1108 126.672 58.1951C126.51 58.2794 126.333 58.3309 126.151 58.3467C125.969 58.3625 125.785 58.3422 125.611 58.2871C125.436 58.232 125.275 58.1431 125.135 58.0254C124.995 57.9078 124.879 57.7637 124.795 57.6015C124.711 57.4392 124.659 57.2619 124.643 57.0798C124.628 56.8976 124.648 56.7141 124.703 56.5398C124.758 56.3654 124.847 56.2036 124.965 56.0637C125.962 54.8778 127.022 53.7177 128.116 52.6172C128.323 52.409 128.59 52.2714 128.88 52.2242ZM121.444 61.5593C121.778 61.5042 122.121 61.5747 122.407 61.7572C122.562 61.8547 122.696 61.9817 122.801 62.131C122.907 62.2803 122.982 62.4489 123.023 62.6273C123.063 62.8056 123.068 62.9902 123.037 63.1704C123.006 63.3506 122.94 63.523 122.842 63.6776C122.053 64.9258 121.311 66.2201 120.632 67.5266C120.547 67.6888 120.431 67.8328 120.291 67.9502C120.15 68.0677 119.988 68.1564 119.814 68.2112C119.639 68.266 119.455 68.2859 119.273 68.2697C119.091 68.2535 118.914 68.2015 118.751 68.1168C118.589 68.0321 118.445 67.9163 118.328 67.7759C118.21 67.6356 118.122 67.4735 118.067 67.2988C118.012 67.1242 117.992 66.9405 118.008 66.7582C118.024 66.5759 118.076 66.3986 118.161 66.2364C118.875 64.8621 119.652 63.4987 120.487 62.1855C120.593 62.019 120.733 61.8771 120.898 61.7691C121.063 61.6612 121.249 61.5896 121.444 61.5593ZM116.224 72.2931C116.456 72.2551 116.693 72.277 116.913 72.3568C117.085 72.4181 117.243 72.5128 117.379 72.6353C117.515 72.7579 117.625 72.906 117.703 73.0711C117.781 73.2363 117.826 73.4152 117.835 73.5978C117.844 73.7803 117.817 73.9628 117.756 74.1349C117.261 75.5255 116.819 76.9512 116.444 78.3742C116.397 78.5511 116.316 78.717 116.206 78.8625C116.095 79.008 115.956 79.1303 115.798 79.2223C115.64 79.3144 115.466 79.3744 115.285 79.399C115.103 79.4236 114.919 79.4123 114.742 79.3656C114.566 79.319 114.4 79.238 114.254 79.1273C114.109 79.0165 113.986 78.8782 113.894 78.7202C113.802 78.5622 113.742 78.3876 113.718 78.2064C113.693 78.0252 113.704 77.8409 113.751 77.6641C114.147 76.1651 114.612 74.6621 115.133 73.1998C115.217 72.9648 115.363 72.7567 115.555 72.5972C115.747 72.4377 115.978 72.3327 116.224 72.2931ZM113.483 83.916C113.696 83.882 113.914 83.8978 114.119 83.9623C114.325 84.0268 114.513 84.1382 114.669 84.2877C114.824 84.4371 114.943 84.6207 115.016 84.8238C115.088 85.0269 115.113 85.2441 115.087 85.4583C114.911 86.9193 114.795 88.406 114.742 89.8806C114.719 90.2432 114.556 90.5828 114.287 90.8269C114.018 91.071 113.664 91.2003 113.301 91.1873C112.938 91.1742 112.594 91.0197 112.343 90.7569C112.092 90.4941 111.954 90.1436 111.958 89.7803C112.015 88.2285 112.137 86.6631 112.323 85.1235C112.359 84.8245 112.491 84.5452 112.699 84.3275C112.907 84.1098 113.18 83.9654 113.477 83.916H113.483ZM113.362 95.8424L113.447 95.8316C113.815 95.7953 114.181 95.9061 114.467 96.1399C114.753 96.3737 114.934 96.7112 114.971 97.0784C115.078 98.1627 115.22 99.2469 115.392 100.319C115.455 100.705 115.528 101.091 115.593 101.475C115.627 101.655 115.624 101.84 115.586 102.02C115.548 102.199 115.475 102.369 115.371 102.52C115.268 102.671 115.135 102.8 114.981 102.9C114.827 103 114.655 103.068 114.475 103.101C114.294 103.137 114.109 103.137 113.928 103.1C113.748 103.063 113.577 102.991 113.426 102.887C113.274 102.782 113.145 102.649 113.046 102.494C112.946 102.339 112.879 102.166 112.848 101.985C112.774 101.581 112.704 101.174 112.638 100.765C112.457 99.6399 112.306 98.4934 112.194 97.3576C112.16 97.0056 112.261 96.6538 112.477 96.3737C112.693 96.0936 113.008 95.9061 113.357 95.8492L113.362 95.8424Z" fill="#909294"/>
<path d="M190.999 41.6922C191.282 41.6473 191.572 41.6898 191.83 41.8142C192.508 42.1449 193.185 42.4918 193.863 42.8564C194.024 42.9431 194.166 43.0606 194.282 43.2023C194.397 43.344 194.484 43.507 194.536 43.6821C194.589 43.8573 194.607 44.041 194.588 44.2229C194.57 44.4048 194.515 44.5813 194.429 44.7423C194.342 44.9033 194.225 45.0456 194.083 45.1611C193.941 45.2767 193.778 45.3632 193.603 45.4158C193.428 45.4683 193.244 45.4858 193.062 45.4674C192.88 45.4489 192.704 45.3948 192.543 45.3081C191.906 44.9652 191.257 44.6305 190.613 44.3188C190.347 44.1895 190.128 43.9787 189.99 43.717C189.852 43.4552 189.801 43.1562 189.844 42.8634C189.887 42.5705 190.022 42.2991 190.23 42.0884C190.439 41.8778 190.708 41.739 191.001 41.6922H190.999Z" fill="#909294"/>
</g>
<path d="M191.714 57.9365C191.612 57.8467 191.486 57.7906 191.351 57.776C191.217 57.7614 191.081 57.7891 190.963 57.8551L184.059 61.7394C180.761 59.9536 177.194 58.7176 173.499 58.0801L170.48 50.7616C170.429 50.6354 170.34 50.5283 170.225 50.4554C170.11 50.3825 169.975 50.3474 169.839 50.355L160.352 50.9161C160.217 50.9245 160.088 50.9746 159.983 51.0596C159.877 51.1446 159.801 51.2602 159.764 51.3905L157.631 59.0126C154.036 60.0813 150.64 61.7293 147.576 63.8916L140.258 60.849C140.133 60.7968 139.995 60.7849 139.863 60.815C139.731 60.8452 139.612 60.9158 139.522 61.017L133.224 68.1336C133.134 68.2348 133.078 68.3616 133.064 68.4962C133.049 68.6308 133.077 68.7665 133.144 68.8844L137.028 75.7882C135.242 79.0859 134.006 82.6529 133.369 86.3485L126.05 89.3667C125.924 89.4175 125.817 89.5065 125.744 89.6212C125.671 89.736 125.636 89.8707 125.644 90.0064L126.206 99.4933C126.214 99.6285 126.264 99.7578 126.349 99.8632C126.434 99.9686 126.55 100.045 126.681 100.082L134.303 102.215C135.371 105.809 137.019 109.206 139.182 112.27L136.139 119.588C136.087 119.713 136.075 119.851 136.105 119.983C136.135 120.115 136.206 120.234 136.307 120.324L143.411 126.633C143.512 126.723 143.639 126.779 143.774 126.794C143.908 126.808 144.044 126.781 144.162 126.714L151.065 122.83C154.363 124.616 157.93 125.852 161.626 126.489L164.645 133.808C164.695 133.934 164.784 134.041 164.899 134.114C165.014 134.187 165.148 134.222 165.284 134.214L174.771 133.652C174.907 133.644 175.036 133.594 175.142 133.509C175.247 133.424 175.323 133.308 175.359 133.177L177.494 125.555C181.089 124.487 184.485 122.839 187.549 120.676L194.867 123.719C194.992 123.771 195.131 123.783 195.263 123.753C195.395 123.723 195.514 123.652 195.605 123.551L201.913 116.447C202.003 116.345 202.06 116.219 202.074 116.084C202.089 115.95 202.061 115.814 201.995 115.696L198.11 108.792C199.896 105.494 201.132 101.927 201.77 98.2316L209.088 95.2134C209.214 95.1624 209.321 95.0734 209.394 94.9587C209.467 94.844 209.502 94.7094 209.495 94.5737L208.934 85.0867C208.926 84.9515 208.876 84.8222 208.791 84.7167C208.706 84.6113 208.59 84.535 208.459 84.4985L200.837 82.364C199.768 78.7694 198.121 75.3732 195.958 72.3092L199.001 64.9907C199.053 64.8655 199.065 64.7271 199.035 64.5948C199.004 64.4626 198.933 64.3432 198.831 64.2534L191.714 57.9365Z" fill="#909294"/>
<path d="M166.051 82.8495C168.494 82.454 170.995 83.0211 173.029 84.4317C175.062 85.8424 176.469 87.9865 176.954 90.4132C177.439 92.84 176.964 95.3602 175.629 97.444C174.294 99.5278 172.203 101.013 169.796 101.586C167.388 102.16 164.852 101.778 162.721 100.52C160.59 99.2628 159.029 97.2277 158.367 94.8431C157.705 92.4584 157.994 89.9101 159.173 87.734C160.351 85.5579 162.328 83.9236 164.686 83.1748C165.133 83.0335 165.589 82.9248 166.051 82.8495ZM168.72 99.5113C169.077 99.4543 169.43 99.3704 169.775 99.2606C171.576 98.6885 173.086 97.4406 173.986 95.7791C174.886 94.1175 175.107 92.1718 174.602 90.3507C174.097 88.5297 172.906 86.9752 171.279 86.014C169.653 85.0528 167.716 84.7597 165.878 85.1963C164.039 85.6329 162.442 86.7653 161.42 88.3553C160.399 89.9454 160.035 91.8694 160.403 93.7229C160.771 95.5764 161.843 97.2151 163.394 98.2945C164.945 99.374 166.854 99.8101 168.72 99.5113Z" fill="white"/>
<path d="M163.659 69.2641C164.454 69.1332 165.254 69.0427 166.058 68.9931C166.313 68.9777 166.568 68.9669 166.822 68.9605C168.077 68.9261 169.333 68.9918 170.578 69.157H170.628L170.772 69.1774L171.052 69.2194C171.168 69.2375 171.276 69.2918 171.359 69.3745C171.443 69.4573 171.498 69.5642 171.517 69.6802C171.526 69.7381 171.526 69.7971 171.517 69.855C171.494 70.0008 171.414 70.1315 171.295 70.2186C171.176 70.3057 171.027 70.3421 170.881 70.3199C166.359 69.6225 161.732 70.3267 157.623 72.3377C153.513 74.3488 150.117 77.5702 147.893 81.5687C145.947 85.0709 144.978 89.0316 145.087 93.0367C145.195 97.0417 146.378 100.944 148.511 104.335C150.644 107.727 153.65 110.483 157.212 112.316C160.775 114.148 164.765 114.99 168.765 114.753C181.083 114.022 190.502 103.414 189.771 91.1017C189.535 87.0637 188.207 83.1656 185.929 79.8231C185.882 79.7561 185.851 79.6791 185.838 79.5981C185.817 79.4728 185.839 79.344 185.901 79.233C185.963 79.1221 186.061 79.0357 186.179 78.9882C186.297 78.9407 186.428 78.935 186.55 78.972C186.671 79.009 186.776 79.0864 186.848 79.1915C188.786 82.0325 190.075 85.2655 190.622 88.6608C190.748 89.4442 190.835 90.2343 190.884 91.0312C191.648 103.958 181.751 115.096 168.83 115.861C163.03 116.203 157.309 114.384 152.772 110.754C148.236 107.125 145.205 101.943 144.265 96.2098C144.138 95.4183 144.05 94.6173 144.001 93.8068C143.663 88.0094 145.486 82.2925 149.116 77.76C152.747 73.2274 157.928 70.2007 163.659 69.2641Z" fill="white"/>
<g opacity="0.3">
<path d="M260.705 32.4396C260.889 32.4101 261.077 32.4408 261.241 32.527C261.405 32.6133 261.537 32.7505 261.617 32.918C261.932 33.5767 262.231 34.2544 262.506 34.932C262.582 35.1412 262.574 35.3717 262.483 35.5749C262.392 35.7781 262.227 35.9384 262.021 36.022C261.814 36.1056 261.584 36.1061 261.377 36.0235C261.171 35.9408 261.004 35.7813 260.913 35.5785C260.651 34.9333 260.37 34.2882 260.066 33.6594C259.968 33.4534 259.955 33.2169 260.032 33.0019C260.108 32.787 260.266 32.611 260.472 32.5128C260.546 32.4776 260.625 32.453 260.705 32.4396Z" fill="#909294"/>
<path d="M263.001 38.6454C263.211 38.612 263.427 38.6576 263.605 38.7735C263.784 38.8894 263.913 39.0673 263.969 39.2729C264.295 40.4917 264.559 41.7261 264.76 42.9715C264.802 43.2326 264.842 43.4951 264.879 43.7589C264.903 43.9836 264.841 44.209 264.704 44.3893C264.568 44.5697 264.369 44.6917 264.146 44.7306C264.034 44.7465 263.921 44.7402 263.811 44.7119C263.702 44.6837 263.599 44.6342 263.509 44.5662C263.419 44.4982 263.343 44.4131 263.286 44.3157C263.229 44.2183 263.191 44.1107 263.176 43.9988C263.141 43.7467 263.103 43.496 263.062 43.2466C262.87 42.0601 262.618 40.884 262.307 39.7229C262.278 39.6138 262.27 39.5 262.285 39.388C262.3 39.276 262.337 39.168 262.393 39.0702C262.45 38.9724 262.525 38.8867 262.614 38.818C262.704 38.7493 262.807 38.6989 262.916 38.6698C262.939 38.6563 262.967 38.6509 263.001 38.6454ZM264.238 47.49C264.279 47.4831 264.32 47.479 264.362 47.4778C264.59 47.4745 264.81 47.5617 264.973 47.7202C265.137 47.8787 265.232 48.0956 265.236 48.3235C265.262 49.8504 265.195 51.3775 265.034 52.8962C265.026 53.0117 264.995 53.1244 264.943 53.2276C264.89 53.3308 264.817 53.4223 264.729 53.4968C264.64 53.5712 264.537 53.627 264.427 53.6608C264.316 53.6946 264.2 53.7057 264.084 53.6935C263.969 53.6813 263.858 53.646 263.757 53.5897C263.656 53.5334 263.567 53.4572 263.496 53.3659C263.425 53.2745 263.373 53.1697 263.343 53.0578C263.314 52.9459 263.307 52.8291 263.324 52.7146C263.477 51.2662 263.542 49.8096 263.516 48.3533C263.512 48.1474 263.583 47.9469 263.714 47.7884C263.846 47.63 264.03 47.5241 264.233 47.49H264.238ZM263.29 56.3684C263.401 56.3515 263.514 56.3557 263.623 56.3806C263.845 56.4328 264.037 56.571 264.158 56.765C264.278 56.9589 264.316 57.1926 264.264 57.4147C263.915 58.9025 263.473 60.3672 262.943 61.8004C262.864 62.0142 262.703 62.1879 262.496 62.2833C262.289 62.3786 262.052 62.3877 261.838 62.3086C261.624 62.2295 261.451 62.0687 261.355 61.8616C261.26 61.6544 261.251 61.4179 261.33 61.2041C261.836 59.8372 262.256 58.4404 262.589 57.0217C262.628 56.8561 262.715 56.7058 262.839 56.5896C262.964 56.4734 263.119 56.3964 263.287 56.3684H263.29ZM260.189 64.7454C260.346 64.7201 260.507 64.739 260.655 64.8C260.802 64.861 260.929 64.9618 261.022 65.091C261.116 65.2202 261.171 65.3728 261.182 65.5317C261.194 65.6906 261.161 65.8496 261.087 65.9909C260.385 67.3484 259.599 68.6611 258.735 69.9212C258.606 70.1092 258.407 70.2382 258.183 70.2799C257.959 70.3216 257.727 70.2725 257.539 70.1435C257.351 70.0144 257.222 69.816 257.181 69.5918C257.139 69.3676 257.188 69.1361 257.317 68.9481C258.141 67.7465 258.89 66.4955 259.561 65.2021C259.623 65.082 259.711 64.9781 259.82 64.8987C259.93 64.8194 260.056 64.7668 260.189 64.7454ZM255.14 72.1086C255.315 72.0805 255.495 72.1071 255.654 72.1848C255.814 72.2626 255.945 72.3876 256.031 72.5429C256.116 72.6982 256.152 72.8762 256.132 73.0524C256.113 73.2287 256.04 73.3946 255.922 73.5276C254.911 74.6711 253.83 75.7519 252.687 76.764C252.604 76.8429 252.505 76.9042 252.397 76.9443C252.289 76.9843 252.174 77.0022 252.059 76.997C251.944 76.9918 251.831 76.9635 251.727 76.9139C251.623 76.8643 251.53 76.7943 251.454 76.7081C251.377 76.6219 251.319 76.5213 251.282 76.4121C251.245 76.303 251.231 76.1875 251.239 76.0727C251.248 75.9578 251.28 75.8459 251.332 75.7435C251.385 75.6411 251.458 75.5503 251.546 75.4765C252.637 74.5109 253.668 73.4794 254.634 72.3878C254.765 72.239 254.944 72.1404 255.14 72.1086ZM248.453 78.0271C248.646 77.9965 248.844 78.0323 249.013 78.1286C249.183 78.225 249.315 78.3762 249.388 78.5574C249.46 78.7387 249.469 78.9391 249.412 79.126C249.356 79.3128 249.238 79.4749 249.077 79.5857C247.816 80.4492 246.504 81.2341 245.147 81.9357C244.944 82.0352 244.711 82.0515 244.497 81.981C244.283 81.9105 244.106 81.7589 244.002 81.5587C243.899 81.3586 243.878 81.1258 243.944 80.9105C244.01 80.6951 244.158 80.5144 244.356 80.407C245.651 79.7372 246.902 78.9876 248.104 78.1626C248.209 78.0924 248.328 78.0461 248.453 78.0271ZM240.528 82.1268C240.738 82.0945 240.953 82.1412 241.131 82.2581C241.309 82.3749 241.437 82.5535 241.491 82.7594C241.545 82.9653 241.521 83.1839 241.423 83.373C241.325 83.562 241.161 83.7081 240.962 83.783C239.528 84.3112 238.064 84.7507 236.577 85.099C236.355 85.1511 236.121 85.1127 235.927 84.9924C235.733 84.8721 235.595 84.6795 235.542 84.4572C235.49 84.2349 235.529 84.001 235.649 83.8069C235.769 83.6129 235.962 83.4746 236.184 83.4225C237.603 83.0917 239 82.673 240.367 82.1688C240.419 82.149 240.473 82.1336 240.528 82.1228V82.1268ZM227.364 84.363C227.414 84.3546 227.464 84.351 227.514 84.3522C228.781 84.372 230.048 84.3236 231.309 84.2072C231.5 84.1909 231.689 84.1719 231.876 84.1516C231.988 84.1392 232.102 84.1491 232.211 84.1808C232.319 84.2124 232.42 84.2652 232.509 84.3361C232.597 84.407 232.67 84.4946 232.724 84.5939C232.778 84.6932 232.812 84.8022 232.824 84.9146C232.838 85.0272 232.829 85.1413 232.798 85.2504C232.767 85.3594 232.715 85.4611 232.644 85.5495C232.573 85.6379 232.485 85.7112 232.385 85.7651C232.285 85.819 232.176 85.8524 232.063 85.8633C231.864 85.885 231.656 85.9053 231.462 85.923C230.141 86.0426 228.815 86.0929 227.489 86.0734C227.275 86.0688 227.07 85.9845 226.914 85.8369C226.759 85.6894 226.664 85.4893 226.649 85.2756C226.633 85.062 226.698 84.8502 226.83 84.6817C226.962 84.5132 227.153 84.4 227.364 84.3644V84.363Z" fill="#909294"/>
</g>
<g opacity="0.3">
<path d="M221.672 12.3409C221.894 12.3101 222.119 12.3671 222.3 12.4997C222.48 12.6323 222.602 12.83 222.639 13.051C222.676 13.2719 222.626 13.4986 222.498 13.6828C222.371 13.8671 222.176 13.9944 221.957 14.0377C220.546 14.284 219.151 14.6157 217.78 15.0311C217.671 15.0675 217.555 15.0817 217.441 15.0727C217.326 15.0638 217.214 15.032 217.112 14.9791C217.01 14.9263 216.919 14.8535 216.846 14.765C216.772 14.6766 216.717 14.5743 216.684 14.4642C216.65 14.3541 216.639 14.2385 216.652 14.1241C216.664 14.0097 216.699 13.8989 216.754 13.7982C216.81 13.6975 216.885 13.6091 216.976 13.538C217.066 13.4669 217.17 13.4147 217.281 13.3845C218.719 12.9501 220.181 12.6021 221.66 12.3423L221.672 12.3409ZM226.044 11.8449C226.074 11.8449 226.105 11.8367 226.136 11.8354C227.637 11.7556 229.141 11.766 230.64 11.8666C230.867 11.8818 231.08 11.9869 231.23 12.1586C231.38 12.3302 231.455 12.5545 231.44 12.782C231.425 13.0096 231.32 13.2217 231.148 13.3718C230.977 13.5219 230.752 13.5976 230.525 13.5823C229.094 13.4877 227.659 13.4777 226.227 13.5525C226.009 13.5613 225.796 13.4869 225.63 13.3443C225.465 13.2016 225.36 13.0014 225.337 12.7843C225.313 12.5672 225.374 12.3493 225.505 12.1749C225.636 12.0004 225.829 11.8825 226.044 11.8449ZM213.263 14.8888C213.469 14.8549 213.681 14.8974 213.858 15.0085C214.035 15.1196 214.166 15.2916 214.226 15.4922C214.285 15.6928 214.27 15.9082 214.182 16.098C214.094 16.2879 213.939 16.4391 213.748 16.5233C212.438 17.1054 211.164 17.7653 209.933 18.4993C209.836 18.5623 209.727 18.605 209.613 18.625C209.499 18.645 209.382 18.6417 209.269 18.6155C209.156 18.5892 209.05 18.5405 208.957 18.4722C208.863 18.4039 208.784 18.3175 208.725 18.2181C208.666 18.1187 208.627 18.0083 208.612 17.8936C208.596 17.7789 208.604 17.6623 208.634 17.5506C208.665 17.4389 208.717 17.3346 208.789 17.2438C208.861 17.1529 208.95 17.0775 209.052 17.022C210.342 16.252 211.677 15.5609 213.051 14.9525C213.118 14.9219 213.19 14.9005 213.263 14.8888ZM234.811 12.4398C234.911 12.4223 235.012 12.4223 235.111 12.4398C236.587 12.7233 238.044 13.0967 239.475 13.5579C239.684 13.6341 239.856 13.7884 239.953 13.9884C240.051 14.1884 240.068 14.4184 240 14.6303C239.931 14.8422 239.784 15.0194 239.588 15.1247C239.391 15.23 239.162 15.2553 238.948 15.1951C237.583 14.7558 236.193 14.3997 234.786 14.1285C234.587 14.0907 234.408 13.984 234.28 13.8272C234.152 13.6704 234.084 13.4736 234.087 13.2713C234.09 13.0691 234.164 12.8744 234.297 12.7215C234.43 12.5687 234.612 12.4675 234.811 12.4358V12.4398ZM205.731 19.3924C205.92 19.362 206.113 19.3953 206.281 19.4869C206.449 19.5786 206.581 19.7234 206.657 19.8986C206.733 20.0738 206.749 20.2693 206.702 20.4545C206.655 20.6396 206.547 20.8038 206.397 20.9212C205.265 21.7991 204.187 22.745 203.17 23.7537C203.006 23.9019 202.791 23.9812 202.57 23.9752C202.349 23.9692 202.138 23.8783 201.983 23.7214C201.827 23.5645 201.737 23.3536 201.733 23.1326C201.728 22.9115 201.809 22.6971 201.958 22.5339C203.027 21.4762 204.158 20.4841 205.346 19.5632C205.458 19.4749 205.59 19.4161 205.73 19.3924H205.731ZM199.497 25.5725C199.668 25.5441 199.844 25.5682 200.002 25.6418C200.159 25.7153 200.29 25.8348 200.378 25.9845C200.466 26.1342 200.507 26.307 200.495 26.4802C200.483 26.6535 200.418 26.8189 200.31 26.9549C199.422 28.0797 198.602 29.2564 197.853 30.4786C197.734 30.6732 197.543 30.8127 197.321 30.8663C197.1 30.92 196.866 30.8833 196.671 30.7646C196.477 30.6458 196.337 30.4545 196.283 30.2329C196.23 30.0112 196.266 29.7774 196.385 29.5827C197.169 28.3009 198.029 27.0672 198.96 25.8883C199.093 25.7218 199.283 25.611 199.493 25.5779L199.497 25.5725ZM194.919 33.0699C195.073 33.0449 195.23 33.0622 195.375 33.1198C195.52 33.1775 195.646 33.2734 195.74 33.3973C195.835 33.5212 195.893 33.6684 195.911 33.8232C195.928 33.978 195.903 34.1345 195.838 34.2761C195.24 35.58 194.723 36.9192 194.289 38.2863C194.22 38.5038 194.068 38.6851 193.865 38.7903C193.663 38.8955 193.427 38.9161 193.21 38.8474C192.992 38.7788 192.811 38.6265 192.706 38.4242C192.601 38.2219 192.58 37.9861 192.649 37.7686C193.102 36.3369 193.641 34.9339 194.263 33.5673C194.322 33.4369 194.412 33.3232 194.526 33.2364C194.64 33.1496 194.773 33.0924 194.915 33.0699H194.919Z" fill="#909294"/>
<path d="M243.214 15.1503C243.384 15.1235 243.557 15.1476 243.713 15.2194C244.38 15.5298 245.041 15.8618 245.679 16.2047C245.78 16.2575 245.869 16.3297 245.941 16.417C246.014 16.5044 246.068 16.6053 246.101 16.7138C246.135 16.8224 246.146 16.9364 246.135 17.0494C246.124 17.1623 246.09 17.272 246.037 17.3719C245.983 17.4719 245.91 17.5603 245.822 17.6319C245.734 17.7035 245.633 17.757 245.524 17.7892C245.415 17.8214 245.301 17.8318 245.188 17.8197C245.075 17.8075 244.966 17.7732 244.866 17.7185C244.259 17.3919 243.627 17.0761 242.991 16.7793C242.825 16.7009 242.689 16.5716 242.602 16.4104C242.515 16.2493 242.482 16.0645 242.507 15.8831C242.532 15.7017 242.615 15.5331 242.742 15.4018C242.87 15.2705 243.036 15.1833 243.217 15.153L243.214 15.1503Z" fill="#909294"/>
</g>
<path d="M244.274 26.2326C244.206 26.1725 244.121 26.1349 244.031 26.1252C243.941 26.1155 243.85 26.1341 243.771 26.1784L239.148 28.7778C236.942 27.5817 234.555 26.7536 232.082 26.3261L230.068 21.4295C230.034 21.3452 229.974 21.2738 229.897 21.2252C229.82 21.1765 229.73 21.1532 229.639 21.1584L223.291 21.5366C223.201 21.5419 223.114 21.5753 223.043 21.6321C222.973 21.689 222.922 21.7664 222.897 21.8537L221.47 26.9536C219.064 27.6708 216.792 28.7749 214.741 30.2225L209.847 28.1896C209.763 28.1549 209.671 28.1471 209.583 28.1672C209.495 28.1874 209.415 28.2345 209.355 28.3021L205.131 33.0524C205.07 33.1199 205.032 33.2048 205.022 33.295C205.013 33.3853 205.031 33.4763 205.076 33.5552L207.676 38.1821C206.48 40.3888 205.652 42.7755 205.224 45.2485L200.327 47.2624C200.243 47.2964 200.172 47.356 200.123 47.4329C200.074 47.5097 200.051 47.5999 200.056 47.6907L200.432 54.0375C200.437 54.128 200.47 54.2146 200.527 54.2851C200.584 54.3556 200.662 54.4065 200.749 54.4305L205.85 55.859C206.566 58.2647 207.67 60.5375 209.118 62.5879L207.085 67.4818C207.05 67.5654 207.043 67.6576 207.063 67.7457C207.083 67.8339 207.13 67.9135 207.197 67.9738L211.952 72.1996C212.019 72.2597 212.104 72.2973 212.194 72.307C212.284 72.3168 212.374 72.2981 212.453 72.2538L217.073 69.6557C219.28 70.8512 221.667 71.6793 224.14 72.1074L226.16 77.004C226.195 77.0882 226.254 77.1595 226.331 77.2081C226.408 77.2567 226.498 77.2801 226.589 77.2751L232.934 76.8997C233.025 76.8943 233.111 76.8609 233.182 76.8041C233.253 76.7473 233.304 76.6698 233.329 76.5825L234.756 71.4813C237.161 70.7654 239.434 69.6617 241.485 68.2137L246.378 70.2466C246.462 70.2811 246.554 70.2888 246.642 70.2687C246.73 70.2485 246.81 70.2015 246.87 70.1341L251.093 65.3798C251.154 65.312 251.191 65.2271 251.201 65.1369C251.21 65.0467 251.191 64.9558 251.146 64.877L248.548 60.2582C249.745 58.0513 250.573 55.664 251 53.1904L255.897 51.1711C255.981 51.1371 256.053 51.0775 256.101 51.0006C256.15 50.9238 256.173 50.8336 256.168 50.7428L255.792 44.3974C255.787 44.3068 255.754 44.2202 255.697 44.1495C255.64 44.0788 255.562 44.0276 255.475 44.003L250.374 42.5759C249.658 40.1701 248.554 37.8972 247.106 35.8469L249.139 30.953C249.174 30.8693 249.182 30.7768 249.161 30.6885C249.141 30.6001 249.094 30.5202 249.027 30.4597L244.274 26.2326Z" fill="#909294"/>
<path opacity="0.56" d="M227.086 42.7898C228.751 42.5235 230.454 42.9129 231.837 43.8762C233.221 44.8394 234.177 46.3015 234.504 47.9551C234.832 49.6087 234.506 51.3249 233.595 52.743C232.683 54.1611 231.258 55.1707 229.617 55.5594C227.977 55.9481 226.25 55.6858 224.799 54.8275C223.348 53.9693 222.287 52.5819 221.837 50.9571C221.388 49.3324 221.586 47.5967 222.39 46.115C223.194 44.6334 224.541 43.5211 226.148 43.0121C226.455 42.915 226.769 42.8407 227.086 42.7898ZM228.87 53.9397C229.519 53.8348 230.14 53.5972 230.693 53.2417C231.247 52.8862 231.721 52.4204 232.086 51.8734C232.452 51.3264 232.7 50.7099 232.817 50.0625C232.933 49.4151 232.915 48.7507 232.763 48.1106C232.611 47.4706 232.329 46.8688 231.934 46.3427C231.539 45.8166 231.04 45.3776 230.468 45.053C229.896 44.7284 229.263 44.5253 228.609 44.4563C227.955 44.3873 227.293 44.4539 226.666 44.652C225.513 45.016 224.541 45.8027 223.945 46.8542C223.348 47.9057 223.172 49.144 223.451 50.3202C223.73 51.4964 224.444 52.5234 225.449 53.1949C226.454 53.8663 227.676 54.1324 228.87 53.9397Z" fill="white"/>
<path d="M225.437 33.3301C227.07 33.0663 228.735 33.0522 230.373 33.288L230.519 33.3111C230.698 33.3389 230.865 33.4227 230.993 33.5505C231.122 33.6782 231.208 33.8435 231.237 34.0226C231.251 34.1124 231.251 34.2038 231.237 34.2937C231.202 34.5188 231.079 34.7207 230.895 34.8553C230.711 34.9899 230.481 35.0462 230.256 35.0119C229.238 34.855 228.206 34.8069 227.177 34.8683L227.008 34.8791C224.612 35.0409 222.296 35.8014 220.27 37.0909C219.168 37.7926 218.165 38.6396 217.289 39.6091L217.267 39.6335L217.202 39.7066C215.935 41.1257 214.962 42.7819 214.339 44.5794C213.716 46.3769 213.456 48.2801 213.573 50.1789C213.602 50.675 213.656 51.1694 213.735 51.6602C214.332 55.3253 216.314 58.6211 219.272 60.8665C222.229 63.112 225.936 64.1355 229.627 63.7256C233.317 63.3156 236.71 61.5036 239.102 58.6639C241.495 55.8242 242.705 52.1739 242.483 48.4672C242.455 47.9778 242.401 47.4902 242.324 47.0062C241.987 44.9115 241.194 42.9167 239.999 41.1636C239.929 41.0593 239.883 40.9408 239.864 40.8166C239.833 40.6236 239.869 40.4258 239.965 40.2558C240.062 40.0858 240.213 39.9537 240.395 39.8813C240.576 39.8089 240.777 39.8005 240.964 39.8574C241.151 39.9143 241.313 40.0332 241.424 40.1945C242.788 42.1988 243.686 44.4838 244.05 46.8811C244.414 49.2784 244.235 51.7269 243.527 54.0459C242.819 56.365 241.599 58.4955 239.958 60.2804C238.317 62.0653 236.296 63.4591 234.044 64.359C231.792 65.2588 229.368 65.6418 226.948 65.4798C224.529 65.3177 222.177 64.6146 220.065 63.4225C217.954 62.2303 216.137 60.5794 214.748 58.5915C213.36 56.6036 212.435 54.3295 212.043 51.9367C211.954 51.3945 211.893 50.8375 211.86 50.2792C211.628 46.2756 212.887 42.3281 215.395 39.1983C217.902 36.0684 221.479 33.9779 225.437 33.3301Z" fill="white"/>
<path d="M264.942 297.875L257.302 366.39H345.933L334.389 297.875H264.942Z" fill="#1A1A1A"/>
<path d="M110.715 124.173V285.642C110.715 292.029 113.21 298.164 117.667 302.738C122.125 307.312 128.193 309.965 134.578 310.13C193.554 311.65 399.825 315.338 455.966 314.51C460.61 314.439 465.047 312.579 468.353 309.317C471.659 306.055 473.578 301.642 473.71 297C474.794 259.488 476.556 169.286 470.044 127.41C469.382 123.136 467.248 119.228 464.009 116.361C460.771 113.494 456.633 111.849 452.31 111.71C402.896 110.13 184.236 105.11 128.128 106.37C123.474 106.472 119.046 108.393 115.791 111.721C112.536 115.048 110.714 119.518 110.715 124.173Z" fill="#1A1A1A"/>
<path d="M120.846 123.387V276.794C120.846 280.521 122.313 284.099 124.929 286.754C127.545 289.409 131.1 290.928 134.827 290.984L447.896 294.852C449.723 294.879 451.537 294.543 453.233 293.865C454.929 293.186 456.473 292.178 457.777 290.898C459.081 289.619 460.118 288.093 460.828 286.41C461.538 284.727 461.907 282.92 461.914 281.093L462.438 129.058C462.448 126.415 461.422 123.873 459.579 121.978C457.737 120.083 455.225 118.986 452.583 118.922L132.058 112.451C130.599 112.416 129.148 112.672 127.79 113.206C126.431 113.739 125.193 114.539 124.149 115.558C123.104 116.577 122.274 117.794 121.707 119.139C121.139 120.484 120.847 121.928 120.846 123.387Z" fill="#4D5154"/>
<path d="M464.26 301.207L120.832 295.357C120.703 295.348 120.582 295.29 120.495 295.195C120.407 295.1 120.36 294.974 120.362 294.845C120.364 294.715 120.416 294.592 120.507 294.5C120.598 294.407 120.721 294.354 120.85 294.35L464.267 300.2C464.396 300.208 464.517 300.265 464.605 300.359C464.693 300.454 464.742 300.578 464.741 300.708C464.74 300.837 464.689 300.961 464.599 301.054C464.51 301.147 464.388 301.202 464.259 301.207H464.26Z" fill="white"/>
<path d="M365.025 380.409H235.306C231.782 380.409 229.136 377.899 229.817 375.204L231.482 368.622C231.983 366.642 234.161 365.189 236.747 365.107L361.801 361.206C364.503 361.122 366.895 362.561 367.485 364.613L370.486 375.099C371.265 377.823 368.606 380.409 365.025 380.409Z" fill="#1A1A1A"/>
<path d="M228.306 266.761L172.26 266.671C171.346 266.671 170.605 265.993 170.605 265.152V261.586C170.605 260.749 171.346 260.074 172.26 260.078L228.306 260.392C229.157 260.392 229.846 261.056 229.846 261.864V265.301C229.84 266.107 229.152 266.762 228.306 266.761Z" fill="white"/>
<path d="M174.428 268.014L179.245 285.686C179.55 286.802 180.642 287.575 181.893 287.561L219.202 287.143C220.395 287.129 221.433 286.351 221.722 285.257L226.273 268.055L174.428 268.014ZM188.252 284.649C188.252 285.35 187.638 285.924 186.879 285.932L185.57 285.946C184.81 285.954 184.193 285.39 184.193 284.687V270.998C184.193 270.295 184.81 269.726 185.57 269.726H186.879C187.638 269.726 188.252 270.294 188.252 270.996V284.649ZM195.534 284.58C195.534 285.278 194.924 285.85 194.179 285.858L192.88 285.87C192.127 285.878 191.515 285.317 191.515 284.618V270.984C191.515 270.284 192.127 269.716 192.88 269.716H194.179C194.929 269.716 195.534 270.282 195.534 270.979V284.58ZM202.749 284.511C202.749 285.206 202.146 285.775 201.394 285.783L200.108 285.797C199.361 285.804 198.753 285.245 198.753 284.549V270.975C198.753 270.279 199.358 269.715 200.108 269.715H201.394C202.139 269.715 202.749 270.279 202.749 270.973V284.511ZM209.901 284.443C209.901 285.135 209.303 285.702 208.565 285.71L207.291 285.722C206.551 285.73 205.951 285.18 205.951 284.481V270.969C205.951 270.275 206.551 269.712 207.291 269.712H208.565C209.303 269.712 209.901 270.272 209.901 270.965V284.443ZM216.989 284.376C216.989 285.065 216.397 285.629 215.665 285.637L214.402 285.649C214.233 285.656 214.065 285.63 213.907 285.572C213.748 285.513 213.603 285.424 213.479 285.309C213.356 285.194 213.256 285.055 213.187 284.902C213.117 284.748 213.079 284.582 213.074 284.413V270.961C213.074 270.271 213.669 269.711 214.402 269.711H215.665C216.006 269.701 216.337 269.827 216.585 270.061C216.833 270.294 216.979 270.617 216.989 270.958V284.376Z" fill="white"/>
<path d="M180.725 258.328C180.303 258.656 179.775 258.816 179.242 258.779C178.709 258.741 178.208 258.508 177.837 258.125C177.661 257.944 177.525 257.728 177.439 257.491C177.353 257.254 177.318 257.002 177.336 256.75C177.355 256.499 177.427 256.254 177.547 256.033C177.668 255.811 177.834 255.618 178.034 255.465C178.458 255.14 178.986 254.981 179.518 255.019C180.051 255.057 180.55 255.29 180.923 255.673C181.098 255.853 181.232 256.069 181.318 256.306C181.404 256.542 181.439 256.794 181.42 257.045C181.401 257.296 181.33 257.54 181.21 257.761C181.09 257.982 180.925 258.175 180.725 258.328Z" fill="white"/>
<path d="M198.709 241.538C198.429 241.233 197.849 241.267 197.412 241.611L179.666 255.704C179.222 256.058 179.093 256.593 179.38 256.9C179.668 257.206 180.263 257.171 180.707 256.813L198.43 242.718C198.865 242.37 198.99 241.843 198.709 241.538Z" fill="white"/>
<path d="M220.319 258.594C220.712 258.917 221.212 259.08 221.72 259.05C222.228 259.021 222.706 258.8 223.058 258.434C223.226 258.256 223.354 258.046 223.436 257.816C223.518 257.586 223.551 257.342 223.533 257.098C223.516 256.855 223.448 256.618 223.334 256.402C223.22 256.186 223.062 255.997 222.871 255.845C222.479 255.521 221.978 255.356 221.47 255.385C220.962 255.414 220.483 255.633 220.129 256C219.962 256.178 219.834 256.389 219.752 256.619C219.671 256.85 219.638 257.094 219.656 257.338C219.674 257.582 219.742 257.819 219.856 258.035C219.97 258.251 220.128 258.441 220.319 258.594Z" fill="white"/>
<path d="M202.816 241.609C203.095 241.315 203.671 241.368 204.103 241.727L221.324 256.051C221.746 256.403 221.866 256.925 221.595 257.219C221.324 257.513 220.757 257.466 220.334 257.115L203.098 242.792C202.66 242.433 202.535 241.902 202.816 241.609Z" fill="white"/>
<path d="M435.645 181.39C446.936 170.099 446.936 151.793 435.645 140.502C424.354 129.211 406.048 129.211 394.757 140.502C383.466 151.793 383.466 170.099 394.757 181.39C406.048 192.681 424.354 192.681 435.645 181.39Z" fill="#FFC800"/>
<path d="M415.407 180.054C415.088 180.054 414.765 180.054 414.442 180.032C403.406 179.546 394.791 170.758 395.245 160.444C395.464 155.43 397.764 150.81 401.722 147.44C405.652 144.096 410.755 142.385 416.08 142.617C427.117 143.104 435.731 151.891 435.277 162.206C435.058 167.221 432.758 171.84 428.8 175.209C425.108 178.352 420.384 180.054 415.407 180.054ZM415.116 145.235C410.766 145.235 406.646 146.717 403.434 149.452C400.045 152.34 398.069 156.285 397.877 160.565C397.489 169.427 404.97 176.98 414.554 177.402C419.21 177.604 423.664 176.117 427.083 173.2C430.471 170.311 432.447 166.367 432.64 162.087C433.027 153.226 425.546 145.673 415.963 145.25C415.68 145.249 415.397 145.235 415.116 145.235Z" fill="white"/>
<path d="M420.043 161.409C420.06 164.483 419.807 167.552 419.289 170.582C419.154 171.338 418.995 172.09 418.807 172.836C418.619 173.582 418.393 174.318 418.129 175.041C417.872 175.768 417.534 176.465 417.123 177.118C416.914 177.447 416.66 177.745 416.367 178.003C416.219 178.13 416.053 178.235 415.877 178.318C415.695 178.401 415.499 178.447 415.299 178.453C415.099 178.458 414.9 178.421 414.715 178.345C414.533 178.269 414.362 178.168 414.21 178.043C413.91 177.793 413.65 177.499 413.438 177.172C413.02 176.523 412.677 175.828 412.417 175.1C412.152 174.379 411.925 173.644 411.739 172.898C411.549 172.153 411.389 171.407 411.252 170.645C410.981 169.133 410.79 167.607 410.664 166.077C410.538 164.547 410.476 163.01 410.468 161.469C410.468 160.7 410.485 159.933 410.512 159.165C410.539 158.396 410.583 157.631 410.638 156.861C410.752 155.329 410.922 153.802 411.172 152.287C411.298 151.529 411.443 150.774 411.622 150.028C411.796 149.279 412.009 148.54 412.261 147.813C412.389 147.451 412.532 147.092 412.69 146.742C412.848 146.391 413.032 146.051 413.239 145.726C413.444 145.397 413.699 145.102 413.994 144.85C414.144 144.726 414.312 144.625 414.493 144.551C414.675 144.477 414.87 144.442 415.066 144.448C415.262 144.455 415.455 144.501 415.633 144.583C415.81 144.664 415.976 144.767 416.126 144.891C416.421 145.141 416.681 145.431 416.897 145.752C417.324 146.393 417.679 147.08 417.954 147.8C418.236 148.515 418.478 149.245 418.679 149.987C418.883 150.727 419.056 151.478 419.205 152.23C419.776 155.256 420.057 158.33 420.043 161.409ZM419.816 161.409C419.816 159.88 419.756 158.351 419.635 156.824C419.515 155.299 419.316 153.782 419.038 152.277C418.903 151.527 418.733 150.778 418.54 150.04C418.347 149.3 418.114 148.572 417.843 147.858C417.577 147.145 417.233 146.463 416.818 145.825C416.61 145.508 416.359 145.221 416.072 144.972C415.928 144.851 415.77 144.749 415.6 144.669C415.43 144.588 415.246 144.542 415.058 144.533C414.872 144.528 414.687 144.563 414.516 144.636C414.343 144.709 414.183 144.808 414.04 144.929C413.755 145.179 413.509 145.47 413.311 145.794C413.11 146.117 412.933 146.454 412.781 146.803C412.625 147.152 412.491 147.508 412.366 147.87C412.124 148.594 411.921 149.331 411.757 150.076C411.588 150.823 411.45 151.575 411.332 152.33C411.099 153.843 410.947 155.366 410.851 156.893C410.755 158.421 410.716 159.951 410.724 161.481C410.732 163.011 410.77 164.54 410.884 166.066C410.998 167.592 411.172 169.113 411.434 170.618C411.569 171.372 411.719 172.121 411.902 172.863C412.082 173.605 412.302 174.336 412.562 175.054C412.812 175.772 413.144 176.459 413.551 177.102C413.754 177.42 414.003 177.705 414.29 177.949C414.432 178.068 414.591 178.165 414.761 178.238C414.93 178.308 415.112 178.343 415.295 178.339C415.479 178.33 415.659 178.284 415.824 178.204C415.989 178.127 416.144 178.029 416.283 177.911C416.563 177.659 416.807 177.369 417.006 177.049C417.406 176.402 417.733 175.712 417.981 174.993C418.237 174.274 418.454 173.541 418.633 172.799C418.815 172.058 418.965 171.308 419.095 170.555C419.356 169.048 419.528 167.526 419.637 166.001C419.747 164.476 419.816 162.939 419.816 161.409Z" fill="white"/>
<path d="M415.255 178.907C415.014 178.908 414.774 178.862 414.549 178.772C414.327 178.681 414.119 178.558 413.933 178.406C413.598 178.128 413.306 177.802 413.069 177.437C412.631 176.757 412.272 176.03 412 175.268C411.727 174.531 411.495 173.78 411.303 173.017C411.121 172.299 410.958 171.552 410.809 170.734C410.546 169.285 410.352 167.776 410.215 166.126C410.092 164.623 410.025 163.063 410.017 161.489C410.017 160.667 410.038 159.855 410.062 159.168C410.092 158.388 410.134 157.608 410.198 156.851C410.32 155.187 410.496 153.679 410.74 152.244C410.875 151.421 411.026 150.673 411.195 149.953C411.372 149.189 411.59 148.435 411.847 147.694C411.992 147.287 412.137 146.921 412.291 146.587C412.458 146.214 412.652 145.855 412.872 145.512C413.101 145.144 413.387 144.814 413.719 144.533C413.904 144.38 414.112 144.256 414.335 144.165C414.575 144.067 414.832 144.021 415.09 144.029C415.342 144.039 415.589 144.097 415.819 144.2C416.032 144.297 416.232 144.421 416.413 144.57C416.741 144.845 417.029 145.164 417.268 145.519C417.716 146.187 418.087 146.903 418.374 147.655C418.662 148.386 418.909 149.132 419.115 149.891C419.313 150.61 419.488 151.354 419.649 152.166C420.212 155.03 420.49 158.055 420.499 161.415C420.499 164.795 420.246 167.821 419.739 170.666C419.591 171.479 419.431 172.23 419.248 172.951C419.059 173.713 418.829 174.464 418.56 175.202C418.291 175.962 417.938 176.689 417.508 177.37C417.277 177.736 416.994 178.066 416.669 178.35C416.488 178.506 416.286 178.635 416.07 178.736C415.833 178.846 415.577 178.905 415.316 178.913L415.255 178.907ZM415.022 144.978C414.906 144.978 414.792 145.002 414.685 145.047C414.554 145.103 414.432 145.179 414.323 145.272C414.073 145.491 413.858 145.748 413.686 146.032C413.497 146.336 413.33 146.653 413.187 146.981C413.052 147.29 412.916 147.627 412.788 148.011C412.551 148.72 412.351 149.441 412.19 150.171C412.033 150.871 411.897 151.597 411.772 152.395C411.554 153.81 411.398 155.29 411.295 156.918C411.207 158.308 411.16 159.799 411.169 161.476C411.169 163.022 411.218 164.553 411.328 166.028C411.448 167.654 411.627 169.122 411.87 170.538C412.006 171.33 412.159 172.054 412.331 172.75C412.507 173.476 412.723 174.192 412.976 174.894C413.217 175.58 413.535 176.237 413.925 176.851C414.102 177.131 414.32 177.383 414.572 177.598C414.68 177.688 414.801 177.763 414.93 177.819C415.042 177.864 415.162 177.888 415.283 177.888C415.407 177.883 415.529 177.853 415.64 177.799C415.77 177.736 415.891 177.656 416 177.56C416.248 177.336 416.463 177.079 416.639 176.794C417.021 176.175 417.333 175.516 417.569 174.828C417.82 174.124 418.033 173.408 418.206 172.681C418.377 171.987 418.526 171.263 418.663 170.467C418.904 169.064 419.081 167.589 419.205 165.956C419.317 164.486 419.374 162.954 419.373 161.405C419.373 159.863 419.316 158.333 419.193 156.86C419.075 155.35 418.878 153.847 418.603 152.357C418.457 151.573 418.295 150.852 418.111 150.152C417.925 149.429 417.698 148.716 417.433 148.018C417.181 147.334 416.854 146.68 416.456 146.069C416.272 145.786 416.048 145.531 415.794 145.31C415.681 145.214 415.556 145.133 415.422 145.07C415.307 145.015 415.182 144.984 415.055 144.978H415.022Z" fill="white"/>
<path d="M427.757 161.409C427.753 163.389 427.487 165.359 426.967 167.269C426.44 169.178 425.617 170.992 424.527 172.645C423.98 173.467 423.356 174.235 422.662 174.939C421.968 175.641 421.198 176.264 420.365 176.794C419.531 177.322 418.63 177.736 417.686 178.025C415.786 178.604 413.757 178.604 411.858 178.025C410.913 177.738 410.012 177.325 409.177 176.797C408.341 176.268 407.569 175.646 406.873 174.943C406.178 174.24 405.552 173.472 405.003 172.65C403.911 170.997 403.084 169.183 402.554 167.274C402.29 166.32 402.092 165.349 401.962 164.368C401.693 162.404 401.693 160.412 401.962 158.448C402.093 157.467 402.292 156.497 402.557 155.544C403.088 153.635 403.916 151.822 405.01 150.17C405.558 149.349 406.184 148.582 406.879 147.88C407.575 147.178 408.347 146.557 409.183 146.028C410.018 145.505 410.92 145.094 411.863 144.808C413.759 144.227 415.785 144.227 417.68 144.808C418.623 145.095 419.524 145.505 420.358 146.028C421.191 146.557 421.961 147.179 422.654 147.881C423.348 148.583 423.973 149.351 424.52 150.173C425.611 151.826 426.435 153.64 426.963 155.549C427.484 157.459 427.751 159.429 427.757 161.409ZM427.498 161.409C427.502 159.452 427.246 157.502 426.739 155.611C426.232 153.72 425.434 151.919 424.373 150.273C423.84 149.454 423.229 148.688 422.55 147.987C421.872 147.283 421.115 146.66 420.295 146.13C419.472 145.604 418.582 145.191 417.649 144.902C415.774 144.317 413.765 144.317 411.889 144.902C410.956 145.191 410.067 145.604 409.245 146.131C408.426 146.662 407.67 147.286 406.993 147.989C406.314 148.692 405.705 149.458 405.172 150.277C404.114 151.922 403.318 153.722 402.814 155.613C402.56 156.556 402.37 157.516 402.246 158.485C402.122 159.454 402.059 160.43 402.057 161.407C402.058 162.383 402.123 163.359 402.249 164.327C402.373 165.296 402.563 166.256 402.818 167.199C403.323 169.088 404.12 170.887 405.181 172.531C405.713 173.349 406.322 174.114 407.001 174.816C407.677 175.518 408.433 176.14 409.252 176.67C410.074 177.193 410.962 177.603 411.893 177.889C413.765 178.479 415.772 178.479 417.644 177.889C418.576 177.603 419.465 177.193 420.288 176.67C421.108 176.14 421.864 175.518 422.543 174.816C423.222 174.114 423.832 173.35 424.366 172.532C425.428 170.888 426.228 169.088 426.735 167.198C427.243 165.31 427.499 163.364 427.498 161.409Z" fill="white"/>
<path d="M414.769 178.907C413.738 178.907 412.713 178.755 411.726 178.456C410.743 178.157 409.805 177.727 408.936 177.178C408.073 176.631 407.275 175.987 406.557 175.26C405.843 174.537 405.199 173.747 404.634 172.901C403.514 171.21 402.668 169.352 402.126 167.397C401.855 166.423 401.653 165.43 401.52 164.428C401.248 162.424 401.248 160.393 401.52 158.39C401.653 157.389 401.856 156.398 402.127 155.425C402.67 153.47 403.518 151.613 404.64 149.922C405.204 149.077 405.848 148.288 406.563 147.565C407.281 146.839 408.079 146.197 408.941 145.65C409.81 145.104 410.747 144.676 411.729 144.378C413.709 143.771 415.825 143.771 417.805 144.378C418.785 144.676 419.722 145.105 420.589 145.652C421.45 146.199 422.247 146.842 422.964 147.568C423.678 148.292 424.321 149.081 424.885 149.926C426.006 151.616 426.854 153.473 427.396 155.427C427.93 157.376 428.203 159.386 428.209 161.407C428.203 163.427 427.93 165.437 427.396 167.385C426.857 169.34 426.013 171.197 424.894 172.889C424.331 173.735 423.688 174.525 422.975 175.25C422.258 175.976 421.461 176.62 420.599 177.169C419.731 177.717 418.793 178.148 417.81 178.448C416.824 178.749 415.8 178.904 414.769 178.907ZM414.769 144.912C413.838 144.917 412.912 145.058 412.022 145.332C411.128 145.61 410.275 146.007 409.486 146.512C408.697 147.025 407.97 147.627 407.318 148.305C406.661 148.987 406.071 149.731 405.556 150.525C404.521 152.131 403.744 153.888 403.252 155.734C403.004 156.657 402.818 157.597 402.696 158.546C402.447 160.446 402.447 162.371 402.696 164.272C402.818 165.22 403.004 166.159 403.253 167.083C403.745 168.927 404.522 170.684 405.557 172.288C406.072 173.082 406.662 173.824 407.319 174.506C407.971 175.183 408.699 175.784 409.488 176.296C410.276 176.799 411.128 177.194 412.021 177.471C413.807 178.033 415.724 178.033 417.511 177.471C418.404 177.194 419.257 176.799 420.047 176.297C420.838 175.786 421.568 175.186 422.222 174.508C422.88 173.827 423.473 173.084 423.992 172.291C425.026 170.686 425.804 168.929 426.296 167.084C427.29 163.364 427.29 159.447 426.296 155.727C425.803 153.881 425.026 152.122 423.992 150.516C423.473 149.722 422.88 148.978 422.222 148.296C421.567 147.618 420.837 147.017 420.045 146.504C419.256 146 418.404 145.605 417.509 145.328C416.62 145.056 415.696 144.916 414.766 144.912H414.769Z" fill="white"/>
<path d="M399.613 154.661L403.513 154.63L407.414 154.613L415.215 154.598L423.017 154.614L426.918 154.633L430.818 154.667C430.82 154.667 430.821 154.667 430.823 154.668C430.824 154.668 430.825 154.669 430.826 154.67C430.827 154.672 430.828 154.673 430.829 154.674C430.829 154.676 430.829 154.677 430.829 154.679C430.829 154.679 430.829 154.69 430.818 154.69L426.918 154.725L423.017 154.744L415.215 154.76L407.414 154.745L403.513 154.728L399.613 154.697C399.607 154.695 399.6 154.693 399.595 154.688C399.594 154.669 399.602 154.661 399.613 154.661Z" fill="white"/>
<path d="M415.215 155.207L403.51 155.175L399.422 155.141L399.15 154.869V154.668L399.159 154.232L399.608 154.214L407.41 154.164L415.214 154.15L426.918 154.186L431.263 154.224L431.274 155.126L430.817 155.137L423.017 155.191L415.215 155.207Z" fill="white"/>
<path d="M404.137 148.103C405.06 148.088 405.983 148.083 406.906 148.072L409.674 148.053C410.599 148.053 411.522 148.053 412.445 148.045H415.214L420.753 148.06L423.523 148.08C424.446 148.091 425.369 148.099 426.292 148.114C426.295 148.113 426.299 148.113 426.302 148.114C426.302 148.126 426.302 148.132 426.292 148.132C425.369 148.148 424.446 148.155 423.523 148.166L420.753 148.186L415.214 148.201H412.445C411.522 148.201 410.599 148.201 409.674 148.191L406.906 148.174C405.983 148.163 405.06 148.156 404.137 148.141C404.132 148.141 404.128 148.139 404.124 148.136C404.121 148.133 404.119 148.128 404.119 148.124C404.119 148.121 404.119 148.119 404.12 148.116C404.121 148.114 404.122 148.112 404.124 148.11C404.125 148.108 404.127 148.106 404.13 148.105C404.132 148.104 404.134 148.103 404.137 148.103Z" fill="white"/>
<path d="M415.215 148.649H411.726C411.041 148.649 410.356 148.649 409.672 148.641L405.979 148.613C405.362 148.613 404.745 148.602 404.13 148.591H403.691L403.673 147.686L404.13 147.669C404.726 147.66 405.323 147.655 405.919 147.648L409.673 147.619C410.322 147.614 410.972 147.612 411.623 147.612H415.214L424.534 147.659C425.122 147.659 425.71 147.671 426.296 147.682L426.75 147.69L426.729 148.588L426.289 148.599C425.68 148.61 425.069 148.617 424.447 148.624L420.755 148.637L415.215 148.649Z" fill="white"/>
<path d="M398.258 161.221L402.497 161.188L406.736 161.171L415.215 161.156L423.695 161.172L427.934 161.192L432.174 161.226C432.18 161.226 432.186 161.226 432.185 161.237C432.183 161.248 432.185 161.249 432.174 161.249L427.934 161.283L423.695 161.302L415.215 161.318L406.736 161.303L402.497 161.286L398.258 161.255C398.253 161.255 398.249 161.253 398.245 161.25C398.242 161.246 398.24 161.242 398.24 161.237C398.24 161.235 398.241 161.233 398.242 161.231C398.242 161.228 398.244 161.227 398.245 161.225C398.247 161.224 398.249 161.222 398.251 161.222C398.253 161.221 398.256 161.221 398.258 161.221Z" fill="white"/>
<path d="M415.215 161.766L402.493 161.733L397.811 161.699L397.793 160.79L398.252 160.772L406.734 160.723L415.214 160.708L427.934 160.745L432.363 160.78L432.632 161.054L432.614 161.686L432.172 161.696L423.695 161.751L415.215 161.766Z" fill="white"/>
<path d="M399.613 167.779L403.514 167.747L407.414 167.729L415.215 167.715L423.017 167.73L426.918 167.751L430.818 167.784C430.822 167.783 430.826 167.783 430.829 167.784C430.829 167.797 430.829 167.802 430.818 167.802L426.918 167.836L423.017 167.856L415.215 167.871L407.414 167.858L403.514 167.839L399.613 167.807C399.608 167.807 399.604 167.806 399.601 167.802C399.597 167.799 399.595 167.795 399.595 167.79C399.597 167.786 399.599 167.783 399.602 167.781C399.606 167.779 399.609 167.779 399.613 167.779Z" fill="white"/>
<path d="M415.215 168.324L403.51 168.291L399.422 168.259L399.15 167.986V167.786L399.159 167.348L399.608 167.332L407.41 167.282L415.214 167.268L426.918 167.303L431.263 167.341L431.274 168.244L430.817 168.255L423.017 168.309L415.215 168.324Z" fill="white"/>
<path d="M426.854 174.415H404.695C404.687 174.416 404.678 174.415 404.669 174.413C404.661 174.411 404.653 174.406 404.647 174.401C404.64 174.395 404.635 174.388 404.631 174.38C404.627 174.372 404.625 174.363 404.625 174.354C404.625 174.346 404.627 174.337 404.631 174.329C404.635 174.321 404.64 174.314 404.647 174.308C404.653 174.302 404.661 174.298 404.669 174.296C404.678 174.293 404.687 174.293 404.695 174.294H426.854C426.869 174.296 426.882 174.304 426.891 174.315C426.901 174.326 426.906 174.34 426.906 174.354C426.906 174.369 426.901 174.383 426.891 174.394C426.882 174.405 426.869 174.413 426.854 174.415Z" fill="white"/>
<path d="M426.854 174.862H404.695C404.561 174.862 404.432 174.808 404.337 174.713C404.242 174.618 404.188 174.489 404.188 174.355C404.188 174.221 404.242 174.092 404.337 173.997C404.432 173.902 404.561 173.848 404.695 173.848H426.854C426.989 173.848 427.117 173.902 427.213 173.997C427.308 174.092 427.361 174.221 427.361 174.355C427.361 174.489 427.308 174.618 427.213 174.713C427.117 174.808 426.989 174.862 426.854 174.862Z" fill="white"/>
<path d="M374.858 96.317C386.602 84.5725 386.602 65.531 374.858 53.7865C363.113 42.042 344.072 42.042 332.327 53.7865C320.583 65.531 320.583 84.5725 332.327 96.317C344.072 108.061 363.113 108.061 374.858 96.317Z" fill="#FFC800"/>
<path d="M360.063 83.9538H342.548C342.316 83.9536 342.092 83.8754 341.91 83.7318C341.729 83.5881 341.601 83.3875 341.548 83.1623C341.518 83.027 341.472 82.8956 341.412 82.7706L341.392 82.7272C341.322 82.5697 341.238 82.4191 341.14 82.2773C340.85 81.8453 340.458 81.4912 339.999 81.2463C339.54 81.0015 339.028 80.8733 338.508 80.8732C337.987 80.8756 337.475 81.0045 337.015 81.2489C336.556 81.4932 336.162 81.8457 335.869 82.2759C335.771 82.4176 335.687 82.5683 335.617 82.7259L335.597 82.7693C335.536 82.8936 335.491 83.0246 335.461 83.1596C335.408 83.3853 335.281 83.5865 335.099 83.7305C334.918 83.8744 334.693 83.9527 334.461 83.9524H333.587C333.151 83.9521 332.734 83.7789 332.426 83.4709C332.118 83.1629 331.944 82.7453 331.944 82.3098V66.7661C331.944 66.3305 332.117 65.9127 332.425 65.6046C332.733 65.2966 333.151 65.1235 333.587 65.1235H360.069C360.505 65.1235 360.923 65.2966 361.231 65.6046C361.539 65.9126 361.712 66.3304 361.713 66.7661V82.3112C361.712 82.5273 361.669 82.7413 361.586 82.9409C361.503 83.1405 361.382 83.3217 361.228 83.4743C361.075 83.6268 360.894 83.7477 360.694 83.83C360.494 83.9122 360.28 83.9543 360.063 83.9538ZM343.269 81.8992H359.653V67.1849H333.993V81.3991C334.05 81.3028 334.111 81.208 334.176 81.1131C334.655 80.4059 335.3 79.8269 336.055 79.4266C336.809 79.0264 337.65 78.8171 338.504 78.8171C339.358 78.8171 340.2 79.0264 340.954 79.4266C341.709 79.8269 342.353 80.4059 342.832 81.1131C342.996 81.3512 343.138 81.6034 343.257 81.8666L343.269 81.8992Z" fill="white"/>
<path d="M372.976 83.954H372.224C371.993 83.954 371.768 83.8759 371.586 83.7323C371.405 83.5886 371.277 83.3878 371.224 83.1625C371.194 83.027 371.149 82.8955 371.088 82.7708C371.088 82.7559 371.075 82.7424 371.069 82.7275C371 82.5699 370.915 82.4193 370.817 82.2775C370.526 81.8445 370.132 81.4898 369.671 81.2446C369.211 80.9994 368.697 80.8711 368.175 80.8711C367.653 80.8711 367.139 80.9994 366.678 81.2446C366.217 81.4898 365.823 81.8445 365.532 82.2775C365.434 82.4193 365.35 82.5699 365.28 82.7275C365.28 82.7424 365.267 82.7559 365.261 82.7708C365.2 82.8952 365.155 83.0262 365.125 83.1611C365.073 83.3868 364.945 83.5881 364.763 83.732C364.582 83.876 364.357 83.9542 364.125 83.954H363.891C363.455 83.9533 363.038 83.78 362.73 83.4721C362.422 83.1642 362.249 82.7468 362.248 82.3114V70.1532C362.249 69.7178 362.422 69.3004 362.73 68.9925C363.038 68.6846 363.455 68.5113 363.891 68.5106H366.54C367.203 68.4808 370.266 68.4957 372.576 70.9664C374.856 73.4059 374.702 76.4105 374.624 77.1451V82.3114C374.624 82.5274 374.581 82.7413 374.498 82.9408C374.415 83.1403 374.294 83.3215 374.14 83.474C373.987 83.6265 373.806 83.7474 373.606 83.8298C373.406 83.9121 373.192 83.9543 372.976 83.954ZM368.17 78.8202C369.025 78.8215 369.866 79.0309 370.622 79.4302C371.378 79.8295 372.025 80.4067 372.507 81.112C372.529 81.1418 372.548 81.1716 372.568 81.2014V77.0881C372.568 77.0475 372.568 77.0055 372.568 76.9648C372.623 76.523 372.8 74.2231 371.068 72.3704C369.336 70.5178 367.05 70.5421 366.606 70.5638H364.294V80.536C364.786 79.9965 365.384 79.5654 366.052 79.27C366.719 78.9746 367.441 78.8214 368.17 78.8202Z" fill="white"/>
<path d="M338.508 88.067C337.772 88.0659 337.066 87.7729 336.546 87.2524C336.025 86.7318 335.733 86.0261 335.732 85.29C335.735 84.6298 335.975 83.9927 336.41 83.4956C336.666 83.1875 336.987 82.9396 337.35 82.7695C337.713 82.5994 338.109 82.5112 338.51 82.5112C338.911 82.5112 339.307 82.5994 339.67 82.7695C340.033 82.9396 340.355 83.1875 340.611 83.4956C341.046 83.9927 341.286 84.6298 341.289 85.29C341.289 85.6551 341.217 86.0167 341.078 86.3541C340.938 86.6914 340.733 86.9979 340.475 87.2559C340.216 87.5139 339.91 87.7183 339.572 87.8575C339.234 87.9967 338.873 88.0679 338.508 88.067ZM338.508 84.569C338.409 84.5656 338.311 84.5848 338.222 84.6253C338.132 84.6657 338.053 84.7262 337.99 84.8021L337.962 84.836C337.849 84.9605 337.787 85.1223 337.787 85.29C337.787 85.4798 337.862 85.6618 337.996 85.796C338.13 85.9302 338.312 86.0056 338.502 86.0056C338.692 86.0056 338.874 85.9302 339.008 85.796C339.142 85.6618 339.218 85.4798 339.218 85.29C339.218 85.1223 339.155 84.9605 339.043 84.836C339.033 84.8253 339.023 84.814 339.015 84.8021C338.953 84.7273 338.876 84.6674 338.788 84.627C338.7 84.5866 338.604 84.5668 338.508 84.569Z" fill="white"/>
<path d="M368.171 88.0673C367.435 88.0662 366.729 87.7733 366.208 87.2527C365.688 86.7322 365.395 86.0265 365.394 85.2903C365.396 84.6301 365.637 83.993 366.071 83.4959C366.329 83.1895 366.651 82.9432 367.013 82.7742C367.376 82.6052 367.772 82.5176 368.172 82.5176C368.572 82.5176 368.968 82.6052 369.331 82.7742C369.694 82.9432 370.015 83.1895 370.273 83.4959C370.708 83.9926 370.949 84.63 370.95 85.2903C370.95 86.0271 370.657 86.7334 370.135 87.2541C369.614 87.7748 368.908 88.0673 368.171 88.0673ZM368.171 84.5693C368.073 84.5669 367.975 84.5866 367.885 84.6269C367.796 84.6673 367.716 84.7273 367.653 84.8024L367.625 84.8363C367.512 84.9608 367.45 85.1226 367.45 85.2903C367.446 85.3877 367.461 85.485 367.495 85.5762C367.53 85.6674 367.582 85.7508 367.65 85.8212C367.717 85.8916 367.798 85.9477 367.888 85.9859C367.977 86.0242 368.074 86.044 368.171 86.044C368.269 86.044 368.365 86.0242 368.455 85.9859C368.545 85.9477 368.626 85.8916 368.693 85.8212C368.761 85.7508 368.813 85.6674 368.847 85.5762C368.882 85.485 368.897 85.3877 368.893 85.2903C368.893 85.1224 368.83 84.9606 368.717 84.8363L368.688 84.8024C368.625 84.7273 368.546 84.6673 368.456 84.6269C368.367 84.5866 368.269 84.5669 368.171 84.5693Z" fill="white"/>
<path d="M244.598 98.462C261.136 98.462 274.543 85.0552 274.543 68.5171C274.543 51.979 261.136 38.5723 244.598 38.5723C228.06 38.5723 214.653 51.979 214.653 68.5171C214.653 85.0552 228.06 98.462 244.598 98.462Z" fill="#FFC800"/>
<path d="M243.148 62.1326H252.864C253.216 62.1322 253.553 61.9922 253.802 61.7432C254.051 61.4941 254.191 61.1565 254.192 60.8044V54.73C254.191 54.3779 254.051 54.0403 253.802 53.7913C253.553 53.5423 253.216 53.4022 252.864 53.4019H243.148C242.795 53.4019 242.458 53.5418 242.208 53.7909C241.959 54.0399 241.819 54.3778 241.819 54.73V60.8044C241.819 61.1566 241.959 61.4945 242.208 61.7435C242.458 61.9926 242.795 62.1326 243.148 62.1326ZM243.805 60.1471V55.3941H252.208V60.1539L243.805 60.1471Z" fill="white"/>
<path d="M268.517 66.6603C268.328 66.3227 268.053 66.0415 267.719 65.8452C267.386 65.649 267.006 65.5449 266.62 65.5435H261.287V64.2032C261.286 63.8511 261.146 63.5137 260.897 63.2648C260.648 63.0159 260.31 62.8757 259.958 62.875H250.242C249.89 62.8754 249.553 63.0154 249.304 63.2644C249.055 63.5134 248.915 63.851 248.914 64.2032V69.833H248.123V64.2032C248.122 63.8511 247.982 63.5137 247.733 63.2648C247.484 63.0159 247.147 62.8757 246.795 62.875H237.079C236.726 62.8754 236.389 63.0154 236.14 63.2644C235.891 63.5134 235.751 63.851 235.75 64.2032V69.9306L224.231 70.02C223.853 70.0235 223.482 70.1295 223.16 70.3269C222.838 70.5243 222.575 70.8055 222.4 71.1406C222.225 71.4757 222.144 71.8521 222.166 72.2295C222.188 72.6069 222.313 72.9712 222.526 73.2835L227.237 80.1385C227.67 80.7689 228.251 81.2844 228.928 81.6407C229.605 81.997 230.358 82.1833 231.124 82.1836H258.122C258.796 82.1849 259.459 82.0138 260.048 81.6867C260.637 81.3596 261.133 80.8873 261.489 80.3147L268.467 68.8897C268.674 68.5568 268.789 68.1741 268.797 67.7819C268.806 67.3896 268.709 67.0022 268.517 66.6603ZM250.898 69.8113V64.8551H259.301V65.5449H256.683C256.086 65.5446 255.498 65.6895 254.969 65.9672C254.441 66.2449 253.988 66.6469 253.65 67.1387L251.812 69.8032L250.898 69.8113ZM237.735 64.8551H246.137V69.8465L237.927 69.9062H237.737L237.735 64.8551ZM266.774 67.8367L259.798 79.2576C259.622 79.5441 259.376 79.7806 259.082 79.9448C258.789 80.109 258.458 80.1953 258.122 80.1954H231.125C230.682 80.1949 230.246 80.0868 229.854 79.8805C229.462 79.6742 229.126 79.3758 228.875 79.0109L224.168 72.1627C224.158 72.1467 224.152 72.1278 224.152 72.1085C224.152 72.0892 224.158 72.0703 224.168 72.0543C224.175 72.0382 224.186 72.0246 224.201 72.0156C224.216 72.0066 224.234 72.0026 224.251 72.0041L237.939 71.8971L248.326 71.8225L249.914 71.809L252.346 71.79C252.506 71.7889 252.663 71.7493 252.805 71.6745C252.946 71.5997 253.068 71.492 253.159 71.3604L255.289 68.2704C255.445 68.0439 255.653 67.8586 255.895 67.7304C256.138 67.6022 256.408 67.535 256.683 67.5344H266.616C266.651 67.5333 266.685 67.5422 266.715 67.5599C266.746 67.5777 266.77 67.6036 266.786 67.6347C266.804 67.6669 266.812 67.7035 266.81 67.7402C266.808 67.7769 266.796 67.8122 266.774 67.8421V67.8367Z" fill="white"/>
<path d="M178.987 184.385C195.027 184.385 208.03 171.383 208.03 155.343C208.03 139.303 195.027 126.301 178.987 126.301C162.948 126.301 149.945 139.303 149.945 155.343C149.945 171.383 162.948 184.385 178.987 184.385Z" fill="#FFC800"/>
<path d="M194.864 154.481H172.857C172.577 154.481 172.307 154.37 172.109 154.171C171.91 153.973 171.799 153.703 171.799 153.423C171.799 153.142 171.91 152.873 172.109 152.674C172.307 152.476 172.577 152.364 172.857 152.364H194.864C195.145 152.364 195.414 152.476 195.613 152.674C195.811 152.873 195.923 153.142 195.923 153.423C195.923 153.703 195.811 153.973 195.613 154.171C195.414 154.37 195.145 154.481 194.864 154.481Z" fill="white"/>
<path d="M179.75 168.683C179.166 168.683 178.693 167.904 178.693 166.942V148.139C178.693 147.176 179.166 146.397 179.75 146.397C180.334 146.397 180.809 147.176 180.809 148.139V166.942C180.809 167.904 180.336 168.683 179.75 168.683Z" fill="white"/>
<path d="M187.791 168.683C187.207 168.683 186.734 167.904 186.734 166.942V148.139C186.734 147.176 187.207 146.397 187.791 146.397C188.375 146.397 188.85 147.176 188.85 148.139V166.942C188.85 167.904 188.377 168.683 187.791 168.683Z" fill="white"/>
<path d="M194.191 161.887H172.978C172.328 161.887 171.8 161.414 171.8 160.829C171.8 160.245 172.328 159.771 172.978 159.771H194.191C194.841 159.771 195.37 160.244 195.37 160.829C195.37 161.415 194.841 161.887 194.191 161.887Z" fill="white"/>
<path d="M195.373 169.331H172.173C171.993 169.331 171.816 169.296 171.65 169.227C171.484 169.158 171.333 169.058 171.206 168.931C171.08 168.804 170.979 168.653 170.91 168.487C170.842 168.321 170.807 168.143 170.807 167.964V147.021C170.807 146.658 170.951 146.311 171.207 146.055C171.464 145.8 171.811 145.656 172.173 145.656H195.373C195.552 145.656 195.73 145.691 195.896 145.76C196.061 145.829 196.212 145.929 196.339 146.056C196.466 146.183 196.566 146.334 196.635 146.5C196.704 146.666 196.739 146.844 196.739 147.023V167.964C196.739 168.143 196.704 168.321 196.635 168.487C196.566 168.653 196.466 168.804 196.339 168.931C196.212 169.058 196.061 169.158 195.896 169.227C195.73 169.296 195.552 169.331 195.373 169.331ZM173.543 166.598H194.008V148.387H173.543V166.598Z" fill="white"/>
<path d="M172.173 169.331H162.252C162.063 169.33 161.876 169.289 161.703 169.212C161.53 169.135 161.375 169.023 161.248 168.883C161.12 168.743 161.023 168.578 160.963 168.398C160.903 168.219 160.88 168.029 160.897 167.84L163.581 139.889C163.613 139.552 163.77 139.238 164.02 139.01C164.271 138.782 164.597 138.654 164.936 138.653H169.728C170.07 138.653 170.4 138.781 170.652 139.012C170.904 139.243 171.06 139.56 171.09 139.901L173.53 167.851C173.547 168.04 173.525 168.23 173.465 168.41C173.405 168.589 173.308 168.754 173.18 168.895C173.053 169.035 172.897 169.147 172.724 169.224C172.551 169.301 172.364 169.341 172.174 169.342L172.173 169.331ZM163.757 166.597H170.682L168.476 141.38H166.179L163.757 166.597Z" fill="white"/>
<path d="M371.715 378.231V327.726C371.713 324.539 372.968 321.48 375.209 319.213C377.45 316.946 380.495 315.655 383.682 315.62C403.596 315.403 444.669 315.392 478.272 318.225C480.487 318.413 482.557 319.407 484.09 321.018C485.623 322.629 486.512 324.745 486.591 326.968L489.731 375.795C489.787 377.329 489.536 378.859 488.994 380.295C488.452 381.732 487.63 383.045 486.575 384.16C485.52 385.275 484.253 386.169 482.849 386.789C481.445 387.409 479.931 387.743 478.397 387.772L383.281 389.58C381.772 389.609 380.273 389.336 378.871 388.779C377.469 388.221 376.192 387.39 375.115 386.333C374.039 385.276 373.183 384.016 372.599 382.624C372.015 381.233 371.715 379.74 371.715 378.231Z" fill="#FFC800"/>
<path opacity="0.37" d="M426.076 358.623L439.747 360.097C440.196 360.146 440.65 360.095 441.078 359.949C441.505 359.802 441.895 359.564 442.22 359.25C442.544 358.936 442.796 358.555 442.957 358.133C443.118 357.711 443.185 357.258 443.151 356.808L440.163 316.141C434.431 315.96 428.779 315.827 423.325 315.735V355.56C423.325 356.32 423.606 357.053 424.114 357.618C424.622 358.184 425.321 358.541 426.076 358.623Z" fill="white"/>
<path d="M431.679 351.574C431.699 351.924 431.852 352.253 432.107 352.494C432.362 352.735 432.7 352.869 433.05 352.87C433.078 352.87 433.105 352.87 433.132 352.87C433.312 352.859 433.488 352.813 433.651 352.735C433.813 352.656 433.959 352.546 434.079 352.412C434.199 352.277 434.291 352.12 434.351 351.949C434.41 351.779 434.435 351.598 434.425 351.418L432.363 315.926C431.439 315.903 430.522 315.883 429.605 315.862L431.679 351.574Z" fill="white"/>
<path d="M387.687 310.429V274.96C387.685 272.722 388.567 270.574 390.14 268.982C391.714 267.39 393.851 266.484 396.089 266.459C410.074 266.307 438.916 266.299 462.518 268.287C464.074 268.42 465.527 269.118 466.604 270.249C467.68 271.381 468.304 272.867 468.359 274.428L470.566 308.716C470.605 309.793 470.429 310.867 470.048 311.876C469.668 312.884 469.09 313.807 468.349 314.59C467.608 315.373 466.719 316 465.733 316.436C464.747 316.872 463.684 317.106 462.606 317.127L395.807 318.395C394.748 318.415 393.696 318.224 392.712 317.833C391.728 317.442 390.831 316.858 390.075 316.116C389.319 315.375 388.719 314.49 388.308 313.513C387.898 312.537 387.687 311.488 387.687 310.429Z" fill="#FFC800"/>
<path opacity="0.37" d="M425.857 296.658L435.458 297.693C435.772 297.726 436.09 297.69 436.389 297.587C436.689 297.485 436.962 297.318 437.19 297.098C437.417 296.879 437.594 296.612 437.708 296.317C437.822 296.021 437.87 295.705 437.848 295.389L435.749 266.829C431.725 266.702 427.753 266.609 423.924 266.543V294.506C423.925 295.039 424.123 295.554 424.479 295.951C424.836 296.348 425.326 296.6 425.857 296.658Z" fill="white"/>
<path d="M429.792 291.709C429.806 291.954 429.914 292.186 430.093 292.355C430.272 292.524 430.509 292.618 430.755 292.618H430.812C431.067 292.603 431.307 292.487 431.477 292.296C431.647 292.104 431.735 291.853 431.72 291.598L430.272 266.673L428.336 266.628L429.792 291.709Z" fill="white"/>
<path d="M369.806 235.104L364.705 229.005C364.029 228.191 363.56 227.227 363.337 226.193C363.114 225.159 363.144 224.086 363.424 223.066C364.816 217.898 365.611 212.588 365.796 207.239C365.827 206.181 366.114 205.145 366.631 204.221C367.148 203.297 367.881 202.511 368.767 201.931L375.439 197.594C376.81 196.703 377.87 195.407 378.47 193.886C379.07 192.365 379.18 190.694 378.786 189.107L376.373 179.402C375.978 177.815 375.098 176.391 373.855 175.327C372.613 174.264 371.069 173.615 369.44 173.47L361.517 172.768C360.463 172.67 359.448 172.318 358.558 171.744C357.668 171.169 356.93 170.388 356.407 169.468C353.741 164.827 350.552 160.507 346.902 156.593C346.177 155.822 345.649 154.889 345.362 153.871C345.075 152.852 345.038 151.78 345.254 150.745L346.909 142.972C347.249 141.373 347.082 139.707 346.431 138.207C345.779 136.707 344.676 135.447 343.275 134.603L334.695 129.448C333.294 128.605 331.665 128.22 330.034 128.347C328.404 128.474 326.854 129.106 325.6 130.155L319.501 135.255C318.687 135.931 317.723 136.401 316.689 136.624C315.655 136.847 314.582 136.817 313.562 136.537C308.394 135.146 303.084 134.35 297.735 134.166C296.677 134.134 295.641 133.848 294.717 133.331C293.793 132.814 293.007 132.081 292.427 131.195L288.09 124.523C287.199 123.151 285.903 122.091 284.382 121.491C282.861 120.891 281.19 120.78 279.603 121.174L269.913 123.589C268.326 123.984 266.902 124.864 265.838 126.106C264.775 127.348 264.126 128.891 263.981 130.52L263.279 138.443C263.181 139.498 262.83 140.513 262.255 141.403C261.681 142.293 260.9 143.03 259.979 143.554C255.338 146.221 251.019 149.41 247.103 153.06C246.333 153.785 245.399 154.313 244.381 154.6C243.363 154.886 242.291 154.923 241.255 154.706L233.483 153.053C231.884 152.713 230.218 152.88 228.718 153.532C227.218 154.183 225.959 155.286 225.115 156.686L219.953 165.261C219.11 166.663 218.725 168.292 218.852 169.923C218.979 171.553 219.611 173.103 220.661 174.358L225.762 180.456C226.437 181.27 226.907 182.235 227.13 183.268C227.353 184.302 227.323 185.374 227.043 186.394C225.651 191.562 224.856 196.872 224.671 202.221C224.64 203.28 224.354 204.315 223.837 205.24C223.319 206.164 222.586 206.949 221.7 207.529L215.028 211.866C213.656 212.757 212.597 214.054 211.997 215.575C211.397 217.096 211.286 218.767 211.681 220.354L214.094 230.068C214.489 231.655 215.369 233.079 216.612 234.142C217.854 235.206 219.398 235.855 221.027 236L228.95 236.702C230.004 236.8 231.02 237.151 231.91 237.725C232.799 238.3 233.537 239.081 234.06 240.002C236.727 244.642 239.916 248.962 243.565 252.877C244.29 253.647 244.818 254.581 245.105 255.599C245.392 256.617 245.429 257.69 245.213 258.725L243.558 266.496C243.218 268.096 243.385 269.762 244.036 271.262C244.688 272.762 245.791 274.021 247.192 274.865L255.768 280.026C257.169 280.869 258.798 281.254 260.428 281.127C262.059 281.001 263.609 280.369 264.863 279.32L270.962 274.219C271.776 273.543 272.74 273.074 273.774 272.851C274.808 272.628 275.881 272.658 276.901 272.938C282.069 274.329 287.379 275.124 292.728 275.308C293.786 275.339 294.822 275.626 295.746 276.143C296.67 276.66 297.456 277.393 298.036 278.279L302.366 284.952C303.257 286.324 304.553 287.383 306.074 287.983C307.596 288.583 309.266 288.694 310.853 288.3L320.566 285.886C322.153 285.491 323.578 284.611 324.641 283.369C325.704 282.126 326.354 280.583 326.498 278.954L327.2 271.031C327.298 269.976 327.649 268.961 328.224 268.071C328.798 267.181 329.579 266.443 330.501 265.92C335.141 263.253 339.46 260.065 343.376 256.416C344.146 255.691 345.08 255.162 346.098 254.875C347.116 254.589 348.188 254.552 349.224 254.768L356.995 256.423C358.594 256.763 360.26 256.595 361.76 255.944C363.26 255.293 364.52 254.19 365.364 252.789L370.526 244.213C371.37 242.809 371.755 241.176 371.626 239.543C371.497 237.91 370.86 236.358 369.806 235.104ZM270.378 257.405C241.285 243.68 228.829 208.969 242.554 179.883C256.279 150.798 290.991 138.336 320.083 152.061C349.174 165.786 361.631 200.497 347.906 229.589C334.181 258.682 299.47 271.133 270.378 257.406V257.405Z" fill="#FFC800"/>
<path d="M260.514 188.553C260.514 188.553 285.504 182.285 311.908 186.065C315.58 186.601 319.093 187.928 322.203 189.953C325.314 191.978 327.948 194.653 329.925 197.795C337.148 209.225 347.36 229.595 345.2 250.84L333.863 253.643C333.863 253.643 326.027 228.435 317.209 218.171C317.209 218.171 306.764 241.977 307.293 255.05C307.308 255.42 307.332 255.781 307.365 256.134C308.563 268.924 257.23 258.52 257.23 258.52L260.514 188.553Z" fill="white"/>
<path d="M287.532 167.211L282.211 184.152C281.716 185.73 282.211 187.417 283.444 188.37C286.29 190.563 291.921 194.054 298.798 193.954C300.056 193.936 301.114 192.861 301.202 191.544L303.1 163.219L287.532 167.211Z" fill="#FFA5A1"/>
<path d="M308.132 148.637C308.132 148.637 310.199 161.984 308.896 168.362C307.594 174.74 307.878 179.174 300.278 178.526C292.677 177.878 287.506 172.653 285.833 165.516C285.833 165.516 283.172 154.501 285.375 150.857C287.579 147.213 308.132 148.637 308.132 148.637Z" fill="#FFBEBC"/>
<path d="M289.498 161.676L290.417 161.917C290.417 161.917 288.671 153.157 292.356 152.666C296.041 152.176 309.923 152.952 313.995 149.023C317.925 145.237 317.006 138.772 313.777 136.182C313.676 136.107 313.55 136.072 313.425 136.084C313.3 136.096 313.184 136.154 313.099 136.247L312.646 136.742C312.577 136.817 312.488 136.869 312.389 136.893C312.29 136.916 312.186 136.909 312.091 136.874C311.996 136.838 311.913 136.774 311.854 136.692C311.795 136.609 311.762 136.51 311.76 136.408C311.758 136.311 311.728 136.216 311.674 136.135C311.62 136.053 311.543 135.99 311.453 135.951C311.364 135.912 311.265 135.9 311.168 135.916C311.072 135.932 310.982 135.975 310.91 136.041C309.673 137.211 306.72 138.864 300.092 138.371C290.689 137.669 283.807 139.741 282.033 145.901C282.009 145.989 281.961 146.068 281.895 146.132C281.829 146.195 281.747 146.239 281.658 146.26C281.569 146.281 281.476 146.277 281.389 146.25C281.302 146.222 281.224 146.172 281.163 146.104C280.607 145.527 279.598 145.059 277.868 145.878C274.862 147.301 274.459 152.937 278.695 158.773C278.744 158.837 278.776 158.91 278.791 158.989C278.805 159.067 278.801 159.148 278.779 159.225C278.756 159.301 278.716 159.371 278.662 159.429C278.607 159.488 278.54 159.532 278.465 159.559C277.318 159.939 275.461 161.072 278.71 164.085C282.035 167.168 284.382 167.543 285.303 167.55C285.422 167.552 285.538 167.512 285.63 167.438C285.723 167.364 285.787 167.26 285.812 167.143L286.915 161.562C286.928 161.494 286.956 161.429 286.995 161.372C287.035 161.314 287.086 161.266 287.145 161.229C287.204 161.192 287.27 161.167 287.339 161.157C287.407 161.146 287.478 161.15 287.545 161.168L289.498 161.676Z" fill="#1A1A1A"/>
<path d="M260.67 239.518C259.563 231.701 267.658 220.211 271.005 215.851C271.965 214.607 272.494 213.085 272.513 211.514C272.61 200.443 267.961 193.334 260.514 188.56C260.514 188.56 233.485 220.051 240.367 244.274C241.05 246.727 242.187 249.03 243.72 251.064C244.804 241.93 255.353 239.94 260.67 239.518Z" fill="white"/>
<path d="M261.174 236.495L260.144 236.377C261.017 228.711 267.743 219.249 270.595 215.535L271.416 216.167C268.617 219.811 262.017 229.087 261.174 236.495Z" fill="#EDEDED"/>
<path d="M260.881 240.599C260.788 240.243 260.718 239.881 260.67 239.515C255.353 239.937 244.804 241.928 243.72 251.054C255.782 267.008 289.031 261.252 289.031 261.252V255.044C289.031 255.044 263.496 250.303 260.881 240.599Z" fill="#FFA5A1"/>
<path d="M285.835 259.541C285.835 259.541 290.744 247.957 299.388 252.067C308.032 256.176 307.358 258.863 307.358 258.863L285.835 259.541Z" fill="#FFA5A1"/>
<path d="M284.732 261.939C284.765 262.36 284.959 262.753 285.275 263.035C285.591 263.317 286.003 263.467 286.426 263.452L331.252 261.888C331.591 261.876 331.919 261.759 332.19 261.553C332.46 261.346 332.66 261.061 332.761 260.736L334.062 256.573C334.137 256.334 334.156 256.081 334.118 255.834C334.08 255.587 333.986 255.351 333.844 255.146C333.701 254.941 333.513 254.771 333.294 254.649C333.076 254.527 332.832 254.457 332.582 254.444L316.236 253.575C316.088 253.568 315.94 253.581 315.795 253.612L286.014 260.208C285.627 260.293 285.285 260.515 285.049 260.833C284.813 261.151 284.701 261.544 284.732 261.939Z" fill="#1A1A1A"/>
<path d="M306.171 198.446C305.222 206.211 300.946 237.759 299.722 246.773C299.682 247.071 299.707 247.374 299.796 247.661C299.885 247.948 300.035 248.212 300.236 248.436C300.437 248.659 300.685 248.836 300.961 248.954C301.237 249.072 301.536 249.128 301.837 249.119L374.355 247.044C374.817 247.031 375.261 246.864 375.617 246.569C375.973 246.274 376.221 245.869 376.32 245.418L387.6 194.614C387.67 194.301 387.666 193.976 387.589 193.665C387.512 193.353 387.363 193.064 387.156 192.82C386.948 192.576 386.686 192.383 386.391 192.258C386.096 192.132 385.776 192.076 385.456 192.095L308.108 196.626C307.622 196.654 307.163 196.852 306.809 197.185C306.455 197.517 306.229 197.964 306.171 198.446Z" fill="#1A1A1A"/>
<path d="M335.322 230.306L324.604 260.727L349.525 261.256L351.601 230.491C351.624 230.151 351.574 229.81 351.454 229.491C351.334 229.171 351.148 228.882 350.907 228.64C350.666 228.399 350.376 228.212 350.057 228.092C349.738 227.972 349.397 227.922 349.057 227.944L337.418 228.718C336.952 228.748 336.504 228.915 336.131 229.197C335.759 229.48 335.477 229.865 335.322 230.306Z" fill="#1A1A1A"/>
<path d="M314.501 261.16C314.438 261.355 314.421 261.561 314.452 261.763C314.484 261.965 314.563 262.157 314.683 262.323C314.803 262.488 314.96 262.623 315.142 262.716C315.325 262.809 315.526 262.857 315.731 262.857H354.763C354.933 262.857 355.101 262.824 355.258 262.759C355.415 262.694 355.558 262.598 355.678 262.478C355.798 262.358 355.893 262.215 355.958 262.058C356.024 261.901 356.057 261.733 356.057 261.563V259.889C356.057 259.714 356.021 259.541 355.953 259.38C355.884 259.219 355.783 259.073 355.656 258.953C355.529 258.832 355.38 258.738 355.215 258.676C355.051 258.615 354.877 258.588 354.702 258.596L315.67 260.27C315.408 260.282 315.156 260.374 314.947 260.533C314.738 260.692 314.583 260.911 314.501 261.16Z" fill="#1A1A1A"/>
<path d="M305.076 230.541L304.561 230.476L308.125 202.377C308.232 201.531 308.631 200.75 309.254 200.167C309.876 199.584 310.681 199.237 311.532 199.185L378.373 195.149L378.404 195.667L311.563 199.703C310.833 199.747 310.142 200.045 309.608 200.545C309.074 201.044 308.731 201.715 308.639 202.44L305.076 230.541Z" fill="white"/>
<path d="M303.544 238.479L302.777 244.563L303.292 244.628L304.059 238.544L303.544 238.479Z" fill="white"/>
<path d="M301.013 171.5C292.96 172.108 288.273 163.774 288.231 163.697L288.773 163.4C288.818 163.48 293.313 171.464 300.971 170.886L301.013 171.5Z" fill="white"/>
<path d="M304.295 171.189C304.295 171.302 304.273 171.415 304.229 171.52C304.186 171.624 304.122 171.72 304.042 171.8C303.961 171.88 303.866 171.944 303.761 171.987C303.656 172.03 303.544 172.052 303.43 172.052H301.126C300.897 172.052 300.678 171.961 300.515 171.799C300.353 171.638 300.262 171.418 300.262 171.189C300.262 171.075 300.284 170.963 300.328 170.858C300.371 170.753 300.435 170.658 300.515 170.577C300.595 170.497 300.691 170.433 300.795 170.39C300.9 170.347 301.013 170.324 301.126 170.324H303.43C303.66 170.324 303.88 170.415 304.042 170.577C304.204 170.74 304.295 170.96 304.295 171.189Z" fill="white"/>
<path d="M288.786 154.465C288.786 154.465 291.677 139.639 300.192 138.239C300.192 138.239 297.781 137.02 295.267 138.342C292.753 139.665 286.398 146.881 286.657 154.829C288.385 155.447 288.786 154.465 288.786 154.465Z" fill="white"/>
<path d="M287.307 153.757C282.88 154.656 283.424 160.255 283.424 160.255C283.105 164.32 284.291 166.332 285.81 167.291C286.321 167.613 286.906 167.797 287.509 167.826C288.112 167.855 288.712 167.727 289.251 167.455C289.79 167.183 290.249 166.776 290.584 166.274C290.92 165.772 291.119 165.192 291.164 164.59C291.246 163.484 291.34 162.433 291.421 162.06C291.62 161.154 291.733 152.859 287.307 153.757Z" fill="white"/>
<path d="M287.713 155.174C287.267 155.096 286.808 155.17 286.41 155.385C286.012 155.6 285.698 155.943 285.519 156.358C282.872 162.488 286.122 166.475 287.716 166.558C289.398 166.646 289.362 158.562 289.006 156.486C288.857 155.617 288.304 155.278 287.713 155.174Z" fill="#EDEDED"/>
<path d="M159.009 319.959L159.503 329.064C159.503 329.064 156.674 359.536 156.082 373.027C155.99 375.141 156.535 377.234 157.646 379.035L163.436 388.436L148.721 379.753L148.429 377.957L150.837 374.646L147.682 336.864C147.496 334.644 147.954 332.418 149 330.452L152.044 324.734L159.009 319.959Z" fill="#FFA5A1"/>
<path d="M164.405 389.798H159.709C159.275 389.799 158.848 389.7 158.459 389.509C158.07 389.318 157.73 389.041 157.466 388.698C156.001 386.8 152.969 383.085 151.519 382.988C149.566 382.852 149.815 389.798 149.815 389.798H148.721L147.335 381.175C147.165 380.116 147.332 379.031 147.813 378.073C148.294 377.115 149.064 376.333 150.014 375.837C150.014 375.837 150.46 379.138 152.881 380.597C155.301 382.057 162.727 387.285 162.727 387.285C163.362 387.211 164.005 387.228 164.635 387.337C166.118 387.604 165.91 389.798 164.405 389.798Z" fill="#1A1A1A"/>
<path d="M146.356 319.959L147.351 325.809C147.351 325.809 144.021 359.536 143.429 373.027C143.337 375.141 143.882 377.234 144.993 379.035L150.784 388.436L136.068 379.753L135.776 377.957L138.18 374.646L135.025 336.864C134.839 334.644 135.297 332.418 136.345 330.452L139.387 324.734L146.356 319.959Z" fill="#FFA5A1"/>
<path d="M151.752 389.798H147.056C146.623 389.799 146.195 389.7 145.806 389.509C145.417 389.318 145.077 389.041 144.813 388.698C143.349 386.8 140.316 383.085 138.866 382.988C136.913 382.852 137.162 389.798 137.162 389.798H136.069L134.682 381.175C134.512 380.116 134.68 379.03 135.162 378.072C135.644 377.114 136.416 376.332 137.367 375.837C137.367 375.837 137.813 379.138 140.233 380.597C142.654 382.057 150.079 387.285 150.079 387.285C150.715 387.211 151.358 387.228 151.989 387.337C153.465 387.604 153.258 389.798 151.752 389.798Z" fill="#1A1A1A"/>
<path d="M155.967 223.352C155.967 223.352 158.111 223.336 161.724 225.668C165.337 228.001 171.85 234.562 171.85 234.562L165.276 216.322L170.101 215.08C170.101 215.08 182.252 237.137 179.97 240.999C177.688 244.862 165.983 243.801 160.017 233.667C156.906 226.235 155.967 223.352 155.967 223.352Z" fill="#FFA5A1"/>
<path d="M129.673 229.7C129.121 230.129 138.805 250.65 138.825 267.358C138.825 267.358 148.115 269.38 155.861 265.697C155.861 265.697 163.442 243.257 163.166 240.624C162.853 237.633 156.838 223.434 156.838 223.434C156.838 223.434 143.272 219.147 129.673 229.7Z" fill="#1A1A1A"/>
<path d="M161.721 251.558C161.509 251.207 161.22 250.908 160.876 250.683C160.533 250.459 160.143 250.314 159.736 250.261L151.685 249.205C151.685 249.205 151.334 248.297 152.821 247.237C154.308 246.178 153.447 244.425 153.447 244.425C153.447 244.425 151.456 246.035 148.568 248.518C146.92 249.939 146.285 251.86 146.042 253.245L148.556 255.231C153.4 255.425 158.016 254.511 162.467 252.791L161.721 251.558Z" fill="#FFA5A1"/>
<path d="M129.673 229.7C129.673 229.7 114.319 243.437 120.728 260.244C127.137 277.051 149.887 254.248 149.887 254.248L148.164 250.25C148.164 250.25 132.972 259.243 129.182 255.849C126.403 253.359 131.314 244.587 134.129 240.087C134.634 239.283 134.874 238.341 134.817 237.393C134.759 236.445 134.406 235.539 133.808 234.801L129.673 229.7Z" fill="#FFA5A1"/>
<path d="M162.658 216.783C162.658 216.783 160.983 215.87 160.347 214.682C159.711 213.495 157.945 212.281 158.78 211.929C159.615 211.576 159.7 211.376 160.77 212.606C161.839 213.837 166.856 217.683 162.658 216.783Z" fill="#FFA5A1"/>
<path d="M162.99 204.761C162.918 204.658 162.826 204.573 162.718 204.51C162.61 204.448 162.49 204.41 162.366 204.399C162.242 204.388 162.117 204.404 162 204.447C161.882 204.49 161.776 204.558 161.689 204.647L157.254 209.119C157.171 209.203 157.122 209.315 157.116 209.433C157.11 209.551 157.147 209.667 157.222 209.759L167.291 222.273C167.313 222.3 167.339 222.323 167.37 222.339C167.4 222.356 167.433 222.366 167.467 222.37C167.536 222.376 167.604 222.355 167.659 222.313L171.834 218.888C171.999 218.753 172.107 218.561 172.137 218.349C172.167 218.138 172.116 217.923 171.994 217.748L162.99 204.761Z" fill="white"/>
<path d="M162.033 206.464C161.991 206.407 161.938 206.359 161.876 206.324C161.814 206.29 161.745 206.27 161.675 206.265C161.604 206.26 161.533 206.271 161.467 206.297C161.401 206.322 161.342 206.362 161.293 206.414L158.425 209.433C158.345 209.518 158.298 209.629 158.293 209.745C158.288 209.862 158.326 209.976 158.399 210.066L166.985 220.717C167.007 220.745 167.035 220.768 167.067 220.784C167.098 220.801 167.132 220.811 167.168 220.813C167.203 220.816 167.239 220.812 167.272 220.8C167.306 220.788 167.337 220.77 167.363 220.746L170.152 218.187C170.199 218.144 170.228 218.085 170.234 218.022C170.241 217.959 170.224 217.896 170.188 217.844L162.033 206.464Z" fill="#1A1A1A"/>
<path d="M166.17 206.88C165.333 207.062 162.544 205.607 162.77 206.525C162.996 207.443 164.017 208.249 164.113 208.639C164.209 209.03 164.61 211.282 165.468 211.892C166.084 212.334 167.637 213.907 168.45 214.75C168.582 214.884 168.756 214.969 168.942 214.99C169.129 215.011 169.317 214.968 169.476 214.867C169.635 214.766 169.754 214.614 169.814 214.436C169.874 214.258 169.871 214.064 169.805 213.888C169.758 213.743 167.008 206.698 166.17 206.88Z" fill="#FFA5A1"/>
<path d="M146.97 211.094C146.97 211.094 145.352 219.505 144.093 223.199C143.914 223.723 143.936 224.295 144.154 224.804C144.371 225.313 144.77 225.724 145.272 225.957C146.459 226.499 148.254 226.884 150.747 226.27C151.257 226.143 151.71 225.85 152.035 225.437C152.361 225.025 152.54 224.516 152.546 223.991L152.681 214.825L146.97 211.094Z" fill="#FFA5A1"/>
<path d="M157.512 201.795C157.512 201.795 160.131 205.167 159.687 211.434C159.242 217.701 156.216 219.014 153.851 218.102C151.486 217.19 148.24 215.309 146.572 210.165C144.904 205.022 154.012 197.579 157.512 201.795Z" fill="#FFBEBC"/>
<path d="M150.377 208.821C150.377 208.821 151.853 200.115 158.334 203.633L159.255 205.54C159.255 205.54 163.869 202.839 161.071 198.749C158.272 194.658 151.535 193.13 146.962 197.424C142.389 201.719 141.466 205.631 142.81 209.665C144.153 213.7 146.875 211.5 146.875 211.5C146.875 211.5 146.69 208.328 147.999 207.42C149.308 206.512 149.864 208.803 149.864 208.803L150.377 208.821Z" fill="#FFC800"/>
<path d="M149.209 209.226C149.209 209.226 149.994 204.754 147.414 205.265C144.833 205.776 146.899 209.512 147.781 210.843L149.209 209.226Z" fill="#FFBEBC"/>
<path d="M145.522 200.883C146.901 200.341 147.022 198.434 145.779 197.631C141.772 195.019 134.891 192.752 127.978 200.732C120.189 209.727 115.826 214.013 113.341 213.989C111.707 213.974 110.766 215.828 111.85 217.051C112.652 217.953 114.018 218.761 116.281 219.235C133.737 222.885 137.427 204.052 145.522 200.883Z" fill="#FFC800"/>
<path d="M130.445 281.485C131.246 275.036 138.825 267.358 138.825 267.358C150.875 269.159 156.553 265.004 156.553 265.004C156.553 265.004 159.084 273.503 159.118 280.149C159.152 286.795 160.432 329.592 160.432 329.592C148.641 334.535 133.839 331.808 133.839 331.808C134.75 316.445 129.642 287.937 130.445 281.485Z" fill="#909294"/>
</svg>
