<svg width="98" height="30" viewBox="0 0 98 30" fill="none" xmlns="http://www.w3.org/2000/svg">
<g clip-path="url(#clip0_207_125)">
<path d="M54.8156 7.43885C54.8156 6.58519 54.7559 6.03641 54.6665 5.7925C54.577 5.5486 54.3981 5.42665 54.0998 5.42665C53.8612 5.42665 53.6823 5.51811 53.5332 5.73153C53.4139 5.91446 53.3542 6.49372 53.3542 7.43885V16.0669C53.3542 17.134 53.3841 17.8047 53.4735 18.0486C53.563 18.2925 53.7419 18.4145 54.07 18.4145C54.3682 18.4145 54.577 18.262 54.6665 17.9876C54.7559 17.7132 54.7858 17.012 54.7858 15.9145V7.43885H54.8156ZM59.5277 13.4754C59.5277 15.3352 59.4979 16.6462 59.4084 17.4084C59.3189 18.1706 59.0505 18.8718 58.6032 19.512C58.1558 20.1523 57.5593 20.6401 56.7839 20.9754C56.0085 21.3108 55.1138 21.4937 54.0998 21.4937C53.1455 21.4937 52.2806 21.3413 51.5052 21.0059C50.7298 20.6706 50.1035 20.2132 49.6561 19.5425C49.1789 18.9023 48.9105 18.201 48.8211 17.4388C48.7316 16.6767 48.7018 15.3352 48.7018 13.4449V10.3352C48.7018 8.47543 48.7316 7.16446 48.8211 6.40226C48.9105 5.64007 49.1789 4.93885 49.6263 4.2986C50.0736 3.65836 50.6701 3.17055 51.4455 2.83519C52.2209 2.49982 53.0858 2.31689 54.1296 2.31689C55.084 2.31689 55.9489 2.46933 56.7243 2.8047C57.4997 3.14007 58.126 3.59738 58.5733 4.26811C59.0505 4.90836 59.3189 5.60958 59.4084 6.37177C59.4979 7.13397 59.5277 8.47543 59.5277 10.3657V13.4754ZM47.1509 10.7315H42.4388V7.53031C42.4388 6.58519 42.3792 6.00592 42.2897 5.7925C42.2002 5.5486 41.9617 5.45714 41.6336 5.45714C41.2459 5.45714 41.0073 5.60958 40.9178 5.88397C40.8284 6.15836 40.7687 6.76811 40.7687 7.71324V16.2803C40.7687 17.1645 40.8284 17.7742 40.9178 18.0486C41.0073 18.323 41.2459 18.4449 41.6038 18.4449C41.9617 18.4449 42.1704 18.323 42.2897 18.0486C42.409 17.7742 42.4388 17.134 42.4388 16.1279V13.7193H47.1509V14.451C47.1509 16.3718 47.0317 17.7132 46.7632 18.5059C46.4948 19.2986 45.9282 19.9998 45.0037 20.6096C44.1089 21.2193 42.9757 21.5242 41.6634 21.5242C40.2915 21.5242 39.1582 21.2803 38.2635 20.762C37.3688 20.2437 36.7724 19.5425 36.504 18.6584C36.2057 17.7437 36.0566 16.4023 36.0566 14.6035V9.20714C36.0566 7.86568 36.1163 6.89007 36.1759 6.21933C36.2654 5.5486 36.5338 4.90836 36.9811 4.2986C37.4285 3.68885 38.025 3.20104 38.8302 2.83519C39.6056 2.46933 40.5301 2.31689 41.5441 2.31689C42.916 2.31689 44.0791 2.59128 44.9738 3.14007C45.8685 3.68885 46.465 4.35958 46.7334 5.18275C47.0018 6.00592 47.1509 7.25592 47.1509 8.99372V10.7315ZM34.297 8.26202H29.9428V6.89007C29.9428 6.24982 29.8831 5.85348 29.7638 5.67055C29.6446 5.48763 29.4656 5.39616 29.227 5.39616C28.9586 5.39616 28.72 5.51811 28.6007 5.76202C28.4516 6.00592 28.392 6.34128 28.392 6.82909C28.392 7.43885 28.4814 7.89616 28.6306 8.23153C28.7797 8.53641 29.227 8.90226 29.9726 9.35958C32.0603 10.6401 33.3725 11.6767 33.9093 12.4998C34.4461 13.323 34.7145 14.634 34.7145 16.4327C34.7145 17.7437 34.5654 18.7193 34.2672 19.3291C33.969 19.9388 33.4023 20.4571 32.5374 20.884C31.6726 21.3108 30.6884 21.5242 29.5253 21.5242C28.2727 21.5242 27.199 21.2803 26.3043 20.7925C25.4096 20.3047 24.843 19.6949 24.5746 18.9327C24.3061 18.1706 24.157 17.1035 24.157 15.7315V14.512H28.5113V16.7681C28.5113 17.4693 28.5709 17.8962 28.6902 18.1096C28.8095 18.323 29.0183 18.4145 29.3463 18.4145C29.6744 18.4145 29.8831 18.2925 30.0323 18.0486C30.1814 17.8047 30.2708 17.4388 30.2708 16.951C30.2708 15.8535 30.1217 15.1523 29.8235 14.8169C29.5253 14.4815 28.7797 13.9327 27.6166 13.1401C26.4534 12.3474 25.678 11.7681 25.2903 11.4327C24.9026 11.0669 24.6044 10.5791 24.336 9.93885C24.0974 9.2986 23.9483 8.50592 23.9483 7.53031C23.9483 6.12787 24.1272 5.09128 24.4851 4.42055C24.843 3.78031 25.4096 3.26202 26.185 2.89616C26.9604 2.53031 27.9148 2.34738 29.0481 2.34738C30.2708 2.34738 31.3147 2.5608 32.1497 2.95714C33.0146 3.35348 33.5813 3.87177 33.8497 4.48153C34.1181 5.09128 34.2672 6.12787 34.2672 7.59128V8.26202H34.297ZM18.4011 14.5425C18.1625 12.4388 17.9537 9.84738 17.6853 6.76811C17.2082 10.3047 16.9397 12.8962 16.7906 14.5425H18.4011ZM20.8764 2.68275L23.5606 21.1279H18.759L18.4906 17.8047H16.7906L16.5222 21.1279H11.7206L14.1065 2.68275C14.1065 2.68275 20.8764 2.68275 20.8764 2.68275ZM10.9154 8.26202H6.56117V6.89007C6.56117 6.24982 6.50153 5.85348 6.38223 5.67055C6.26294 5.48763 6.084 5.39616 5.84541 5.39616C5.577 5.39616 5.33841 5.51811 5.21912 5.76202C5.07 6.00592 5.01035 6.34128 5.01035 6.82909C5.01035 7.43885 5.09982 7.89616 5.24894 8.23153C5.39806 8.53641 5.84541 8.90226 6.591 9.35958C8.67864 10.6401 9.99087 11.6767 10.5277 12.4998C11.0645 13.323 11.3329 14.634 11.3329 16.4327C11.3329 17.7437 11.1838 18.7193 10.8856 19.3291C10.5873 19.9388 10.0207 20.4571 9.15582 20.884C8.29093 21.3108 7.30676 21.5242 6.14364 21.5242C4.89106 21.5242 3.81741 21.2803 2.92271 20.7925C2.028 20.3047 1.46136 19.6949 1.19294 18.9327C0.924532 18.1706 0.775415 17.1035 0.775415 15.7315V14.512H5.12964V16.7681C5.12964 17.4693 5.18929 17.8962 5.30859 18.1096C5.42788 18.323 5.63664 18.4145 5.9647 18.4145C6.29276 18.4145 6.50152 18.2925 6.65064 18.0486C6.79976 17.8047 6.88923 17.4388 6.88923 16.951C6.88923 15.8535 6.74011 15.1523 6.44188 14.8169C6.14364 14.4815 5.39806 13.9327 4.23494 13.1401C3.07182 12.3474 2.29641 11.7681 1.90871 11.4327C1.521 11.0669 1.22277 10.5791 0.954356 9.93885C0.715768 9.2986 0.56665 8.50592 0.56665 7.53031C0.56665 6.12787 0.745591 5.09128 1.10347 4.42055C1.46136 3.78031 2.028 3.26202 2.80341 2.89616C3.57882 2.53031 4.53317 2.34738 5.66647 2.34738C6.88923 2.34738 7.93305 2.5608 8.76811 2.95714C9.63299 3.35348 10.1996 3.87177 10.468 4.48153C10.7365 5.09128 10.8856 6.12787 10.8856 7.59128V8.26202H10.9154Z" fill="white"/>
<path d="M96.1211 26.5549C96.1211 26.6159 96.1211 26.6464 96.1211 26.7074C96.1211 28.4452 94.7194 29.8781 93.0195 29.8781H3.10164C1.4017 29.8781 0 28.4452 0 26.7074C0 26.6464 0 26.6159 0 26.5549H96.1211ZM3.10164 23.5366H93.0195C94.2124 23.5366 95.2562 24.2378 95.7931 25.2439H0.357882C0.864881 24.2378 1.9087 23.5366 3.10164 23.5366Z" fill="white"/>
<path d="M73.1272 1.43293H80.9111H83.118H89.9178C92.3633 1.43293 96.8368 1.46341 98 0C97.3737 2.7439 94.3615 5.03049 90.902 5.09146H83.118H80.9111H74.1113C71.6658 5.09146 67.1625 6.18902 66.0292 7.68293C66.5958 4.17683 69.6676 1.4939 73.1272 1.43293Z" fill="white"/>
<path d="M72.0536 8.3841H79.8375H82.0444H88.8442C91.2897 8.3841 95.7632 8.41459 96.9264 6.95117C96.3001 9.69507 93.2879 11.9817 89.8284 12.0426H82.0444H79.8375H73.0377C70.5922 12.0426 66.0889 13.1402 64.9556 14.6341C65.5222 11.128 68.594 8.44507 72.0536 8.3841Z" fill="white"/>
<path d="M70.95 15.3353H78.734H80.9409H87.7407C90.1862 15.3353 94.6597 15.3658 95.8228 13.9023C95.1965 16.6462 92.1844 18.9328 88.7248 18.9938H80.9409H78.734H71.9342C69.4887 18.9938 64.9853 20.0914 63.8521 21.5853C64.4485 18.0792 67.4905 15.3962 70.95 15.3353Z" fill="white"/>
</g>
<defs>
<clipPath id="clip0_207_125">
<rect width="98" height="30" fill="white"/>
</clipPath>
</defs>
</svg>
