<svg width="160" height="39" viewBox="0 0 160 39" fill="none" xmlns="http://www.w3.org/2000/svg">
<g clip-path="url(#clip0_206_91)">
<path d="M26.7918 38.9408L40.1899 32.6521C41.0068 32.2695 41.6664 31.6273 42.0608 30.8307C42.4552 30.0342 42.5609 29.1304 42.3607 28.2674L35.9048 0.462365C35.8724 0.332185 35.7961 0.216421 35.6882 0.13364C35.5804 0.0508589 35.4472 0.00585937 35.31 0.00585938C35.1728 0.00585937 35.0396 0.0508589 34.9318 0.13364C34.8239 0.216421 34.7476 0.332185 34.7152 0.462365L25.9322 38.275C25.9066 38.3843 25.9132 38.4984 25.9512 38.6042C25.9892 38.71 26.0571 38.8031 26.147 38.8727C26.237 38.9424 26.3453 38.9857 26.4594 38.9978C26.5735 39.0098 26.6887 38.9901 26.7918 38.9408Z" fill="#FDFDFD"/>
<path d="M11.8525 34.0851L21.812 29.3612C22.4253 29.0741 22.9206 28.5923 23.2172 27.9946C23.5137 27.3968 23.5938 26.7185 23.4445 26.0706L18.6253 5.21995C18.6253 5.10748 18.5796 4.99962 18.4982 4.9201C18.4167 4.84057 18.3063 4.7959 18.1912 4.7959C18.076 4.7959 17.9656 4.84057 17.8842 4.9201C17.8028 4.99962 17.757 5.10748 17.757 5.21995L11.2447 33.5847C11.2295 33.6624 11.2357 33.7426 11.2628 33.8171C11.2899 33.8916 11.3368 33.9577 11.3986 34.0087C11.4605 34.0596 11.5352 34.0935 11.6149 34.107C11.6947 34.1204 11.7767 34.1129 11.8525 34.0851Z" fill="white"/>
<path d="M4.99696 9.9823C4.9826 9.91565 4.94521 9.85584 4.89106 9.81292C4.83691 9.77001 4.7693 9.74658 4.69956 9.74658C4.62982 9.74658 4.56221 9.77001 4.50806 9.81292C4.45391 9.85584 4.41652 9.91565 4.40216 9.9823L-0.000192414 28.8865C-0.0141622 28.9418 -0.011532 28.9999 0.00738425 29.0538C0.0263005 29.1077 0.0607031 29.1552 0.106483 29.1905C0.152264 29.2258 0.207487 29.2475 0.265557 29.253C0.323628 29.2585 0.382091 29.2476 0.433965 29.2215L7.13301 26.075C7.54661 25.8869 7.88238 25.567 8.08516 25.1678C8.28793 24.7686 8.34564 24.3139 8.2488 23.8785L4.99696 9.9823Z" fill="white"/>
<path d="M147.249 21.3638L147.323 8.84152L158.177 8.82031C158.453 8.84824 158.72 8.93435 158.959 9.07271C159.198 9.21106 159.404 9.39838 159.562 9.62177C159.835 10.0699 159.985 10.58 159.996 11.1017L159.931 19.8117C159.875 20.1168 159.737 20.402 159.531 20.6376C159.325 20.8732 159.058 21.0507 158.758 21.1517L157.812 21.368L147.249 21.3638ZM156.77 18.8449V11.4155H150.583V18.8449H156.77Z" fill="white"/>
<path d="M69.6605 8.82031V21.3553H81.9211V18.8491H73.0166V16.3387H80.5622V13.8411H73.0166V11.3477H81.9211V8.82031H69.6605Z" fill="white"/>
<path d="M103.911 8.82031H100.516V21.3553H112.416V18.9848H103.911V8.82031Z" fill="white"/>
<path d="M134.558 8.85424H130.816V21.3553H134.189V13.0396L141.106 21.3553H144.9V8.82031H141.548V17.4201L134.558 8.85424Z" fill="white"/>
<path d="M58.0772 13.8834H65.4579C65.7016 13.8817 65.9433 13.9272 66.169 14.0173C66.3947 14.1074 66.5998 14.2402 66.7726 14.4082C66.9454 14.5762 67.0823 14.7759 67.1756 14.9959C67.2689 15.2159 67.3167 15.4517 67.3161 15.6898V19.5699C67.3149 20.0453 67.1211 20.5009 66.7769 20.837C66.4328 21.1732 65.9663 21.3625 65.4796 21.3636H56.5707C56.084 21.3625 55.6175 21.1732 55.2734 20.837C54.9292 20.5009 54.7353 20.0453 54.7342 19.5699V17.8101H58.0946V18.9253H64.0121V16.4277L56.5837 16.4616C56.097 16.4605 55.6305 16.2711 55.2864 15.935C54.9422 15.5988 54.7484 15.1432 54.7472 14.6679V10.6012C54.7484 10.1254 54.9421 9.66939 55.2861 9.33257C55.6301 8.99574 56.0966 8.80546 56.5837 8.80322H65.4926C65.9775 8.80879 66.4406 9.00054 66.7818 9.33701C67.123 9.67347 67.315 10.1276 67.3161 10.6012V12.2211H63.9991V11.339H58.0946V13.8834" fill="white"/>
<path d="M93.4958 8.82031L98.901 21.3383H95.7447L94.3814 18.5523H87.8951L86.5492 21.3595H83.2149L89.0847 8.82031H93.4958ZM91.325 11.3392L88.9197 16.3345H93.5435L91.325 11.3392Z" fill="white"/>
<path d="M123.804 8.82031L129.214 21.3383H126.058L124.694 18.5523H118.208L116.862 21.3595H113.528L119.393 8.82031H123.804ZM121.634 11.3392L119.224 16.3345H123.852L121.634 11.3392Z" fill="white"/>
<path d="M65.6359 30.1754V24.3022H67.2336L69.2611 28.6912L71.2583 24.3022H72.7865V30.1754H71.471V26.7575L69.9471 30.1754H68.5404L66.9992 26.7787V30.1754H65.6359Z" fill="white"/>
<path d="M74.9269 30.1754H73.3726L76.0383 24.3022H77.9486L80.6317 30.1754H79.1035L78.5825 29.005H75.4436L74.9269 30.1754ZM78.0963 27.9024L76.9935 25.4133L75.9124 27.9024H78.0963Z" fill="white"/>
<path d="M81.2569 30.1754V24.3022H86.9921V25.4769H82.6419V26.643H86.3713V27.7879H82.6419V29.0007H87.0051V30.1754H81.2569Z" fill="white"/>
<path d="M88.134 30.1753V24.3022H92.9097C93.0462 24.2883 93.1842 24.3043 93.3136 24.349C93.4431 24.3937 93.5607 24.4659 93.6579 24.5605C93.7552 24.6551 93.8297 24.7697 93.876 24.8959C93.9223 25.0221 93.9393 25.1568 93.9256 25.2903V27.2621C93.9256 27.7158 93.4915 28.1102 92.7143 28.1102H92.5754L93.9734 30.1584H92.4321L91.108 28.1526H89.5146V30.1584L88.134 30.1753ZM89.5406 26.9992H92.5537V25.4768H89.5406V26.9992Z" fill="white"/>
<path d="M96.4654 30.1798H95.9879C95.8679 30.1944 95.7461 30.1829 95.6312 30.1462C95.5163 30.1095 95.4111 30.0485 95.3231 29.9674C95.2352 29.8864 95.1667 29.7874 95.1225 29.6775C95.0783 29.5676 95.0595 29.4495 95.0675 29.3317V28.5514H96.4654V29.0051H99.4221V27.8008H96.0183C95.8989 27.8096 95.7789 27.7942 95.6659 27.7555C95.553 27.7168 95.4494 27.6557 95.3617 27.5761C95.2741 27.4964 95.2042 27.4 95.1566 27.2927C95.1089 27.1854 95.0845 27.0697 95.0848 26.9527V25.2099C95.0836 25.0891 95.1074 24.9694 95.1548 24.8578C95.2022 24.7463 95.2722 24.6453 95.3606 24.5609C95.4491 24.4765 95.5541 24.4105 95.6693 24.3668C95.7846 24.3231 95.9077 24.3026 96.0313 24.3066H99.9387C100.061 24.306 100.182 24.3305 100.293 24.3786C100.405 24.4267 100.505 24.4972 100.587 24.5857C100.669 24.6741 100.731 24.7784 100.769 24.8918C100.807 25.0052 100.82 25.1252 100.807 25.2438V25.9477H99.4221V25.4813H96.4568V26.6389H99.8562C99.9846 26.6328 100.113 26.6531 100.233 26.6985C100.353 26.744 100.461 26.8136 100.552 26.9028C100.642 26.992 100.713 27.0988 100.758 27.2162C100.804 27.3337 100.823 27.4592 100.816 27.5846V29.2808C100.827 29.4032 100.81 29.5266 100.768 29.6422C100.725 29.7579 100.657 29.8632 100.569 29.9507C100.481 30.0382 100.374 30.1059 100.256 30.1491C100.138 30.1924 100.012 30.21 99.8866 30.201L96.4654 30.1798Z" fill="white"/>
<path d="M102.157 30.1798V24.3066H103.581V26.6559L106.295 24.3066H108.227L104.988 27.0333L108.34 30.1798H106.343L103.581 27.5082V30.1798H102.157Z" fill="white"/>
<path d="M58.6416 24.3022C58.6937 24.3022 58.7198 24.3362 58.7458 24.3786L61.5114 30.1075C61.5114 30.1075 61.5114 30.1075 61.5114 30.133C61.5121 30.1387 61.5114 30.1445 61.5095 30.15C61.5076 30.1554 61.5044 30.1604 61.5002 30.1644C61.496 30.1685 61.491 30.1716 61.4854 30.1735C61.4798 30.1754 61.4738 30.176 61.468 30.1754H60.6604C60.6374 30.1736 60.6154 30.1655 60.597 30.152C60.5785 30.1385 60.5644 30.1201 60.5562 30.099L59.879 28.653H56.3319L55.6589 30.1075C55.6511 30.128 55.6376 30.1459 55.62 30.1594C55.6024 30.1729 55.5813 30.1813 55.5591 30.1838H54.7733C54.7678 30.1839 54.7623 30.1828 54.7572 30.1806C54.7522 30.1784 54.7477 30.1752 54.744 30.1712C54.7403 30.1672 54.7375 30.1625 54.7358 30.1573C54.7341 30.1522 54.7336 30.1468 54.7342 30.1414C54.7323 30.1375 54.7313 30.1331 54.7313 30.1287C54.7313 30.1243 54.7323 30.12 54.7342 30.116L57.5085 24.3828C57.5345 24.3404 57.5606 24.3065 57.6083 24.3065L58.6416 24.3022ZM56.6836 27.9448H59.5533L58.125 24.9002L56.6836 27.9448Z" fill="white"/>
<path d="M117.392 25.3796C117.392 25.1422 117.305 25.0531 117.066 25.0531H114.136C113.893 25.0531 113.81 25.1422 113.81 25.3796V29.1028C113.81 29.3403 113.893 29.4336 114.136 29.4336H117.066C117.305 29.4336 117.392 29.3403 117.392 29.1028V28.4837C117.392 28.4679 117.398 28.4528 117.41 28.4417C117.421 28.4306 117.436 28.4243 117.453 28.4243H118.199C118.215 28.4243 118.231 28.4306 118.242 28.4417C118.254 28.4528 118.26 28.4679 118.26 28.4837V29.1028C118.278 29.2477 118.262 29.3947 118.214 29.5328C118.165 29.6709 118.085 29.7965 117.98 29.9001C117.875 30.0038 117.747 30.0828 117.606 30.1312C117.465 30.1797 117.315 30.1963 117.166 30.1799H114.031C113.883 30.1956 113.733 30.1785 113.593 30.1297C113.452 30.081 113.325 30.0019 113.22 29.8983C113.116 29.7948 113.036 29.6694 112.988 29.5317C112.94 29.3939 112.924 29.2473 112.942 29.1028V25.3796C112.924 25.2351 112.94 25.0885 112.988 24.9507C113.036 24.813 113.116 24.6877 113.22 24.5841C113.325 24.4806 113.452 24.4015 113.593 24.3527C113.733 24.304 113.883 24.2868 114.031 24.3025H117.166C117.314 24.2869 117.464 24.3041 117.605 24.3529C117.746 24.4016 117.873 24.4806 117.978 24.5841C118.083 24.6875 118.163 24.8128 118.212 24.9505C118.261 25.0882 118.277 25.2349 118.26 25.3796V25.9987C118.26 26.0145 118.254 26.0296 118.242 26.0407C118.231 26.0519 118.215 26.0581 118.199 26.0581H117.453C117.436 26.0581 117.421 26.0519 117.41 26.0407C117.398 26.0296 117.392 26.0145 117.392 25.9987V25.3796Z" fill="white"/>
<path d="M123.896 24.3025C124.044 24.2868 124.194 24.304 124.334 24.3527C124.474 24.4015 124.602 24.4806 124.707 24.5841C124.811 24.6877 124.891 24.813 124.939 24.9507C124.987 25.0885 125.003 25.2351 124.985 25.3796V29.1028C125.003 29.2473 124.987 29.3939 124.939 29.5317C124.891 29.6694 124.811 29.7948 124.707 29.8983C124.602 30.0019 124.474 30.081 124.334 30.1297C124.194 30.1785 124.044 30.1956 123.896 30.1799H120.466C120.319 30.1929 120.171 30.1737 120.033 30.1237C119.894 30.0738 119.769 29.9943 119.667 29.891C119.564 29.7878 119.486 29.6635 119.439 29.5271C119.391 29.3907 119.376 29.2458 119.393 29.1028V25.3796C119.375 25.2351 119.391 25.0885 119.439 24.9507C119.488 24.813 119.567 24.6877 119.672 24.5841C119.777 24.4806 119.904 24.4015 120.045 24.3527C120.185 24.304 120.335 24.2868 120.483 24.3025H123.896ZM120.262 29.1028C120.262 29.3403 120.348 29.4336 120.587 29.4336H123.809C124.047 29.4336 124.134 29.3403 124.134 29.1028V25.3796C124.134 25.1422 124.047 25.0531 123.809 25.0531H120.587C120.348 25.0531 120.262 25.1422 120.262 25.3796V29.1028Z" fill="white"/>
<path d="M132.418 25.4731L130.373 30.108C130.363 30.1344 130.343 30.1565 130.318 30.1704C130.292 30.1843 130.263 30.1892 130.234 30.1843H129.409C129.331 30.1843 129.296 30.1843 129.275 30.0995L127.23 25.4858V30.108C127.23 30.1237 127.223 30.1388 127.212 30.15C127.201 30.1611 127.185 30.1674 127.169 30.1674H126.422C126.406 30.1674 126.391 30.1611 126.379 30.15C126.368 30.1388 126.362 30.1237 126.362 30.108V24.3621C126.362 24.3464 126.368 24.3313 126.379 24.3201C126.391 24.309 126.406 24.3027 126.422 24.3027H127.512C127.547 24.3027 127.59 24.3027 127.599 24.3451L129.839 29.4083L132.04 24.3451C132.04 24.3197 132.092 24.3027 132.123 24.3027H133.208C133.224 24.3027 133.24 24.309 133.251 24.3201C133.263 24.3313 133.269 24.3464 133.269 24.3621V30.108C133.269 30.1237 133.263 30.1388 133.251 30.15C133.24 30.1611 133.224 30.1674 133.208 30.1674H132.461C132.448 30.1636 132.437 30.1557 132.429 30.145C132.421 30.1342 132.417 30.1212 132.418 30.108V25.4731Z" fill="white"/>
<path d="M135.57 27.9112C135.554 27.9112 135.538 27.9175 135.527 27.9286C135.516 27.9397 135.509 27.9548 135.509 27.9706V30.1078C135.509 30.1235 135.503 30.1386 135.491 30.1498C135.48 30.1609 135.465 30.1672 135.448 30.1672H134.702C134.686 30.1672 134.67 30.1609 134.659 30.1498C134.647 30.1386 134.641 30.1235 134.641 30.1078V24.3619C134.641 24.3462 134.647 24.3311 134.659 24.3199C134.67 24.3088 134.686 24.3025 134.702 24.3025H138.878C139.026 24.2868 139.176 24.304 139.317 24.3527C139.457 24.4015 139.585 24.4806 139.689 24.5841C139.794 24.6877 139.874 24.813 139.922 24.9507C139.97 25.0885 139.986 25.2351 139.968 25.3796V26.8384C139.968 27.5762 139.686 27.9112 138.878 27.9112H135.57ZM135.509 27.1479C135.509 27.1637 135.516 27.1788 135.527 27.1899C135.538 27.201 135.554 27.2073 135.57 27.2073H138.687C138.93 27.2073 139.1 27.0886 139.1 26.8553V25.3796C139.1 25.1422 138.93 25.0531 138.687 25.0531H135.57C135.562 25.0525 135.554 25.0535 135.547 25.056C135.54 25.0585 135.533 25.0625 135.527 25.0677C135.522 25.0729 135.517 25.0791 135.514 25.0861C135.511 25.0931 135.509 25.1006 135.509 25.1082V27.1479Z" fill="white"/>
<path d="M143.776 24.3027C143.828 24.3027 143.854 24.3367 143.88 24.3791L146.645 30.108C146.645 30.108 146.645 30.108 146.645 30.1334C146.646 30.1392 146.645 30.145 146.643 30.1504C146.642 30.1559 146.638 30.1609 146.634 30.1649C146.63 30.169 146.625 30.1721 146.619 30.174C146.614 30.1759 146.608 30.1765 146.602 30.1758H145.794C145.771 30.1741 145.749 30.166 145.731 30.1525C145.713 30.1389 145.698 30.1206 145.69 30.0995L145.009 28.6577H141.462L140.793 30.108C140.785 30.1291 140.771 30.1474 140.752 30.1609C140.734 30.1745 140.712 30.1826 140.689 30.1843H139.907C139.881 30.1843 139.868 30.1843 139.868 30.1419C139.866 30.1336 139.866 30.1248 139.868 30.1165L142.647 24.3833C142.673 24.3409 142.699 24.307 142.747 24.307L143.776 24.3027ZM141.818 27.9453H144.687L143.272 24.9006L141.818 27.9453Z" fill="white"/>
<path d="M153.123 24.3027C153.139 24.3027 153.155 24.309 153.166 24.3201C153.177 24.3313 153.184 24.3464 153.184 24.3621V30.108C153.184 30.1237 153.177 30.1388 153.166 30.15C153.155 30.1611 153.139 30.1674 153.123 30.1674H152.298C152.264 30.1667 152.231 30.1588 152.201 30.1441C152.171 30.1295 152.145 30.1084 152.124 30.0826L148.252 25.3077V30.108C148.252 30.1237 148.245 30.1388 148.234 30.15C148.222 30.1611 148.207 30.1674 148.191 30.1674H147.47C147.454 30.1674 147.439 30.1611 147.427 30.15C147.416 30.1388 147.409 30.1237 147.409 30.108V24.3621C147.409 24.3464 147.416 24.3313 147.427 24.3201C147.439 24.309 147.454 24.3027 147.47 24.3027H148.412C148.429 24.3027 148.446 24.3066 148.461 24.3139C148.476 24.3213 148.489 24.332 148.499 24.3451L152.341 29.0776V24.3621C152.341 24.3464 152.348 24.3313 152.359 24.3201C152.371 24.309 152.386 24.3027 152.402 24.3027H153.123Z" fill="white"/>
<path d="M154.017 24.3871C153.983 24.3362 154.017 24.3023 154.069 24.3023H154.868C154.9 24.3029 154.931 24.3119 154.958 24.3283C154.984 24.3447 155.006 24.368 155.02 24.3956L156.996 27.258L159.041 24.3617C159.05 24.3432 159.065 24.3278 159.084 24.3173C159.102 24.3068 159.123 24.3016 159.145 24.3023H159.952C160.004 24.3023 160.013 24.3278 159.987 24.3617L157.425 28.0382V30.1076C157.425 30.1233 157.419 30.1384 157.408 30.1496C157.396 30.1607 157.381 30.1669 157.365 30.1669H156.618C156.602 30.1669 156.586 30.1607 156.575 30.1496C156.564 30.1384 156.557 30.1233 156.557 30.1076V27.9873L154.017 24.3871Z" fill="white"/>
</g>
<defs>
<clipPath id="clip0_206_91">
<rect width="160" height="39" fill="white"/>
</clipPath>
</defs>
</svg>
