<svg width="149" height="31" viewBox="0 0 149 31" fill="none" xmlns="http://www.w3.org/2000/svg">
<g clip-path="url(#clip0_207_167)">
<path d="M30.961 15.499C30.961 24.0599 24.0292 31 15.4791 31C6.9314 31 0 24.0599 0 15.5C0 6.94012 6.93092 0 15.4796 0C24.0296 0.000484375 30.961 6.94012 30.961 15.499Z" fill="white"/>
<path d="M30.961 15.499C30.961 24.0599 24.0292 31 15.4791 31C6.9314 31 0 24.0599 0 15.5C0 6.94012 6.93092 0 15.4796 0C24.0296 0.000484375 30.961 6.94012 30.961 15.499Z" stroke="white"/>
<path d="M30.3345 15.3535C30.3703 23.9148 23.481 30.4374 15.362 30.3735C7.22358 30.3086 0.625488 23.6964 0.625488 15.461L30.3345 15.3535Z" fill="#FFFFFE"/>
<path d="M30.3345 15.3535C30.3703 23.9148 23.481 30.4374 15.362 30.3735C7.22358 30.3086 0.625488 23.6964 0.625488 15.461L30.3345 15.3535Z" stroke="white"/>
<path d="M5.92517 26.8877C6.9314 27.7349 8.15582 28.5346 9.40684 29.0776H21.5508C22.8575 28.5123 24.258 27.5721 25.0354 26.8877H5.92517Z" fill="#111111"/>
<path d="M5.92517 26.8877C6.9314 27.7349 8.15582 28.5346 9.40684 29.0776H21.5508C22.8575 28.5123 24.258 27.5721 25.0354 26.8877H5.92517Z" stroke="white"/>
<path d="M30.3225 16.1175C30.6738 7.4884 23.6974 0.519215 15.3234 0.627715C7.14481 0.734277 0.297105 7.5349 0.636225 16.1175H30.3225Z" fill="white"/>
<path d="M30.3225 16.1175C30.6738 7.4884 23.6974 0.519215 15.3234 0.627715C7.14481 0.734277 0.297105 7.5349 0.636225 16.1175H30.3225Z" stroke="white"/>
<path d="M0.837891 18.0083C1.04379 19.2489 1.39171 20.2213 1.52328 20.589C1.53205 20.6136 1.53987 20.6354 1.54661 20.6544H29.4149C29.5915 20.2049 29.9814 19.0584 30.1362 18.0083H0.837891ZM2.40287 22.5605C2.87068 23.427 3.39266 24.2272 4.18749 25.163H26.7779C27.7962 23.9724 28.3361 22.9746 28.5572 22.5605H2.40287Z" fill="#111111"/>
<path d="M0.837891 18.0083C1.04379 19.2489 1.39171 20.2213 1.52328 20.589C1.53205 20.6136 1.53987 20.6354 1.54661 20.6544H29.4149C29.5915 20.2049 29.9814 19.0584 30.1362 18.0083H0.837891ZM2.40287 22.5605C2.87068 23.427 3.39266 24.2272 4.18749 25.163H26.7779C27.7962 23.9724 28.3361 22.9746 28.5572 22.5605H2.40287Z" stroke="white"/>
<path d="M9.88578 8.65389C9.61632 7.77814 8.7199 6.34052 6.95222 6.34052C6.17481 6.34052 5.35241 6.71542 5.35241 7.52772C5.35241 8.20294 5.63783 8.47903 6.89417 9.00312L9.09192 9.91617C9.60084 10.1288 10.7382 10.8544 10.7382 12.217C10.7382 13.3165 9.78177 14.8311 7.02769 14.8311C6.12334 14.8311 5.52178 14.6584 5.08418 14.5327C4.83404 14.4608 4.63748 14.4044 4.46857 14.4044C4.15557 14.4044 4.08059 14.6291 4.02108 14.8311H3.58569V11.7413H4.02108C4.31957 13.0045 5.18599 14.4175 7.08816 14.4175C8.88293 14.4175 8.95937 13.1804 8.95937 13.0167C8.95937 12.1797 8.25597 11.8798 7.28264 11.4918L6.27785 11.0927C3.71921 10.0658 3.71921 8.99053 3.71921 8.41558C3.71921 7.65269 4.18363 5.95398 7.02817 5.95398C7.77587 5.95398 8.33076 6.11379 8.74752 6.23381C8.99813 6.30598 9.19879 6.36377 9.36138 6.36377C9.7063 6.36377 9.78177 6.17777 9.8553 5.93945H10.3038V8.65389H9.88578ZM18.8209 14.5928H15.2275V14.2799C15.8806 14.2557 16.0727 14.2169 16.0727 14.0169C16.0727 13.8546 15.988 13.704 15.8158 13.4671L13.8706 10.6287L13.5813 10.9421V13.393C13.5813 14.135 13.9465 14.1912 14.5059 14.2773L14.5227 14.2799V14.5928H10.9196V14.2799C11.5064 14.2048 11.8484 14.1554 11.8484 13.3925V7.34027C11.8484 6.52303 11.4206 6.49072 10.9333 6.45393L10.9196 6.45289V6.14047H14.5333V6.45289L14.5264 6.45347C13.9412 6.50252 13.5813 6.53269 13.5813 7.6028V10.2795L15.9024 7.55242L15.9032 7.55151C16.1904 7.21558 16.2865 7.10319 16.2865 6.86509C16.2865 6.57786 16.1472 6.50278 15.378 6.45289V6.14047H18.4673V6.45289C17.345 6.52845 16.8327 7.1407 15.0364 9.29133L18.297 14.0169C18.4586 14.2426 18.6066 14.2678 18.8209 14.2799V14.5928ZM22.3839 10.2795C24.0597 10.2669 24.7239 9.99125 24.7239 8.36617C24.7239 7.10341 24.2004 6.56575 23.1773 6.56575C22.4719 6.56575 22.4473 6.70283 22.3839 7.09033V10.2795ZM28.0023 14.5928H25.3794L22.7288 10.6795H22.3839V13.1295C22.3839 14.1298 22.6635 14.1675 23.5086 14.2799V14.5928H19.1823V14.2799C20.0521 14.1811 20.3085 14.1423 20.3085 13.1295V7.6028C20.3085 6.52991 19.9126 6.50283 19.1843 6.45303L19.1823 6.45289V6.14047H23.304C24.2004 6.14047 26.9148 6.23977 26.9148 8.3405C26.9148 9.86275 25.6223 10.2588 24.9251 10.4725L24.9038 10.479L27.4784 14.0421C27.656 14.2678 27.8504 14.2799 28.0023 14.2799V14.5928Z" fill="#111111"/>
<path d="M9.88578 8.65389C9.61632 7.77814 8.7199 6.34052 6.95222 6.34052C6.17481 6.34052 5.35241 6.71542 5.35241 7.52772C5.35241 8.20294 5.63783 8.47903 6.89417 9.00312L9.09192 9.91617C9.60084 10.1288 10.7382 10.8544 10.7382 12.217C10.7382 13.3165 9.78177 14.8311 7.02769 14.8311C6.12334 14.8311 5.52178 14.6584 5.08418 14.5327C4.83404 14.4608 4.63748 14.4044 4.46857 14.4044C4.15557 14.4044 4.08059 14.6291 4.02108 14.8311H3.58569V11.7413H4.02108C4.31957 13.0045 5.18599 14.4175 7.08816 14.4175C8.88293 14.4175 8.95937 13.1804 8.95937 13.0167C8.95937 12.1797 8.25597 11.8798 7.28264 11.4918L6.27785 11.0927C3.71921 10.0658 3.71921 8.99053 3.71921 8.41558C3.71921 7.65269 4.18363 5.95398 7.02817 5.95398C7.77587 5.95398 8.33076 6.11379 8.74752 6.23381C8.99813 6.30598 9.19879 6.36377 9.36138 6.36377C9.7063 6.36377 9.78177 6.17777 9.8553 5.93945H10.3038V8.65389H9.88578ZM18.8209 14.5928H15.2275V14.2799C15.8806 14.2557 16.0727 14.2169 16.0727 14.0169C16.0727 13.8546 15.988 13.704 15.8158 13.4671L13.8706 10.6287L13.5813 10.9421V13.393C13.5813 14.135 13.9465 14.1912 14.5059 14.2773L14.5227 14.2799V14.5928H10.9196V14.2799C11.5064 14.2048 11.8484 14.1554 11.8484 13.3925V7.34027C11.8484 6.52303 11.4206 6.49072 10.9333 6.45393L10.9196 6.45289V6.14047H14.5333V6.45289L14.5264 6.45347C13.9412 6.50252 13.5813 6.53269 13.5813 7.6028V10.2795L15.9024 7.55242L15.9032 7.55151C16.1904 7.21558 16.2865 7.10319 16.2865 6.86509C16.2865 6.57786 16.1472 6.50278 15.378 6.45289V6.14047H18.4673V6.45289C17.345 6.52845 16.8327 7.1407 15.0364 9.29133L18.297 14.0169C18.4586 14.2426 18.6066 14.2678 18.8209 14.2799V14.5928ZM22.3839 10.2795C24.0597 10.2669 24.7239 9.99125 24.7239 8.36617C24.7239 7.10341 24.2004 6.56575 23.1773 6.56575C22.4719 6.56575 22.4473 6.70283 22.3839 7.09033V10.2795ZM28.0023 14.5928H25.3794L22.7288 10.6795H22.3839V13.1295C22.3839 14.1298 22.6635 14.1675 23.5086 14.2799V14.5928H19.1823V14.2799C20.0521 14.1811 20.3085 14.1423 20.3085 13.1295V7.6028C20.3085 6.52991 19.9126 6.50283 19.1843 6.45303L19.1823 6.45289V6.14047H23.304C24.2004 6.14047 26.9148 6.23977 26.9148 8.3405C26.9148 9.86275 25.6223 10.2588 24.9251 10.4725L24.9038 10.479L27.4784 14.0421C27.656 14.2678 27.8504 14.2799 28.0023 14.2799V14.5928Z" stroke="white"/>
<path d="M15.4805 0C6.93189 0 0 6.93964 0 15.4985C0 24.0594 6.9314 30.999 15.4796 30.999C24.0311 30.999 30.961 24.0594 30.961 15.4985C30.961 6.93964 24.0306 0 15.4805 0ZM15.4805 0.629687C23.6697 0.629687 30.3321 7.29953 30.3321 15.4985C30.3321 23.6985 23.6697 30.3693 15.4805 30.3693C7.29132 30.3693 0.628896 23.6985 0.628896 15.4985C0.628896 7.29953 7.29181 0.629687 15.4805 0.629687Z" fill="#1B1A19"/>
<path d="M15.4805 0C6.93189 0 0 6.93964 0 15.4985C0 24.0594 6.9314 30.999 15.4796 30.999C24.0311 30.999 30.961 24.0594 30.961 15.4985C30.961 6.93964 24.0306 0 15.4805 0ZM15.4805 0.629687C23.6697 0.629687 30.3321 7.29953 30.3321 15.4985C30.3321 23.6985 23.6697 30.3693 15.4805 30.3693C7.29132 30.3693 0.628896 23.6985 0.628896 15.4985C0.628896 7.29953 7.29181 0.629687 15.4805 0.629687Z" stroke="white"/>
<path fill-rule="evenodd" clip-rule="evenodd" d="M36.0965 16.3244L39.3207 16.1306C39.3899 16.6341 39.5328 17.018 39.7468 17.2812C40.0956 17.708 40.5938 17.9205 41.2419 17.9205C41.7256 17.9205 42.0979 17.8111 42.3605 17.5922C42.6221 17.3733 42.7531 17.1188 42.7531 16.8293C42.7531 16.5552 42.6282 16.3094 42.3779 16.0919C42.1281 15.8757 41.5502 15.6709 40.6447 15.4776C39.1599 15.1556 38.1031 14.727 37.4705 14.1934C36.8333 13.659 36.5146 12.9781 36.5146 12.1504C36.5146 11.6078 36.6777 11.0938 37.0034 10.6095C37.3296 10.1266 37.8203 9.74671 38.475 9.47036C39.1293 9.19401 40.0268 9.05537 41.167 9.05537C42.5665 9.05537 43.6332 9.30573 44.3676 9.80599C45.102 10.3076 45.5389 11.1038 45.678 12.1969L42.4845 12.3762C42.3996 11.9023 42.2229 11.558 41.9518 11.3419C41.6822 11.1266 41.3079 11.0181 40.8323 11.0181C40.4397 11.0181 40.1446 11.1002 39.9466 11.2612C39.7477 11.4231 39.6487 11.6192 39.6487 11.8499C39.6487 12.0186 39.7303 12.1705 39.8924 12.3059C40.0503 12.4455 40.4274 12.575 41.0251 12.6958C42.5038 13.0041 43.5625 13.3156 44.2026 13.6311C44.8427 13.9472 45.307 14.338 45.5992 14.8054C45.8906 15.2724 46.0367 15.795 46.0367 16.3732C46.0367 17.0527 45.842 17.6788 45.4536 18.2521C45.0647 18.8253 44.5217 19.2599 43.8246 19.5558C43.1269 19.8509 42.2474 20 41.1863 20C39.3221 20 38.0319 19.6543 37.3145 18.9621C36.5971 18.2703 36.1908 17.3911 36.0965 16.3244ZM52.5363 19.8263H55.9387V9.22821H52.5363V19.8263ZM63.0492 9.22866H66.2206L70.3323 15.0886V9.22866H73.5263V19.8267H70.3323L66.2432 13.9978V19.8267H63.0492V9.22866ZM83.3915 14.5491C83.3915 15.6149 83.5989 16.381 84.0151 16.847C84.429 17.3122 84.9941 17.5452 85.7083 17.5452C86.4436 17.5452 87.0111 17.3172 87.4137 16.8612C87.8172 16.4047 88.0184 15.5866 88.0184 14.4055C88.0184 13.4113 87.8077 12.6849 87.3877 12.2266C86.9682 11.7687 86.3969 11.5384 85.679 11.5384C84.9885 11.5384 84.4351 11.7719 84.0184 12.2375C83.6008 12.7036 83.3915 13.4743 83.3915 14.5491ZM80.0184 14.5354C80.0184 12.8071 80.5166 11.4623 81.5155 10.4996C82.5133 9.53694 83.9053 9.05537 85.6861 9.05537C87.5122 9.05537 88.9192 9.52873 89.9081 10.4736C90.8966 11.4194 91.3911 12.7442 91.3911 14.4479C91.3911 15.6851 91.1752 16.7007 90.7434 17.4919C90.3116 18.2831 89.6885 18.8987 88.8707 19.3397C88.0557 19.7793 87.0389 20 85.8209 20C84.5841 20 83.5579 19.8098 82.7476 19.4295C81.9364 19.0496 81.2779 18.4477 80.7745 17.6246C80.2711 16.8014 80.0184 15.7722 80.0184 14.5354ZM97.8818 9.22866H101.256V13.2335L104.817 9.22866H109.314L105.298 13.2171L109.494 19.8267H105.328L103.014 15.484L101.256 17.2306V19.8267H97.8818V9.22866ZM117.703 14.5491C117.703 15.6149 117.91 16.381 118.326 16.847C118.74 17.3122 119.305 17.5452 120.019 17.5452C120.754 17.5452 121.324 17.3172 121.724 16.8612C122.127 16.4047 122.329 15.5866 122.329 14.4055C122.329 13.4113 122.118 12.6849 121.699 12.2266C121.279 11.7687 120.708 11.5384 119.99 11.5384C119.3 11.5384 118.747 11.7719 118.33 12.2375C117.912 12.7036 117.703 13.4743 117.703 14.5491ZM114.329 14.5354C114.329 12.8071 114.83 11.4623 115.828 10.4996C116.825 9.53694 118.215 9.05537 119.997 9.05537C121.823 9.05537 123.231 9.52873 124.219 10.4736C125.207 11.4194 125.702 12.7442 125.702 14.4479C125.702 15.6851 125.485 16.7007 125.055 17.4919C124.622 18.2831 123.999 18.8987 123.183 19.3397C122.366 19.7793 121.35 20 120.131 20C118.895 20 117.871 19.8098 117.059 19.4295C116.247 19.0496 115.591 18.4477 115.085 17.6246C114.581 16.8014 114.329 15.7722 114.329 14.5354ZM135.627 13.5317H137.049C137.202 13.5317 137.501 13.4829 137.943 13.3858C138.165 13.3429 138.348 13.2317 138.489 13.052C138.631 12.8728 138.702 12.6666 138.702 12.4345C138.702 12.0893 138.59 11.8253 138.366 11.6415C138.142 11.4577 137.723 11.3656 137.109 11.3656H135.627V13.5317ZM132.225 19.8267V9.22866H137.862C138.907 9.22866 139.707 9.31577 140.259 9.48906C140.812 9.66326 141.258 9.98475 141.595 10.454C141.935 10.9242 142.104 11.496 142.104 12.1709C142.104 12.7592 141.974 13.2663 141.715 13.6927C141.457 14.12 141.1 14.4652 140.647 14.7306C140.359 14.8998 139.962 15.0389 139.461 15.1497C139.862 15.281 140.155 15.411 140.341 15.5419C140.463 15.6294 140.644 15.8155 140.879 16.101C141.115 16.386 141.272 16.6063 141.353 16.7599L143 19.8267H139.181L137.37 16.5871C137.141 16.168 136.935 15.8958 136.756 15.7699C136.512 15.6057 136.236 15.5236 135.926 15.5236H135.627V19.8267H132.225Z" fill="white"/>
</g>
<defs>
<clipPath id="clip0_207_167">
<rect width="149" height="31" fill="white"/>
</clipPath>
</defs>
</svg>
