<svg width="124" height="58" viewBox="0 0 124 58" fill="none" xmlns="http://www.w3.org/2000/svg">
<path d="M63.5716 23.0403C63.5863 23.1453 63.5742 23.2523 63.5364 23.3513C63.4985 23.4502 63.4362 23.5378 63.3553 23.6058C63.1701 23.7224 62.9534 23.7782 62.7353 23.7653H60.5293C60.4259 23.7749 60.3217 23.761 60.2244 23.7246C60.1272 23.6882 60.0393 23.6302 59.9673 23.555C59.8953 23.4799 59.841 23.3893 59.8085 23.2902C59.776 23.1911 59.7661 23.0859 59.7795 22.9823C59.7795 22.5183 60.1544 22.3298 60.5725 22.3298H63.5716V23.0403ZM66.7148 16.3413C66.3255 15.9886 65.8695 15.7183 65.3741 15.5464C64.8787 15.3745 64.354 15.3046 63.8311 15.3408H56.319V18.2408H62.0865C62.3229 18.2014 62.5653 18.2219 62.7919 18.3004C63.0185 18.3788 63.222 18.5129 63.3841 18.6903C63.5411 18.9143 63.6174 19.1854 63.6004 19.4588V19.6183H58.5683C57.8577 19.5521 57.1458 19.7311 56.5497 20.1258C56.1728 20.4994 55.8868 20.9555 55.7142 21.4586C55.5417 21.9616 55.4871 22.498 55.5548 23.0258C55.4285 24.1837 55.7599 25.3451 56.4776 26.2593C57.0687 26.7292 57.8191 26.9478 58.5683 26.8683H65.3018C65.6505 26.9068 66.0033 26.8726 66.3382 26.7678C66.6731 26.663 66.9829 26.4899 67.2483 26.2593C67.6692 25.7437 67.8712 25.0821 67.8107 24.4178V19.5748C67.8503 18.9897 67.7739 18.4025 67.5857 17.8474C67.3976 17.2923 67.1016 16.7803 66.7148 16.3413Z" fill="white"/>
<path d="M0 2.8999V12.2959H11.9674C14.8178 8.76075 18.1026 5.60354 21.7433 2.8999H0ZM21.6279 28.1589C20.276 31.0405 19.8526 34.2746 20.4167 37.4099C21.0136 40.4174 22.6227 43.1263 24.973 45.0804C25.7308 45.7187 26.5412 46.2911 27.3954 46.7914H29.1256V18.3714C26.0065 21.1081 23.4581 24.4397 21.6279 28.1734M57.213 2.8999C48.1913 5.67519 39.7206 10.013 32.1823 15.7179V31.1314H44.6833V12.2814H76.8656V2.8999H57.213ZM4.93116 30.4499C5.06033 25.0778 6.73839 19.859 9.7614 15.4279H0V46.8059H11.9386C7.54537 42.4993 5.02601 36.6189 4.93116 30.4499Z" fill="white"/>
<path d="M54.9493 50.75C15.0386 66.294 -16.3939 27.811 29.14 0H61.207C45.26 3.828 25.7372 14.703 19.9842 27.4485C14.2312 40.194 23.0698 56.55 54.9493 50.75Z" fill="white"/>
<path d="M46.7019 20.2131C46.6409 19.5157 46.7391 18.8136 46.989 18.1602C47.2389 17.5069 47.6338 16.9196 48.1438 16.4431C49.4187 15.5909 50.9448 15.2021 52.4693 15.3411H55.3531V18.3571H53.9112C53.5133 18.3088 53.1097 18.3589 52.7353 18.5029C52.361 18.6469 52.0272 18.8806 51.7628 19.1836C51.3449 19.8438 51.1478 20.6212 51.2005 21.4021V26.9266H46.8749V20.2131" fill="white"/>
<path d="M69.1949 17.4C69.1634 17.1368 69.1911 16.8698 69.2759 16.6188C69.3608 16.3679 69.5006 16.1393 69.6852 15.95C70.4077 15.4169 71.304 15.1786 72.194 15.283H76.2024C77.5713 15.1519 78.9417 15.517 80.0666 16.3125C80.5598 16.73 80.9476 17.2591 81.1982 17.8564C81.4488 18.4538 81.5551 19.1023 81.5084 19.749V26.8685H77.1828V21.054C77.253 20.3567 77.0852 19.6562 76.707 19.0675C76.4966 18.8102 76.2252 18.6103 75.9178 18.4861C75.6104 18.362 75.2769 18.3176 74.948 18.357H74.1838C73.972 18.3387 73.7611 18.4007 73.5926 18.531C73.5137 18.618 73.4558 18.7221 73.4233 18.8353C73.3908 18.9484 73.3846 19.0675 73.4052 19.1835V26.9265H69.0796V17.4" fill="white"/>
<path d="M82.6763 23.8237H88.9483L89.2223 23.7367C89.2552 23.7112 89.2815 23.6782 89.2991 23.6403C89.3167 23.6025 89.3249 23.561 89.3232 23.5192C89.3294 23.4808 89.3273 23.4414 89.3173 23.4038C89.3072 23.3662 89.2893 23.3312 89.2648 23.3011C89.2402 23.2709 89.2096 23.2463 89.175 23.229C89.1403 23.2116 89.1024 23.2018 89.0637 23.2002C88.6424 23.0153 88.2088 22.8603 87.766 22.7362L85.286 21.9242C84.3469 21.706 83.5115 21.1682 82.9214 20.4017C82.6196 19.8 82.471 19.1324 82.4888 18.4587C82.4574 17.7276 82.6485 17.0042 83.0367 16.3852C83.3377 15.9728 83.7459 15.6518 84.2165 15.4574C84.6871 15.263 85.2018 15.2027 85.7042 15.2832H93.3893V18.2557H87.1893C87.0266 18.2345 86.8618 18.2345 86.699 18.2557C86.5837 18.2557 86.4972 18.2557 86.4972 18.4442C86.4972 18.6327 86.6125 18.6617 86.7423 18.7052C87.2614 18.8937 87.1028 18.8647 87.6074 19.0387L90.4911 20.0247C91.5547 20.2753 92.501 20.8842 93.173 21.7502C93.5841 22.4199 93.7897 23.1966 93.7642 23.9832C93.7993 24.4409 93.7306 24.9005 93.5632 25.3275C93.3959 25.7545 93.1342 26.1377 92.7981 26.4482C92.2522 26.8488 91.5836 27.0438 90.9093 26.9992H82.6763V23.8237Z" fill="white"/>
<path d="M43.5298 36.3224C44.0849 36.974 44.5058 37.7299 44.7682 38.5463C45.0305 39.3628 45.1291 40.2234 45.0581 41.0784C45.1287 41.9312 45.03 42.7896 44.7676 43.6036C44.5052 44.4176 44.0844 45.171 43.5298 45.82C42.2753 46.922 40.2279 46.9944 38.3967 46.9944C36.5656 46.9944 34.5326 46.9945 33.2781 45.82C32.7207 45.1728 32.2982 44.4196 32.0356 43.6051C31.7731 42.7906 31.6759 41.9314 31.7498 41.0784C31.6756 40.2232 31.7726 39.3617 32.0351 38.5448C32.2976 37.7279 32.7203 36.9723 33.2781 36.3224C34.5326 35.2204 36.58 35.1479 38.3967 35.1479C40.2135 35.1479 42.2753 35.2204 43.5298 36.3224ZM36.5079 43.1084C36.7342 43.3854 37.0251 43.6018 37.3546 43.7384C37.6841 43.875 38.0421 43.9276 38.3967 43.8915C38.7493 43.9277 39.1052 43.8751 39.4324 43.7384C39.7597 43.6017 40.0479 43.3852 40.2712 43.1084C40.6148 42.4908 40.7655 41.7834 40.7037 41.0784C40.772 40.3579 40.6319 39.6328 40.3 38.9904C40.0632 38.725 39.7673 38.5197 39.4365 38.3912C39.1058 38.2627 38.7495 38.2146 38.3967 38.2509C38.0461 38.2146 37.692 38.2627 37.3635 38.3913C37.0351 38.5199 36.7418 38.7253 36.5079 38.9904C36.172 39.6314 36.0316 40.3577 36.1042 41.0784C36.0309 41.7806 36.1717 42.4886 36.5079 43.1084Z" fill="white"/>
<path d="M46.6153 37.3518C46.583 37.0897 46.6089 36.8237 46.6911 36.573C46.7734 36.3222 46.91 36.093 47.0911 35.9018C47.8225 35.3768 48.7219 35.1442 49.6144 35.2493H53.6084C54.9773 35.1182 56.3477 35.4833 57.4725 36.2788C57.9657 36.6963 58.3535 37.2254 58.6042 37.8227C58.8548 38.4201 58.9611 39.0686 58.9144 39.7153V46.8348H54.5888V40.9913C54.6647 40.289 54.4966 39.582 54.113 38.9903C53.9002 38.7367 53.628 38.5403 53.3209 38.4188C53.0138 38.2973 52.6815 38.2545 52.3539 38.2943H51.5898C51.3833 38.2834 51.1795 38.3449 51.013 38.4683C50.9316 38.554 50.871 38.6575 50.836 38.7707C50.801 38.8839 50.7925 39.0037 50.8112 39.1208V46.8638H46.6153V37.3518Z" fill="white"/>
<path d="M65.994 46.8639C64.7567 46.9522 63.5203 46.6803 62.4326 46.0809C61.9789 45.7489 61.6112 45.3122 61.3602 44.8076C61.1093 44.3029 60.9826 43.7451 60.9907 43.1809V38.2509H59.4047V35.2784H61.034V31.0879H65.2875V35.2784H68.5749V38.2509H65.2875V40.9044C65.2402 41.3169 65.2786 41.7348 65.4002 42.1317C65.5219 42.5285 65.724 42.8957 65.994 43.2099C66.5257 43.6279 67.1965 43.8251 67.8684 43.7609H68.5028V46.8639H65.994Z" fill="white"/>
<path d="M82.6763 31.1172H87.0019V34.1187H82.6763V31.1172ZM82.6763 35.2787H87.0019V46.8787H82.6763V35.2787Z" fill="white"/>
<path d="M88.2419 37.352C88.2124 37.0889 88.2411 36.8225 88.3258 36.5719C88.4106 36.3212 88.5493 36.0925 88.7321 35.902C89.4591 35.3793 90.3532 35.1467 91.241 35.2495H95.2493C96.6291 35.0994 98.0164 35.4546 99.1568 36.25C99.65 36.6675 100.038 37.1966 100.288 37.794C100.539 38.3913 100.645 39.0399 100.599 39.6865V46.806H96.2731V40.9915C96.3489 40.2893 96.1808 39.5823 95.7972 38.9905C95.5836 38.7379 95.3113 38.5422 95.0044 38.4208C94.6976 38.2994 94.3657 38.256 94.0382 38.2945H93.274C93.0633 38.2861 92.8557 38.3472 92.6828 38.4685C92.603 38.5549 92.5445 38.659 92.5119 38.7723C92.4794 38.8856 92.4737 39.0051 92.4954 39.121V46.864H88.1698V37.352" fill="white"/>
<path d="M106.265 46.8641C104.549 46.8641 103.093 46.8641 102.17 45.4141C101.639 44.1011 101.441 42.6761 101.594 41.2671C101.594 39.1356 101.478 37.4101 102.516 36.3371C103.554 35.2641 105.789 35.2061 107.952 35.2061C110.115 35.2061 111.802 35.2061 112.71 35.9891C113.181 36.5129 113.535 37.1319 113.749 37.8046C113.963 38.4772 114.032 39.1881 113.95 39.8896C114.003 40.2721 113.968 40.6617 113.848 41.0285C113.728 41.3954 113.526 41.7299 113.258 42.0066C112.938 42.2555 112.537 42.3745 112.134 42.3401H105.847C105.823 42.6626 105.893 42.9852 106.049 43.2681C106.409 43.8626 107.202 43.8191 107.952 43.8191H113.575V46.9221H106.366M109.106 39.6721C109.711 39.6721 109.798 39.2806 109.798 39.0486C109.798 38.8166 109.639 38.3961 109.019 38.2656C108.642 38.2125 108.261 38.1834 107.88 38.1786C107.391 38.1508 106.901 38.2198 106.438 38.3816C106.006 38.6136 105.934 39.0776 105.977 39.6721H109.106Z" fill="white"/>
<path d="M114.887 40.1504C114.815 39.4577 114.9 38.7575 115.135 38.1022C115.369 37.4469 115.748 36.8534 116.243 36.3659C117.522 35.5252 119.046 35.1422 120.568 35.2784H123.452V38.2944H122.01C121.61 38.245 121.204 38.2945 120.827 38.4385C120.45 38.5825 120.114 38.8167 119.847 39.1209C119.438 39.7847 119.241 40.5594 119.285 41.3394V46.8639H114.96V40.1504" fill="white"/>
<path d="M77.2693 43.065C77.284 43.17 77.2719 43.277 77.2341 43.376C77.1962 43.4749 77.1339 43.5626 77.053 43.6305C76.8686 43.749 76.6513 43.8049 76.433 43.79H74.227C74.1236 43.7996 74.0194 43.7857 73.9221 43.7493C73.8249 43.7129 73.737 43.6549 73.665 43.5798C73.593 43.5046 73.5387 43.414 73.5062 43.3149C73.4737 43.2158 73.4638 43.1106 73.4772 43.007C73.4772 42.543 73.8521 42.3545 74.2702 42.3545H77.2693V43.065ZM80.4126 36.366C79.6208 35.662 78.5838 35.3022 77.5288 35.3655H70.0312V38.2655H75.7986C76.0328 38.2286 76.2724 38.2503 76.4962 38.3287C76.72 38.4071 76.9212 38.5398 77.0819 38.715C77.2367 38.9345 77.313 39.2003 77.2981 39.469V39.643H72.266C71.5554 39.5768 70.8435 39.7558 70.2474 40.1505C69.8696 40.5234 69.583 40.9794 69.4104 41.4827C69.2377 41.986 69.1837 42.5227 69.2526 43.0505C69.1262 44.2084 69.4576 45.3698 70.1753 46.284C70.7664 46.7539 71.5168 46.9725 72.266 46.893H78.9707C79.3172 46.933 79.6682 46.8995 80.0009 46.7946C80.3337 46.6897 80.641 46.5157 80.9028 46.284C81.1165 46.0315 81.2776 45.7384 81.3767 45.4221C81.4758 45.1058 81.5107 44.7727 81.4795 44.4425V39.5995C81.5596 38.4227 81.1763 37.2613 80.4126 36.366Z" fill="white"/>
</svg>
