<svg width="128" height="48" viewBox="0 0 128 48" fill="none" xmlns="http://www.w3.org/2000/svg">
<g clip-path="url(#clip0_206_71)">
<path d="M44.4746 2.18164H1.08475V45.818H44.4746V2.18164Z" fill="white"/>
<path fill-rule="evenodd" clip-rule="evenodd" d="M43.6439 24.501L24.1885 2.91467L23.46 2.10638L25.0675 0.641113L25.796 1.4494L45.108 22.8766L45.4841 22.4593L46.0492 23.921L46.363 24.2692L47.0915 25.0775L45.4841 26.5428L45.108 26.1254L25.796 47.5527L25.0675 48.361L23.46 46.8957L24.1885 46.0874C24.1885 46.0874 36.7564 32.1429 43.6439 24.501Z" fill="#111111"/>
<path fill-rule="evenodd" clip-rule="evenodd" d="M19.6173 24.6651L19.2463 24.2469L0.318351 2.90808L-0.403748 2.09401L1.2152 0.641602L1.9373 1.45567L20.8653 22.7945L21.5874 23.6085L21.5814 23.6139L22.5145 24.688L21.4876 25.765L1.93303 47.5508L1.20619 48.3606L-0.404236 46.8987L0.322613 46.0889L19.5951 24.688L19.6173 24.6651Z" fill="#111111"/>
<path fill-rule="evenodd" clip-rule="evenodd" d="M10.3051 12.0002H32H33.0847V9.81836H32H10.3051H9.22034V12.0002H10.3051Z" fill="#111111"/>
<path fill-rule="evenodd" clip-rule="evenodd" d="M11.3898 38.1818H33.0847H34.1695V36H33.0847H11.3898H10.3051V38.1818H11.3898Z" fill="#111111"/>
<path d="M128 22.9092H50.983V25.091H128V22.9092Z" fill="white"/>
<path fill-rule="evenodd" clip-rule="evenodd" d="M66.3687 16.5625C66.9222 16.0051 67.2542 14.8903 67.2542 13.4411C67.2542 11.7689 66.7008 10.6541 65.5939 9.98522L64.8191 9.65078L65.5939 9.20487C65.926 8.98191 66.1473 8.75895 66.3687 8.20155C66.5901 7.64415 66.7008 7.08675 66.7008 6.30639C66.7008 4.52272 66.258 3.40792 65.4832 2.73904C64.9298 2.29312 64.0443 2.18164 62.8267 2.18164H50.983V17.4544H63.4908C64.8191 17.4544 65.8153 17.2314 66.3687 16.5625ZM54.2373 5.45437H62.4107C62.8648 5.45437 63.2053 5.58024 63.5459 5.83199C63.8865 6.08374 64 6.58724 64 7.09073C64 7.7201 63.8865 8.09772 63.5459 8.34947C63.3189 8.60122 62.8648 8.7271 62.4107 8.7271H54.2373V5.45437ZM62.2972 14.1816H54.2373V10.9089H62.2972C62.8648 10.9089 63.2053 11.018 63.5459 11.2362C63.8865 11.4544 64 11.9998 64 12.5453C64 13.6362 63.4324 14.1816 62.2972 14.1816Z" fill="white"/>
<path fill-rule="evenodd" clip-rule="evenodd" d="M88.8067 5.21373V17.4544H92.2034V2.18164H85.5196L81.6847 13.0747H81.0272L77.1923 2.18164H70.5085V17.4544H73.9052V5.21373H74.5626L79.3837 17.4544H83.3282L88.1493 5.21373H88.8067Z" fill="white"/>
<path fill-rule="evenodd" clip-rule="evenodd" d="M101.6 11.1656L106.88 17.4544H111.729L104.509 9.48111L110.867 2.18164H106.233L101.6 7.79661H98.7981V2.18164H95.4576V17.4544H98.7981V11.1656H101.6Z" fill="white"/>
<path fill-rule="evenodd" clip-rule="evenodd" d="M65.4102 30.8184L60.2034 42.1638H59.3356V42.0547L54.2373 30.8184H50.4407L56.8407 45.3274H62.6983L69.2068 30.8184H65.4102Z" fill="white"/>
<path fill-rule="evenodd" clip-rule="evenodd" d="M75.2814 45.4363C76.0407 45.5454 77.7763 45.6544 80.3797 45.6544C83.7424 45.6544 85.9119 45.4363 86.7797 44.9999C87.756 44.4544 88.2983 43.3635 88.2983 41.3999C88.2983 39.3272 87.8644 38.0181 86.9966 37.4726C86.0204 36.9272 83.8509 36.5999 80.4882 36.5999C78.861 36.5999 77.7763 36.4908 77.2339 36.3817C76.5831 36.1635 76.1492 35.6181 76.1492 34.9635C76.1492 33.9817 76.5831 33.7635 76.9085 33.6544C77.017 33.6544 77.4509 33.5453 80.3797 33.5453C82.9831 33.5453 83.6339 33.6544 83.8509 33.7635C84.2848 33.9817 84.5017 34.4181 84.6102 35.1817H88.0814C87.9729 32.6726 87.2136 31.2544 85.6949 30.9272C84.9356 30.709 83.2 30.709 80.3797 30.709C77.2339 30.709 75.2814 30.9272 74.4136 31.3635C73.3288 31.909 72.7865 33.109 72.7865 34.9635C72.7865 37.0363 73.2204 38.3454 73.9797 38.8908C74.8475 39.4363 77.017 39.6544 80.4882 39.6544C82.3322 39.6544 83.5255 39.7635 83.9593 39.8726C84.3932 39.9817 84.9356 40.4181 84.9356 41.3999C84.9356 42.3817 84.3932 42.5999 84.1763 42.5999C83.9593 42.5999 83.3085 42.709 80.4882 42.709C77.7763 42.709 77.017 42.5999 76.8 42.4908C76.3661 42.2726 76.1492 41.8363 76.0407 41.0726H72.5695C72.5695 42.5999 72.7865 43.6908 73.1119 44.2363C73.4373 44.8908 74.1966 45.2181 75.2814 45.4363Z" fill="white"/>
<path fill-rule="evenodd" clip-rule="evenodd" d="M105.437 35.9453H108.8C108.8 33.6544 108.475 32.1272 107.824 31.6908C106.956 31.0363 104.678 30.709 100.881 30.709C96.2169 30.709 94.5898 31.3635 94.0475 31.7999C93.6136 32.2363 92.9627 33.5453 92.9627 38.1272C92.9627 42.709 93.6136 44.1272 94.0475 44.5635C94.4814 44.9999 95.8915 45.6544 100.881 45.6544C104.678 45.6544 107.064 45.3272 107.824 44.6726C108.149 44.3453 108.8 43.4726 108.8 40.4181H105.437C105.329 41.2908 105.112 41.8363 104.569 42.1635C104.027 42.4908 102.834 42.5999 100.881 42.5999C98.061 42.5999 97.3017 42.2726 96.9763 41.9453C96.6508 41.6181 96.3254 40.9635 96.3254 38.2363C96.3254 35.509 96.6508 34.8544 96.9763 34.5272C97.3017 34.1999 97.9525 33.8726 100.881 33.8726C102.834 33.8726 104.027 34.0908 104.569 34.4181C105.112 34.5272 105.437 35.0726 105.437 35.9453Z" fill="white"/>
<path fill-rule="evenodd" clip-rule="evenodd" d="M128 30.8184H112.597V33.982H118.671V45.3274H122.034V33.982H128V30.8184Z" fill="white"/>
<path fill-rule="evenodd" clip-rule="evenodd" d="M128 2.18164H112.597V5.34528H118.671V17.4755H122.034V5.34528H128V2.18164Z" fill="white"/>
</g>
<defs>
<clipPath id="clip0_206_71">
<rect width="128" height="48" fill="white"/>
</clipPath>
</defs>
</svg>
