<svg width="55" height="59" viewBox="0 0 55 59" fill="none" xmlns="http://www.w3.org/2000/svg">
<g clip-path="url(#clip0_206_24)">
<path d="M47.9667 46.4298C52.6529 41.0494 55.1953 34.1801 55.1223 27.0964C55.1223 19.9086 52.2185 13.0151 47.0498 7.93256C41.8811 2.84999 34.8708 -0.00537109 27.5611 -0.00537109C20.2515 -0.00537109 13.2412 2.84999 8.0725 7.93256C2.90379 13.0151 3.6648e-05 19.9086 3.6648e-05 27.0964C-0.0730256 34.1801 2.46939 41.0494 7.1556 46.4298C15.1778 55.8043 27.2889 59.1585 27.5611 59.1585C27.8334 59.1585 39.9445 55.8043 47.9667 46.4298ZM27.5611 57.6507C27.3111 57.6507 16.0056 54.4331 8.32782 45.4629C3.88152 40.3515 1.47138 33.8277 1.54448 27.1018C1.54448 20.3154 4.2861 13.8068 9.16621 9.00803C14.0463 4.20926 20.6652 1.51333 27.5667 1.51333C34.4682 1.51333 41.0871 4.20926 45.9672 9.00803C50.8473 13.8068 53.5889 20.3154 53.5889 27.1018C53.6605 33.8284 51.2483 40.3522 46.8 45.4629C39.1112 54.4331 27.8111 57.6507 27.5611 57.6507Z" fill="white"/>
<path d="M41.8056 29.9591V26.1023V16.1597H13.3111V26.0968V29.9536L11.9556 30.1175L11.1167 30.2159L11.3 31.0299L12.3 35.4712C12.8392 35.9798 13.4631 36.3937 14.1444 36.6949L12.9833 31.5161L27.5611 29.7788V37.3232C28.5405 37.3378 29.5118 37.1471 30.4104 36.7637C31.3089 36.3804 32.1141 35.8131 32.7722 35.0998C33.4291 35.8132 34.2332 36.3807 35.1309 36.7641C36.0286 37.1475 36.9992 37.3381 37.9778 37.3232C39.0123 37.3247 40.0352 37.1086 40.9778 36.6895H41.0167L41.3778 36.5092L41.4945 36.4491C41.6426 36.3654 41.7889 36.2779 41.9333 36.1869C42.2484 35.9802 42.544 35.7462 42.8167 35.4876L43.8167 31.0408L44 30.2268L43.1611 30.1285L41.8056 29.9591ZM22.3 28.8665L14.8778 29.7515V26.8562H22.3222L22.3 28.8665ZM22.3 20.7322H14.8778V17.6511H22.3222L22.3 20.7322ZM31.2833 28.6862L27.65 28.2547H27.5611H27.4722L23.8389 28.6862V26.8562H31.2833V28.7026V28.6862ZM31.2833 25.3265H23.8389V22.2673H31.2833V25.3265ZM31.2833 20.7376H23.8389V17.6565H31.2833V20.7376ZM40.2667 29.7515L32.8222 28.8665V26.8562H40.2667V29.7515ZM40.2667 25.3211H32.8222V22.2673H40.2667V25.3484V25.3211Z" fill="white"/>
<path d="M30.15 50.5927C29.3326 50.9483 28.4494 51.1342 27.5556 51.139C26.6617 51.1346 25.7784 50.9486 24.9611 50.5927C24.1824 50.2646 23.4879 49.77 22.9278 49.145L21.7667 50.1338C22.4782 50.9284 23.3606 51.5572 24.35 51.9748C25.3619 52.4052 26.453 52.6265 27.5556 52.6249C28.6578 52.6287 29.7489 52.4093 30.7611 51.9803C31.749 51.563 32.6297 50.934 33.3389 50.1393L32.1778 49.1505C31.6188 49.773 30.9262 50.2656 30.15 50.5927Z" fill="white"/>
<path d="M40.5667 40.508C39.7457 40.8491 38.8635 41.0248 37.9722 41.0248C37.081 41.0248 36.1988 40.8491 35.3778 40.508C34.5996 40.1816 33.905 39.689 33.3445 39.0658L32.7889 38.4103L32.2333 39.0603C31.673 39.6851 30.9785 40.1796 30.2 40.508C29.3802 40.8499 28.4988 41.026 27.6083 41.026C26.7179 41.026 25.8365 40.8499 25.0167 40.508C24.2366 40.1796 23.5402 39.6852 22.9778 39.0603L22.4222 38.4048L21.8667 39.0603C21.3066 39.6854 20.612 40.1799 19.8333 40.508C19.0124 40.8491 18.1302 41.0248 17.2389 41.0248C16.3476 41.0248 15.4654 40.8491 14.6445 40.508C13.8657 40.1801 13.1711 39.6855 12.6111 39.0603L11.45 40.0546C12.1614 40.848 13.044 41.4751 14.0333 41.8902C15.046 42.3182 16.1367 42.539 17.2389 42.539C18.3411 42.539 19.4318 42.3182 20.4445 41.8902C21.1774 41.5803 21.8547 41.156 22.45 40.6337C23.0433 41.1575 23.7186 41.5836 24.45 41.8956C25.4626 42.3237 26.5533 42.5444 27.6556 42.5444C28.7578 42.5444 29.8485 42.3237 30.8611 41.8956C31.5942 41.5859 32.2715 41.1616 32.8667 40.6391C33.4595 41.162 34.1351 41.5864 34.8667 41.8956C35.8794 42.3234 36.97 42.544 38.0722 42.544C39.1744 42.544 40.2651 42.3234 41.2778 41.8956C42.2672 41.4806 43.1498 40.8534 43.8611 40.0601L42.6 39.0385C42.0421 39.6713 41.3474 40.1734 40.5667 40.508Z" fill="white"/>
<path d="M35.3611 45.5504C34.5407 45.8936 33.6582 46.0705 32.7667 46.0705C31.8751 46.0705 30.9926 45.8936 30.1722 45.5504C29.394 45.224 28.6994 44.7314 28.1389 44.1082L27.5833 43.4526L27.0278 44.1082C26.4674 44.7315 25.7728 45.2242 24.9944 45.5504C24.1749 45.8932 23.2934 46.0698 22.4028 46.0698C21.5121 46.0698 20.6307 45.8932 19.8111 45.5504C19.0324 45.2223 18.3378 44.7277 17.7778 44.1027L16.5444 45.0915C17.2552 45.8869 18.1379 46.5159 19.1278 46.9326C20.1403 47.3609 21.231 47.5819 22.3333 47.5819C23.4356 47.5819 24.5263 47.3609 25.5389 46.9326C26.2705 46.6209 26.9459 46.1948 27.5389 45.6706C28.1319 46.1947 28.8073 46.6209 29.5389 46.9326C30.5514 47.3609 31.6421 47.5819 32.7444 47.5819C33.8467 47.5819 34.9374 47.3609 35.95 46.9326C36.9393 46.515 37.8218 45.8861 38.5333 45.0915L37.3722 44.1027C36.818 44.7246 36.1314 45.2189 35.3611 45.5504Z" fill="white"/>
<path d="M19.6778 13.1712H20.6056V6.58838H19.6778L18.7556 7.26579V8.27097L19.6778 7.58264V13.1712Z" fill="white"/>
<path d="M22.2833 11.2481C22.2744 11.5128 22.3228 11.7763 22.4253 12.0212C22.5277 12.266 22.682 12.4867 22.8778 12.6685C23.0604 12.8462 23.2774 12.9861 23.516 13.0799C23.7545 13.1738 24.0098 13.2196 24.2667 13.2148C24.7921 13.2237 25.2996 13.0272 25.6778 12.6685C25.8649 12.4821 26.0108 12.2598 26.1064 12.0154C26.202 11.7709 26.2452 11.5097 26.2333 11.2481C26.2406 10.9558 26.172 10.6664 26.0339 10.4074C25.8959 10.1483 25.693 9.92818 25.4444 9.76766C25.6412 9.60062 25.8067 9.40093 25.9333 9.17766C26.0569 8.95125 26.1182 8.69702 26.1111 8.44016C26.1152 7.9325 25.9156 7.44372 25.5556 7.07988C25.3841 6.90268 25.177 6.76258 24.9474 6.66852C24.7179 6.57445 24.4709 6.5285 24.2222 6.53358C23.9769 6.52885 23.7333 6.57506 23.5074 6.66919C23.2815 6.76333 23.0783 6.90327 22.9111 7.07988C22.7311 7.25882 22.5892 7.47132 22.4938 7.70491C22.3984 7.9385 22.3514 8.18847 22.3556 8.44016C22.3502 8.69962 22.4195 8.95527 22.5556 9.17766C22.6701 9.4026 22.8287 9.60309 23.0222 9.76766C22.7829 9.93386 22.5898 10.1565 22.4607 10.4152C22.3316 10.6739 22.2706 10.9603 22.2833 11.2481ZM23.6278 7.70266C23.8049 7.55171 24.0323 7.47005 24.2667 7.47321C24.5045 7.4694 24.7356 7.55098 24.9167 7.70266C25.0126 7.79435 25.0876 7.90515 25.1364 8.02763C25.1853 8.15011 25.207 8.28145 25.2 8.41284C25.2061 8.54251 25.1839 8.67196 25.1351 8.79255C25.0862 8.91313 25.0118 9.02208 24.9167 9.1121C24.7409 9.27495 24.5081 9.36494 24.2667 9.36339C24.0805 9.34886 23.9024 9.2828 23.7528 9.17285C23.6032 9.0629 23.4884 8.91356 23.4216 8.7421C23.3547 8.57064 23.3386 8.38408 23.3751 8.204C23.4116 8.02392 23.4992 7.85767 23.6278 7.72451V7.70266ZM23.5333 10.4888C23.7292 10.3 23.9924 10.1942 24.2667 10.1938C24.5444 10.193 24.8115 10.2989 25.0111 10.4888C25.1107 10.5867 25.1897 10.7029 25.2437 10.8309C25.2976 10.9588 25.3253 11.096 25.3253 11.2345C25.3253 11.373 25.2976 11.5101 25.2437 11.638C25.1897 11.766 25.1107 11.8822 25.0111 11.9802C24.915 12.0782 24.7991 12.1556 24.671 12.2073C24.5428 12.259 24.4051 12.284 24.2667 12.2806C24.1299 12.2835 23.994 12.2582 23.8678 12.2065C23.7415 12.1547 23.6276 12.0776 23.5333 11.9802C23.4317 11.8834 23.3509 11.7675 23.2957 11.6394C23.2405 11.5113 23.212 11.3736 23.212 11.2345C23.212 11.0953 23.2405 10.9576 23.2957 10.8295C23.3509 10.7014 23.4317 10.5855 23.5333 10.4888Z" fill="white"/>
<path d="M29.0389 10.8551C29.4604 10.8554 29.879 10.7871 30.2778 10.6529V11.2703C30.2778 11.9367 29.9722 12.2736 29.3611 12.2809C29.1788 12.2944 28.997 12.2481 28.8443 12.1492C28.6915 12.0504 28.5763 11.9046 28.5167 11.7346H27.5556C27.6278 12.1665 27.8616 12.5562 28.2111 12.8272C28.5611 13.101 28.9996 13.2418 29.4464 13.2237C29.8933 13.2057 30.3185 13.03 30.6445 12.7289C30.8301 12.546 30.9753 12.3274 31.0709 12.0867C31.1665 11.846 31.2105 11.5885 31.2 11.3304V8.44591C31.2112 8.18682 31.1677 7.92827 31.072 7.6866C30.9764 7.44493 30.8308 7.2254 30.6445 7.04192C30.2969 6.71889 29.8336 6.54411 29.3556 6.55572C28.8865 6.54838 28.4334 6.72306 28.0944 7.04192C27.9037 7.22225 27.7553 7.44126 27.6593 7.68371C27.5634 7.92617 27.5223 8.18626 27.5389 8.44591V9.0523C27.5144 9.30067 27.5406 9.55135 27.616 9.78963C27.6914 10.0279 27.8144 10.249 27.9778 10.4399C28.1157 10.5777 28.2812 10.6858 28.4639 10.7573C28.6466 10.8288 28.8424 10.8621 29.0389 10.8551ZM28.45 8.47868C28.45 7.81585 28.7537 7.47897 29.3611 7.46804C29.9556 7.46804 30.2556 7.8122 30.2778 8.47868V9.02498C30.2778 9.69146 29.9722 10.0283 29.3611 10.0356C28.75 10.0429 28.4463 9.69511 28.45 8.9922V8.47868Z" fill="white"/>
<path d="M33.6111 7.52801H35.3278L33.1389 13.1712H34.1722L36.3667 7.52801V6.58838H32.6833V8.48403H33.6111V7.52801Z" fill="white"/>
</g>
<defs>
<clipPath id="clip0_206_24">
<rect width="55" height="59" fill="white"/>
</clipPath>
</defs>
</svg>
