<svg width="68" height="41" viewBox="0 0 68 41" fill="none" xmlns="http://www.w3.org/2000/svg">
<g clip-path="url(#clip0_207_153)">
<path fill-rule="evenodd" clip-rule="evenodd" d="M32.725 25.4634L28.7583 15.609H25.8542L21.8875 25.4634H24.1542L24.7917 23.809H29.75L30.4583 25.4634H32.725ZM27.2708 17.1915L29.0417 21.9389H25.5L27.2708 17.1915ZM18.6292 20.2845L19.3375 18.9897V25.4634H21.4625V15.609H19.125L16.2917 20.8599L13.2458 15.609H10.9792V25.4634H12.9625V18.9897L13.6708 20.2845L16.15 24.4564H16.2208L18.7 20.2845H18.6292ZM65.2375 20.2845L65.9458 18.9897V25.4634H68V15.609H65.875L62.8292 20.8599L59.7833 15.609H57.5167V25.4634H59.5V18.9897L60.2083 20.2845L62.6875 24.4564H62.7583L65.2375 20.2845ZM7.57916 22.5862V22.6582C7.57916 23.3775 7.15417 23.5932 6.23333 23.5932H4.10833C2.62083 23.5932 2.3375 23.4494 2.3375 21.6511V19.4932C2.3375 17.695 2.62083 17.4792 4.17917 17.4792H6.30417C7.15417 17.4792 7.57916 17.6231 7.57916 18.4143H9.70416C9.70416 16.2564 8.99583 15.5371 6.375 15.5371H3.68333C1.275 15.5371 0.283332 16.5441 0.283332 18.9897V22.1547C0.283332 24.5283 1.275 25.5354 3.68333 25.5354H6.375C8.925 25.5354 9.775 24.8161 9.775 22.6582H7.65L7.57916 22.5862ZM42.9958 22.6582C42.9958 23.3775 42.5708 23.5932 41.65 23.5932H39.5958C38.0375 23.5932 37.825 23.4494 37.825 21.6511V19.4932C37.825 17.695 38.0375 17.4792 39.5958 17.4792H41.7208C42.5708 17.4792 42.9958 17.6231 42.9958 18.4143H45.1208C45.1208 16.2564 44.3417 15.5371 41.7917 15.5371H39.1C36.6917 15.5371 35.7 16.5441 35.7 18.9897V22.1547C35.7 24.5283 36.6917 25.5354 39.1 25.5354H41.7917C44.3417 25.5354 45.1208 24.8161 45.1208 22.6582H42.9958ZM53.975 22.6582C53.975 23.3775 53.55 23.5932 52.5583 23.5932H50.0792C48.5208 23.5932 48.3083 23.4494 48.3083 21.6511V19.4932C48.3083 17.695 48.5208 17.4792 50.0792 17.4792H52.4875C53.4083 17.4792 53.9042 17.6231 53.9042 18.4143H56.0292C56.0292 16.2564 55.1792 15.5371 52.6292 15.5371H49.5833C47.1042 15.5371 46.1833 16.5441 46.1833 18.9897V22.1547C46.1833 24.5283 47.1042 25.5354 49.5833 25.5354H52.5583C55.1083 25.5354 55.9583 24.8161 55.9583 22.6582V20.1406H51V21.795H53.8333V22.7301L53.975 22.6582ZM-71.1875 18.1266C-70.125 18.1266 -69.8417 18.774 -69.8417 19.3494C-69.8325 19.5734 -69.8972 19.794 -70.0255 19.9764C-70.1538 20.1588 -70.3384 20.2926 -70.55 20.3564C-70.262 20.3925 -69.9985 20.5395 -69.814 20.767C-69.6295 20.9945 -69.538 21.2852 -69.5583 21.5792C-69.5583 22.1547 -69.9125 23.0178 -71.1875 23.0178H-74.375V18.1266H-71.1875ZM-71.5417 20.1406C-71.2583 20.1406 -70.9042 20.0687 -70.9042 19.4932C-70.9042 19.0617 -71.1875 18.9178 -71.7542 18.9178H-73.3833V20.1406H-71.4708H-71.5417ZM-71.5417 22.2985C-71.1167 22.2985 -70.6917 22.1547 -70.6917 21.5792C-70.6917 21.0757 -70.975 20.8599 -71.4 20.8599H-73.3833V22.2985H-71.5417ZM-63.4667 18.1266V18.8459H-66.5833V20.1406H-63.6083V20.8599H-66.5833V22.2985H-63.3958V23.0178H-67.6458V18.1266H-63.3958H-63.4667ZM-61.9083 18.8459V18.1266H-57.375V18.8459H-59.2167V23.0178H-60.2083V18.9178H-61.9792L-61.9083 18.8459ZM-56.1708 18.8459V18.1266H-51.5667V18.8459H-53.3375V23.0178H-54.3292V18.9178H-56.1708V18.8459ZM-45.6875 18.1266V18.8459H-48.875V20.1406H-45.8292V20.8599H-48.875V22.2985H-45.6875V23.0178H-49.8667V18.1266H-45.6875ZM-40.7292 18.1266C-39.4542 18.1266 -39.0292 18.702 -39.0292 19.4932C-39.021 19.7546 -39.1008 20.011 -39.2553 20.2202C-39.4098 20.4294 -39.6298 20.5789 -39.8792 20.6441C-39.3125 20.788 -39.1708 21.2915 -39.1708 21.9389C-39.1708 22.2266 -39.1708 22.7301 -38.9583 23.0178H-40.0208C-40.1625 22.802 -40.1625 22.5143 -40.1625 22.2985C-40.1625 21.5792 -40.2333 21.0757 -41.0125 21.0757H-42.7125V23.0178H-43.7042V18.1266H-40.6583H-40.7292ZM-40.0917 19.5652C-40.0917 19.0617 -40.4458 18.8459 -40.9417 18.8459H-42.7125V20.2845H-40.9417C-40.375 20.2845 -40.0917 20.1406 -40.0917 19.5652ZM-32.9375 18.1266L-31.875 21.9389L-30.6708 18.1266H-29.6083L-28.4042 21.9389L-27.3417 18.1266H-26.2083L-27.8375 23.0178H-29.0417L-30.2458 19.2775L-31.3792 23.0178H-32.5125L-34 18.1266H-32.9375ZM-22.1 18.1266L-19.975 23.0178H-21.0375L-21.6042 21.795H-23.8L-24.2958 23.0178H-25.5L-23.375 18.1266H-22.1708H-22.1ZM-22.6667 18.9897L-23.5167 21.0757H-21.8875L-22.6667 18.9897ZM-19.3375 18.1266H-18.0625L-16.7167 20.2845L-15.3 18.1266H-14.1667L-16.2917 21.1476V23.0178H-17.2125V21.1476L-19.3375 18.1266ZM-8.2875 19.5652H-9.42084C-9.42084 19.2055 -9.775 18.774 -10.625 18.774C-11.2625 18.774 -11.6875 18.9897 -11.6875 19.4932C-11.6875 20.5722 -8.14584 19.4932 -8.14584 21.5792C-8.14584 22.874 -9.42083 23.1617 -10.4125 23.1617C-12.1833 23.1617 -12.8208 22.4424 -12.8917 21.4354H-11.7583C-11.7583 22.1547 -11.1917 22.3704 -10.3417 22.3704C-9.775 22.3704 -9.20834 22.2266 -9.20834 21.6511C-9.20834 20.5003 -12.75 21.5073 -12.75 19.4932C-12.75 18.4143 -11.8292 18.0547 -10.625 18.0547C-9.91667 18.0547 -8.5 18.1266 -8.2875 19.4932V19.5652Z" fill="white"/>
<path d="M41.7916 0.791092C41.8292 0.772015 41.8578 0.738563 41.8711 0.698095C41.8844 0.657626 41.8813 0.613457 41.8625 0.575303C41.8437 0.537149 41.8107 0.508136 41.7709 0.494646C41.731 0.481157 41.6876 0.484296 41.65 0.503373C36.2666 -1.07908 19.8333 0.503372 12.1125 12.5157C11.9708 12.7314 11.9708 12.7314 12.1125 12.8753C14.8041 8.34372 20.9666 4.81916 28.4041 4.02793C31.5054 3.77265 34.6265 3.94201 37.6833 4.53144C37.9666 4.53144 37.9666 4.53144 38.1791 4.38758C39.4541 3.23671 40.6583 2.08583 41.7208 0.791092H41.7916ZM26.4916 40.2806C26.4541 40.2901 26.4218 40.3144 26.4018 40.3481C26.3819 40.3819 26.376 40.4222 26.3854 40.4604C26.3948 40.4985 26.4187 40.5313 26.4519 40.5516C26.4851 40.5718 26.5249 40.5778 26.5625 40.5683C32.0166 42.1507 48.3791 40.5683 56.1708 28.556C56.2416 28.3402 56.1708 28.3402 56.1 28.2683C53.4083 32.7279 47.2458 36.2525 39.8083 37.0437C36.7305 37.2925 33.6337 37.1232 30.6 36.5402C30.2458 36.5402 30.2458 36.5402 30.0333 36.6841C28.7636 37.7888 27.5796 38.9912 26.4916 40.2806Z" fill="white"/>
</g>
<defs>
<clipPath id="clip0_207_153">
<rect width="68" height="41" fill="white"/>
</clipPath>
</defs>
</svg>
