<svg width="109" height="17" viewBox="0 0 109 17" fill="none" xmlns="http://www.w3.org/2000/svg">
<path fill-rule="evenodd" clip-rule="evenodd" d="M22.2234 8.81296C21.1658 12.2917 23.8953 15.5181 29.6336 15.6452H38.3824L41.1002 10.9433H33.499C31.8118 10.9433 31.5947 10.1846 31.5947 10.1846H41.5416L44.2549 5.49617H34.6142C34.6944 5.4058 35.4475 4.74459 36.6105 4.74459H44.6909L47.388 0.0830078H37.5248C30.7416 0.0830078 23.5097 4.58532 22.2243 8.81206M65.0937 8.81296C64.0361 12.2917 66.7665 15.5181 72.5039 15.6452H80.9582L83.675 10.9433H76.3693C71.9895 10.9433 74.0398 4.74459 81.7347 4.74459H86.8892L89.5872 0.0830078H80.396C72.5525 0.0830078 66.3801 4.58532 65.0946 8.81206M68.8429 0.0830078H59.1518C53.2028 0.0830078 46.5448 3.48301 44.0657 7.76611L42.6676 10.1828H51.5588C51.5588 10.3233 50.7516 10.9433 49.3247 10.9433L42.2253 10.9469L39.5057 15.6478L49.5112 15.6452C54.781 15.6452 61.5048 12.7668 63.8127 8.77448L65.709 5.49974L56.1728 5.49617C56.1728 5.27964 57.025 4.80901 57.9691 4.80901L66.1071 4.81259L68.8429 0.0830078Z" fill="white"/>
<path fill-rule="evenodd" clip-rule="evenodd" d="M108.156 3.79799C106.814 0.108992 100.606 -1.04611 94.2877 1.22115C91.6321 2.17136 89.3818 3.5761 87.7621 5.15978C88.4089 5.22868 89.0593 5.31457 89.7196 5.43983C90.2511 5.54094 90.7493 5.66352 91.2744 5.79326C92.9671 6.21199 94.8805 6.6862 98.672 6.57168C98.6792 6.57168 98.3072 7.20426 98.3072 7.20426C94.585 7.32236 92.6518 6.85978 91.0042 6.45357C90.4637 6.31936 89.9565 6.1932 89.4007 6.08673C86.1785 5.47652 83.0211 5.68052 79.9772 6.3972L79.4556 7.2991C82.6463 6.41778 85.8506 6.29431 89.2359 6.93673C89.7683 7.03873 90.2664 7.16041 90.7925 7.29373C92.4266 7.69547 94.2724 8.15089 97.8117 8.07662L97.446 8.70831C93.9328 8.79241 92.1203 8.34773 90.5204 7.94957C89.9809 7.81715 89.4737 7.6901 88.917 7.58452C85.5344 6.9421 82.2419 7.18189 79.0484 8.00147L78.5286 8.9141C81.8671 7.91826 85.211 7.76347 88.753 8.43541C89.2854 8.53562 89.7827 8.6591 90.3097 8.78883C91.8807 9.17894 93.6499 9.61378 96.9352 9.58157L96.5686 10.2088C93.2472 10.2553 91.4816 9.82673 89.9124 9.44289C89.3722 9.30719 88.8285 9.18576 88.2819 9.07873C84.8155 8.43183 81.4536 8.66178 78.1818 9.50194L77.6512 10.4146C80.0623 9.70856 82.5783 9.42308 85.0876 9.57083C84.8858 10.4271 84.9651 11.1527 85.2722 12.0009C86.6154 15.6899 92.8239 16.845 99.1423 14.5787C105.459 12.3132 109.495 7.48699 108.155 3.7971M22.8206 5.49531H16.0032C16.1023 5.22689 16.9905 4.74373 18.6561 4.74373H23.2548L25.9519 0.08215H19.4542C13.3079 0.08215 7.03365 3.57162 4.2465 8.30478L0 15.6452H8.74702L11.7774 10.1837H20.1073L22.8206 5.49531Z" fill="white"/>
</svg>
